<?xml version="1.0" encoding="utf-8"?>
<!-- Generator: Adobe Illustrator 21.0.0, SVG Export Plug-In . SVG Version: 6.00 Build 0)  -->
<svg version="1.1" id="图层_1" xmlns="http://www.w3.org/2000/svg" xmlns:xlink="http://www.w3.org/1999/xlink" x="0px" y="0px"
	 viewBox="0 0 470 170" style="enable-background:new 0 0 470 170;" xml:space="preserve">
<style type="text/css">
	.st0{fill:#F0F4F7;}
	.st1{fill:#E8EEF2;}
	.st2{fill:#DEE7EE;}
	.st3{fill:#E3EDF9;}
	.st4{fill:#FFFFFF;}
	.st5{fill:#D2DAE0;}
	.st6{fill:#C1C7CF;}
	.st7{fill:#FDFEFF;}
	.st8{fill:#EDF7FC;}
</style>
<g id="_x2A_首页">
	<g id="分组-5-copy">
		<path id="路径" class="st0" d="M288.7,145.9c-3.6-3.6-3,3-4.5,4.5c-2.1,2.1-4.3,4-6.6,5.9H187c-2.3-1.8-4.5-3.8-6.6-5.9
			C161.1,131,154,102.3,162.3,76l-7-7.1c-3.6-3.6-3.6-9.5,0-13.1c1.7-1.7,4-2.7,6.4-2.7s4.7,1,6.5,2.7l4.5,4.6c1,1,2.4,1.6,3.9,1.6
			s2.8-0.6,3.9-1.6c2.1-2.2,2.1-5.6,0-7.8l-8.4-8.4c-2.1-2.2-2.1-5.6,0-7.8c1-1,2.4-1.6,3.9-1.6s2.8,0.6,3.9,1.6L191.6,48
			c-0.6,2.5,0.6,5.2,3,6.3c2.4,1.1,5.2,0.4,6.7-1.7c1.6-2.1,1.4-5-0.3-7c-2.2-2.6-4.4-4.9-4.4-4.9l-5-5c23.7-14.5,56.2-14.8,79.7,0
			c23.5,14.8,36.7,41.7,34.1,69.6l10.5,10.7c2.1,2.2,2.1,5.6,0,7.8c-1,1-2.4,1.6-3.9,1.6c-1.5,0-2.8-0.6-3.9-1.6l-10.3-10.5
			c-1-1-2.4-1.6-3.9-1.6c-1.5,0-2.8,0.6-3.9,1.6c-2.1,2.2-2.1,5.6,0,7.8l11.7,11.8c3.6,3.6,3.6,9.5,0,13.1c-1.7,1.7-4,2.7-6.4,2.7
			C292.8,148.6,290.4,147.6,288.7,145.9z"/>
		<path id="路径_1_" class="st1" d="M161.6,30.2c0,2,1,3.8,2.7,4.8s3.8,1,5.5,0c2.2-1.2,3.2-3.8,2.6-6.2c-0.6-2.4-2.8-4.1-5.3-4.1
			C164.1,24.6,161.6,27.1,161.6,30.2"/>
		<path id="形状" class="st2" d="M283,26.3h5.4c0.2,0,0.5,0.1,0.6,0.3c0.2,0.2,0.3,0.4,0.3,0.6s-0.1,0.5-0.3,0.6
			c-0.2,0.2-0.4,0.3-0.6,0.3H283c-0.2,0-0.5-0.1-0.6-0.3c-0.4-0.4-0.4-0.9,0-1.3C282.6,26.4,282.8,26.3,283,26.3z M181.1,118.1
			c-3,0-5.4,2.5-5.4,5.5s2.4,5.5,5.4,5.5s5.4-2.5,5.4-5.5S184.1,118.1,181.1,118.1z M184.5,125.1c-0.6,1.4-1.9,2.3-3.3,2.3
			c-2,0-3.6-1.6-3.6-3.7c0-1.5,0.9-2.8,2.2-3.4c1.4-0.6,2.9-0.3,3.9,0.8C184.7,122.2,185,123.8,184.5,125.1z M232,34.7
			c-3,0-5.4,2.5-5.4,5.5s2.4,5.5,5.4,5.5c1.4,0,2.8-0.6,3.8-1.6c1-1,1.6-2.4,1.6-3.9C237.6,37.1,235.1,34.7,232,34.7z M235.5,41.5
			c-0.6,1.4-1.9,2.3-3.3,2.3c-2,0-3.6-1.6-3.6-3.7c0-1.5,0.9-2.8,2.2-3.4c1.4-0.6,2.9-0.3,3.9,0.8C235.7,38.6,236,40.2,235.5,41.5z
			 M285.8,91.6c-3,0-5.4,2.5-5.4,5.5c0,3,2.4,5.5,5.4,5.5s5.4-2.5,5.4-5.5C291.3,94,288.9,91.6,285.8,91.6z M289.2,98.4
			c-0.6,1.4-1.9,2.3-3.3,2.3c-2,0-3.6-1.6-3.6-3.7c0-1.5,0.9-2.8,2.2-3.4c1.4-0.6,2.9-0.3,3.9,0.8C289.5,95.5,289.8,97.1,289.2,98.4
			z M258.5,2.5c-3,0-5.4,2.5-5.4,5.5s2.4,5.5,5.4,5.5c1.4,0,2.8-0.6,3.8-1.6c1-1,1.6-2.4,1.6-3.9C263.9,5,261.5,2.5,258.5,2.5z
			 M261.8,9.4c-0.6,1.4-1.9,2.3-3.3,2.3c-2,0-3.6-1.6-3.6-3.7c0-1.5,0.9-2.8,2.2-3.4c1.4-0.6,2.9-0.3,3.9,0.8
			C262.1,6.4,262.4,8,261.8,9.4z"/>
		<path id="形状_1_" class="st2" d="M212.7,12.6h5.6c0.2,0,0.5,0.1,0.7,0.3c0.2,0.2,0.3,0.4,0.3,0.6s-0.1,0.5-0.3,0.6
			c-0.2,0.2-0.4,0.3-0.7,0.3h-5.6c-0.2,0-0.5-0.1-0.7-0.3c-0.2-0.2-0.3-0.4-0.3-0.6c0-0.2,0.1-0.5,0.3-0.6
			C212.2,12.7,212.5,12.6,212.7,12.6 M287.2,24.4v5.3c0,0.2-0.1,0.5-0.3,0.6c-0.2,0.2-0.4,0.3-0.7,0.3c-0.2,0-0.5-0.1-0.7-0.3
			c-0.2-0.2-0.3-0.4-0.3-0.6v-5.3c0-0.2,0.1-0.5,0.3-0.6c0.4-0.3,0.9-0.3,1.3,0C287.1,23.9,287.2,24.1,287.2,24.4"/>
		<path id="形状_2_" class="st2" d="M174.5,87.2h5.5c0.2,0,0.5,0.1,0.6,0.3c0.2,0.2,0.3,0.4,0.3,0.6c0,0.5-0.4,0.9-0.9,0.9h-5.5
			c-0.3,0-0.6-0.2-0.8-0.5s-0.2-0.6,0-0.9C173.9,87.4,174.2,87.2,174.5,87.2 M215.9,10.4V16c0,0.2-0.1,0.5-0.3,0.6
			c-0.4,0.4-0.9,0.4-1.3,0c-0.2-0.2-0.3-0.4-0.3-0.6v-5.5c0-0.2,0.1-0.5,0.3-0.6c0.3-0.3,0.6-0.3,1-0.2
			C215.7,9.7,215.9,10,215.9,10.4"/>
		<path id="形状_3_" class="st2" d="M258.7,49.8h5.5c0.5,0,0.9,0.4,0.9,0.9s-0.4,0.9-0.9,0.9h-5.5c-0.4,0-0.7-0.2-0.8-0.6
			c-0.1-0.3-0.1-0.7,0.2-1C258.2,49.9,258.5,49.8,258.7,49.8 M179.5,85.6v5.5c0,0.2-0.1,0.5-0.3,0.6c-0.3,0.3-0.7,0.3-1,0.2
			c-0.3-0.1-0.6-0.5-0.6-0.8v-5.5c0-0.2,0.1-0.5,0.3-0.6c0.2-0.2,0.4-0.3,0.6-0.3s0.5,0.1,0.6,0.3C179.4,85.2,179.5,85.4,179.5,85.6
			"/>
		<path id="形状_4_" class="st0" d="M187.4,159.1h41c0.2,0,0.5,0.1,0.6,0.3c0.2,0.2,0.3,0.4,0.3,0.6c0,0.5-0.4,0.9-0.9,0.9h-41
			c-0.5,0-0.9-0.4-0.9-0.9C186.5,159.6,186.9,159.1,187.4,159.1 M250.2,159.1H274c0.5,0,0.9,0.4,0.9,0.9c0,0.5-0.4,0.9-0.9,0.9
			h-23.7c-0.4,0-0.7-0.2-0.8-0.6c-0.1-0.3-0.1-0.7,0.2-1C249.8,159.2,250,159.1,250.2,159.1 M209.2,165.6h89.4
			c0.4,0,0.7,0.2,0.8,0.6c0.1,0.3,0.1,0.7-0.2,1c-0.2,0.2-0.4,0.3-0.6,0.3h-89.4c-0.2,0-0.5-0.1-0.6-0.3c-0.1-0.2-0.3-0.4-0.3-0.6
			C208.3,166,208.7,165.6,209.2,165.6 M165.5,165.6h23.7c0.4,0,0.7,0.2,0.8,0.6c0.1,0.3,0.1,0.7-0.2,1c-0.2,0.2-0.4,0.3-0.6,0.3
			h-23.7c-0.4,0-0.7-0.2-0.8-0.6c-0.1-0.3-0.1-0.7,0.2-1C165,165.7,165.3,165.6,165.5,165.6 M235.7,159.1h5.4c0.5,0,0.9,0.4,0.9,0.9
			c0,0.5-0.4,0.9-0.9,0.9h-5.4c-0.3,0-0.7-0.1-0.8-0.4c-0.2-0.3-0.2-0.7,0-1C235.1,159.3,235.4,159.1,235.7,159.1 M295,153.5h5.4
			c0.2,0,0.5,0.1,0.6,0.3c0.2,0.2,0.3,0.4,0.3,0.7c0,0.5-0.4,0.9-0.9,0.9H295c-0.5,0-0.9-0.4-0.9-0.9
			C294.1,154,294.5,153.6,295,153.5 M169.1,153.5h116.6c0.5,0,0.9,0.4,0.9,0.9c0,0.5-0.4,0.9-0.9,0.9H169.1c-0.3,0-0.6-0.2-0.8-0.5
			s-0.2-0.6,0-0.9C168.5,153.7,168.8,153.5,169.1,153.5 M262.1,45.6v5.5c0,0.5-0.4,0.9-0.9,0.9s-0.9-0.4-0.9-0.9v-5.5
			c0-0.5,0.4-0.9,0.9-0.9S262.1,45.1,262.1,45.6"/>
		<g id="缺省页-06" transform="translate(47.000000, 58.000000)">
			<path id="路径_2_" class="st3" d="M152.8,56.1c0,2.9,2.3,5.2,5.2,5.2s5.2-2.3,5.2-5.2c0-2.9-2.3-5.2-5.2-5.2
				S152.8,53.2,152.8,56.1z"/>
			<g id="分组-4" transform="translate(0.496454, 0.000000)">
				<path id="形状_5_" class="st4" d="M204.5,67c0.1-0.6,0.1-1.2,0-1.8v-6.2v7.2C204.5,66.5,204.5,66.7,204.5,67z M159.8,4.2
					c-3.1,0-5.6,2.4-5.6,5.4v55.5c0,3,2.5,5.4,5.6,5.4h39.6c1,0,2.1-0.3,2.9-0.8c-0.4,0.1-0.9,0.1-1.3,0h-10.9c-2,0-3.7-1.6-3.7-3.6
					v-6.7c-6.2-3.1-10.3-9.4-10.3-16.1s3.9-13,10.3-16.1V8.9c0-2,1.7-3.5,3.7-3.6h10.7c2,0,3.7,1.6,3.7,3.6v19V9.7
					c0-3-2.5-5.4-5.6-5.4C198.9,4.2,159.8,4.2,159.8,4.2z M163,17.4h14.8c0.4,0,0.7,0.3,0.7,0.7s-0.3,0.7-0.7,0.7H163
					c-0.4,0-0.7-0.3-0.7-0.7S162.6,17.4,163,17.4z M163,26.5c-0.4,0-0.7-0.3-0.7-0.7s0.3-0.7,0.7-0.7h14.8c0.4,0,0.7,0.3,0.7,0.7
					s-0.3,0.7-0.7,0.7H163z M178.5,33.3c0,0.4-0.3,0.7-0.7,0.7H163c-0.4,0-0.7-0.3-0.7-0.7s0.3-0.7,0.7-0.7h14.8
					c0.3,0.1,0.4,0.3,0.5,0.5L178.5,33.3z"/>
				<path id="形状_6_" class="st5" d="M152.9,9.7v55.5c0,3.7,3.1,6.7,7,6.7h39.5c3.9,0,7-3,7-6.7v-6.3l2.7,2.6l-1,3.4l3.6,3.5
					c1,0.9,2.2,1.4,3.6,1.3h0.5c3.3-0.3,6-2.9,6.3-6.1c0.2-1.4-0.4-2.9-1.4-3.9l-3.7-3.6l-3.5,0.9l-3.1-3c5.2-7.1,4.4-17-2-23.2
					c-0.6-0.6-1.3-1.1-2-1.6V9.7c0-3.7-3.1-6.7-7-6.7h-39.6C156,2.8,152.9,5.9,152.9,9.7z M204.8,9.7v18.2c-7.8-4.6-18.1-3-24,3.7
					s-5.9,16.7,0,23.4s16.2,8.3,24,3.7V65c0.1,0.6,0.1,1.2,0,1.8c-0.2,1.3-1.1,2.3-2.3,2.8c-0.9,0.5-1.9,0.8-2.9,0.8h-39.7
					c-3.1,0-5.6-2.4-5.6-5.4V9.7c0-3,2.5-5.4,5.6-5.4h39.6C202.4,4.3,204.8,6.7,204.8,9.7z M207.2,55c-4.9,4.8-12.5,6.2-18.9,3.6
					c-6.4-2.6-10.8-8.7-10.8-15.5s4.2-12.9,10.8-15.5s14-1.1,18.9,3.6C213.9,37.9,213.9,48.5,207.2,55z M215.5,68.6
					c-1.1,0.1-2.2-0.2-3-0.9l-3.1-3l1.5-4.9c0.1-0.2,0.2-0.3,0.4-0.4l5.1-1.4l3.1,3c0.8,0.8,1.1,1.8,1,2.9
					C220.2,66.3,218.1,68.4,215.5,68.6L215.5,68.6z M211,58c-0.6,0.2-1.1,0.7-1.3,1.3v0.8l-3.2-2.7l1.3-1.1L209,55l2.5,2.4L211,58z"
					/>
				<path id="形状_7_" class="st6" d="M163,18.7h14.8c0.4,0,0.7-0.3,0.7-0.7s-0.3-0.7-0.7-0.7H163c-0.4,0-0.7,0.3-0.7,0.7
					S162.6,18.7,163,18.7z M178.3,25.8c0-0.4-0.3-0.7-0.7-0.7H163c-0.4,0-0.7,0.3-0.7,0.7s0.3,0.7,0.7,0.7h14.8
					C178.1,26.4,178.3,26.1,178.3,25.8z M177.9,32.5H163c-0.4,0-0.7,0.3-0.7,0.7c0,0.4,0.3,0.7,0.7,0.7h14.8c0.4,0,0.7-0.3,0.7-0.7
					S178.2,32.5,177.9,32.5L177.9,32.5z"/>
				<path id="形状_8_" class="st7" d="M208.2,56.3l-1.3,1.1l2.4,2.4v-0.9c0.2-0.6,0.7-1.1,1.3-1.3h0.9l-2.2-2.6L208.2,56.3z
					 M219.5,60.5l-3.1-3l-5.1,1.4c-0.2,0.1-0.4,0.2-0.4,0.4l-1.5,4.9l3.1,3c0.8,0.7,1.9,1.1,3,0.9c2.6-0.3,4.7-2.3,5-4.9
					C220.7,62.2,220.3,61.2,219.5,60.5z M194.9,26.7c-8.2,0-15.4,5.7-17,13.6S180.7,56,188.4,59c7.6,3,16.5,0.4,21.1-6.2
					c4.6-6.6,3.6-15.5-2.2-21.1C204,28.5,199.4,26.6,194.9,26.7z M205,53.2c-4.7,4.5-12.2,5.2-17.8,1.6c-5.5-3.6-7.7-10.5-5.2-16.5
					c2.5-6,9.1-9.4,15.7-8.1c6.5,1.2,11.5,6.8,11.5,13.3C209.1,47.1,207.7,50.6,205,53.2L205,53.2z"/>
				<path id="形状_9_" class="st7" d="M204.1,34.7c-4.3-4.2-11.2-4.8-16.3-1.5s-7,9.7-4.7,15.1c2.4,5.4,8.4,8.5,14.5,7.3
					c6-1.2,10.4-6.3,10.4-12.3C207.8,40.1,206.5,37,204.1,34.7z M204.7,50.8c-2.8,2.8-7.1,3.6-10.9,2.1s-6.2-5-6.2-8.9
					s2.4-7.4,6.2-8.9c3.7-1.5,8-0.6,10.9,2.1c1.9,1.8,2.9,4.2,2.9,6.8S206.6,49.1,204.7,50.8L204.7,50.8z"/>
				<path id="形状_10_" class="st5" d="M205,33.8c-4.7-4.5-12.2-5.2-17.8-1.6c-5.6,3.6-7.7,10.5-5.2,16.5c2.5,6,9.1,9.4,15.7,8.1
					s11.5-6.8,11.6-13.4C209.2,39.8,207.7,36.3,205,33.8z M204.1,52.2c-4.3,4.2-11.2,4.8-16.3,1.5c-5.1-3.3-7-9.7-4.7-15.1
					c2.4-5.4,8.4-8.5,14.5-7.3c6,1.2,10.4,6.3,10.4,12.3C207.8,46.8,206.5,49.9,204.1,52.2z"/>
				<path id="路径_3_" class="st8" d="M190.5,50.8c2.5,2.4,6.2,3.4,9.7,2.5c3.4-0.9,6.1-3.5,7-6.8c0.9-3.3-0.1-6.8-2.6-9.4
					c-2.5-2.4-6.2-3.4-9.7-2.5c-3.4,0.9-6.1,3.5-7,6.8C187,44.8,188,48.4,190.5,50.8z"/>
			</g>
		</g>
	</g>
</g>
<g>
	<path class="st0" d="M126.6,106.4h-20.1V66.7c0,0-30-1.8-32-2.1v41.7H47L95.6,7.3L58.2,0L0,141.8h74.5V170h32v-28.2h20.1V106.4z"/>
	<path class="st0" d="M74.5,64.6L74.5,64.6C74.4,64.6,74.4,64.6,74.5,64.6z"/>
</g>
<g>
	<path class="st0" d="M470,106.4h-20.1V66.7c0,0-30-1.8-32-2.1v41.7h-27.5L439,7.3L401.6,0l-58.2,141.8h74.5V170h32v-28.2H470V106.4
		z"/>
	<path class="st0" d="M417.9,64.6L417.9,64.6C417.7,64.6,417.7,64.6,417.9,64.6z"/>
</g>
</svg>
