<svg xmlns="http://www.w3.org/2000/svg" xmlns:xlink="http://www.w3.org/1999/xlink" viewBox="0 0 156.57 153.64"><defs><style>.cls-1,.cls-2,.cls-4{fill:none;stroke-miterlimit:10;}.cls-1,.cls-2{stroke:#19c9e8;stroke-width:0.33px;}.cls-2{opacity:0.5;}.cls-3{fill:#19c9e8;}.cls-4{stroke:#27dff9;stroke-width:0.42px;}.cls-5{fill:url(#未命名的渐变_2);}.cls-6{fill:url(#未命名的渐变_2-2);}.cls-32,.cls-7{fill:#fff;}.cls-7{opacity:0.6;}.cls-8{fill:#27dff9;}.cls-9{fill:#228986;}.cls-10{fill:url(#未命名的渐变_19);}.cls-11{fill:url(#未命名的渐变_19-2);}.cls-12{fill:url(#未命名的渐变_19-3);}.cls-13{fill:url(#未命名的渐变_19-4);}.cls-14{fill:url(#未命名的渐变_19-5);}.cls-15{fill:url(#未命名的渐变_19-6);}.cls-16{fill:url(#未命名的渐变_19-7);}.cls-17{fill:url(#未命名的渐变_19-8);}.cls-18{fill:url(#未命名的渐变_19-10);}.cls-19{fill:url(#未命名的渐变_19-13);}.cls-20{fill:url(#未命名的渐变_19-14);}.cls-21{fill:url(#未命名的渐变_19-15);}.cls-22{fill:url(#未命名的渐变_19-16);}.cls-23{fill:url(#未命名的渐变_19-17);}.cls-24{fill:url(#未命名的渐变_19-18);}.cls-25{fill:url(#未命名的渐变_19-19);}.cls-26{fill:url(#未命名的渐变_19-21);}.cls-27{fill:url(#未命名的渐变_19-22);}.cls-28{fill:url(#未命名的渐变_19-23);}.cls-29{fill:url(#未命名的渐变_19-24);}.cls-30{fill:url(#未命名的渐变_19-25);}.cls-31{fill:url(#未命名的渐变_19-26);}</style><linearGradient id="未命名的渐变_2" x1="1.46" y1="76.72" x2="3.55" y2="76.72" gradientUnits="userSpaceOnUse"><stop offset="0" stop-color="#fff"/><stop offset="1"/></linearGradient><linearGradient id="未命名的渐变_2-2" x1="153.01" y1="76.72" x2="155.1" y2="76.72" xlink:href="#未命名的渐变_2"/><linearGradient id="未命名的渐变_19" x1="65.01" y1="151.44" x2="65.01" y2="-28.56" gradientUnits="userSpaceOnUse"><stop offset="0" stop-color="aqua" stop-opacity="0.4"/><stop offset="0.01" stop-color="#01fdff" stop-opacity="0.41"/><stop offset="0.49" stop-color="#18aaff" stop-opacity="0.72"/><stop offset="0.83" stop-color="#2676ff" stop-opacity="0.92"/><stop offset="1" stop-color="#2c62ff"/></linearGradient><linearGradient id="未命名的渐变_19-2" x1="40.55" y1="151.44" x2="40.55" y2="-28.56" xlink:href="#未命名的渐变_19"/><linearGradient id="未命名的渐变_19-3" x1="20.07" y1="151.44" x2="20.07" y2="-28.56" xlink:href="#未命名的渐变_19"/><linearGradient id="未命名的渐变_19-4" x1="7.53" y1="151.44" x2="7.53" y2="-28.56" xlink:href="#未命名的渐变_19"/><linearGradient id="未命名的渐变_19-5" x1="91.56" y1="151.44" x2="91.56" y2="-28.56" xlink:href="#未命名的渐变_19"/><linearGradient id="未命名的渐变_19-6" x1="116.01" y1="151.44" x2="116.01" y2="-28.56" xlink:href="#未命名的渐变_19"/><linearGradient id="未命名的渐变_19-7" x1="136.5" y1="151.44" x2="136.5" y2="-28.56" xlink:href="#未命名的渐变_19"/><linearGradient id="未命名的渐变_19-8" x1="149.04" y1="151.44" x2="149.04" y2="-28.56" xlink:href="#未命名的渐变_19"/><linearGradient id="未命名的渐变_19-10" x1="154.06" y1="151.44" x2="154.06" y2="-28.56" xlink:href="#未命名的渐变_19"/><linearGradient id="未命名的渐变_19-13" x1="2.51" y1="151.44" x2="2.51" y2="-28.56" xlink:href="#未命名的渐变_19"/><linearGradient id="未命名的渐变_19-14" x1="106.61" y1="151.44" x2="106.61" y2="-28.56" xlink:href="#未命名的渐变_19"/><linearGradient id="未命名的渐变_19-15" x1="102.85" y1="151.44" x2="102.85" y2="-28.56" xlink:href="#未命名的渐变_19"/><linearGradient id="未命名的渐变_19-16" x1="94.48" y1="151.44" x2="94.48" y2="-28.56" xlink:href="#未命名的渐变_19"/><linearGradient id="未命名的渐变_19-17" x1="45.15" y1="151.44" x2="45.15" y2="-28.56" xlink:href="#未命名的渐变_19"/><linearGradient id="未命名的渐变_19-18" x1="72.74" y1="151.44" x2="72.74" y2="-28.56" xlink:href="#未命名的渐变_19"/><linearGradient id="未命名的渐变_19-19" x1="59.37" y1="151.44" x2="59.37" y2="-28.56" xlink:href="#未命名的渐变_19"/><linearGradient id="未命名的渐变_19-21" x1="130.86" y1="151.44" x2="130.86" y2="-28.56" xlink:href="#未命名的渐变_19"/><linearGradient id="未命名的渐变_19-22" x1="66.89" y1="151.44" x2="66.89" y2="-28.56" xlink:href="#未命名的渐变_19"/><linearGradient id="未命名的渐变_19-23" x1="78.18" y1="151.44" x2="78.18" y2="-28.56" xlink:href="#未命名的渐变_19"/><linearGradient id="未命名的渐变_19-24" x1="28.85" y1="151.44" x2="28.85" y2="-28.56" xlink:href="#未命名的渐变_19"/><linearGradient id="未命名的渐变_19-25" x1="92.39" y1="151.44" x2="92.39" y2="-28.56" xlink:href="#未命名的渐变_19"/><linearGradient id="未命名的渐变_19-26" x1="124.58" y1="151.44" x2="124.58" y2="-28.56" xlink:href="#未命名的渐变_19"/></defs><title>Ball</title><g id="图层_2" data-name="图层 2"><g id="图层_1-2" data-name="图层 1"><polygon class="cls-1" points="65.06 151.13 91.3 151.13 115.96 142.16 136.06 125.29 149.19 102.56 153.74 76.72 149.19 50.87 136.06 28.14 115.96 11.28 91.3 2.3 65.06 2.3 40.4 11.28 20.29 28.14 7.17 50.87 2.62 76.72 7.17 102.56 20.29 125.29 40.4 142.16 65.06 151.13"/><polyline class="cls-2" points="152.62 75.71 125.21 36.37 92.38 3.75"/><polyline class="cls-1" points="149.04 51.01 7.32 102.43 40.34 142.14 136.08 125.42 116.01 11.29 65.01 2.51 7.32 51.01 65.01 150.92 153.64 76.92"/><polyline class="cls-2" points="116.6 140.53 130.65 95.74 148.42 52.72"/><polyline class="cls-1" points="149.04 102.43 40.34 11.29 116.01 142.14"/><line class="cls-2" x1="136.08" y1="28.01" x2="149.04" y2="102.43"/><line class="cls-2" x1="45.28" y1="20.86" x2="61.67" y2="93.65"/><polyline class="cls-1" points="58.19 139.03 106.24 66.54 116.01 11.29 31.56 93.65 44.9 19.17"/><polyline class="cls-2" points="28.93 127.13 20.28 28.01 11.41 100.94 92.18 2.51"/><polyline class="cls-1" points="32.29 93.86 92.25 128.18 29.06 128.57"/><polyline class="cls-2" points="94.28 57.28 110.16 85.7 130.89 95.92 109.07 130.14 91.35 150.92 72.95 117.06"/><polyline class="cls-2" points="20.28 28.01 43.27 61.87 94.21 56.45 106.48 20.59 106.4 66.47 102.83 119.35 72.77 117.03 78.39 77.34"/><line class="cls-2" x1="61.67" y1="94.9" x2="58.32" y2="139.22"/><polyline class="cls-2" points="29.06 128.77 31.56 93.65 61.58 93.65"/><circle class="cls-3" cx="65.01" cy="2.51" r="1.05"/><circle class="cls-3" cx="40.55" cy="11.5" r="1.05"/><circle class="cls-3" cx="20.07" cy="27.8" r="1.05"/><circle class="cls-3" cx="7.53" cy="51.21" r="1.05"/><circle class="cls-3" cx="2.51" cy="76.72" r="1.05"/><circle class="cls-3" cx="91.56" cy="2.51" r="1.05"/><circle class="cls-3" cx="116.01" cy="11.5" r="1.05"/><circle class="cls-3" cx="136.5" cy="27.8" r="1.05"/><circle class="cls-3" cx="149.04" cy="51.21" r="1.05"/><circle class="cls-3" cx="154.06" cy="76.72" r="1.05"/><circle class="cls-3" cx="91.56" cy="151.13" r="1.05"/><circle class="cls-3" cx="116.01" cy="142.14" r="1.05"/><circle class="cls-3" cx="136.5" cy="125.84" r="1.05"/><circle class="cls-3" cx="149.04" cy="102.43" r="1.05"/><circle class="cls-3" cx="154.06" cy="76.92" r="1.05"/><circle class="cls-3" cx="65.01" cy="151.13" r="1.05"/><circle class="cls-3" cx="40.55" cy="142.14" r="1.05"/><circle class="cls-3" cx="20.07" cy="125.84" r="1.05"/><circle class="cls-3" cx="7.53" cy="102.43" r="1.05"/><circle class="cls-3" cx="2.51" cy="76.92" r="1.05"/><circle class="cls-3" cx="31.77" cy="93.86" r="2.51"/><circle class="cls-3" cx="106.61" cy="19.86" r="2.51"/><circle class="cls-3" cx="102.85" cy="119.36" r="2.51"/><circle class="cls-3" cx="58.11" cy="139.01" r="1.67"/><circle class="cls-3" cx="94.48" cy="56.23" r="1.67"/><circle class="cls-3" cx="45.15" cy="19.02" r="1.67"/><circle class="cls-3" cx="13.8" cy="82.99" r="1.25"/><circle class="cls-3" cx="72.74" cy="116.43" r="1.25"/><circle class="cls-3" cx="59.37" cy="43.27" r="1.25"/><circle class="cls-3" cx="106.61" cy="67.1" r="1.25"/><circle class="cls-3" cx="130.86" cy="95.53" r="1.25"/><circle class="cls-3" cx="66.89" cy="33.65" r="1.25"/><circle class="cls-3" cx="78.18" cy="76.72" r="1.25"/><circle class="cls-3" cx="28.85" cy="128.56" r="1.25"/><circle class="cls-3" cx="61.46" cy="93.86" r="0.84"/><circle class="cls-3" cx="92.39" cy="128.14" r="0.84"/><circle class="cls-3" cx="124.58" cy="59.57" r="0.84"/><line class="cls-4" x1="106.4" y1="20.49" x2="66.79" y2="33.46"/><polyline class="cls-4" points="78.18 76.72 94.28 56.44 92.18 2.93"/><circle class="cls-5" cx="2.51" cy="76.72" r="1.05"/><circle class="cls-6" cx="154.06" cy="76.72" r="1.05"/><circle class="cls-7" cx="116.01" cy="142.14" r="2.51"/><circle class="cls-8" cx="136.5" cy="125.84" r="2.51"/><circle class="cls-8" cx="149.04" cy="102.43" r="2.51"/><circle class="cls-8" cx="65.01" cy="151.13" r="2.51"/><circle class="cls-8" cx="20.07" cy="125.84" r="2.51"/><circle class="cls-7" cx="58.11" cy="139.01" r="2.51"/><circle class="cls-9" cx="13.8" cy="82.99" r="2.51"/><circle class="cls-9" cx="43.48" cy="61.25" r="2.51"/><circle class="cls-10" cx="65.01" cy="2.51" r="2.51"/><circle class="cls-11" cx="40.55" cy="11.5" r="2.51"/><circle class="cls-12" cx="20.07" cy="27.8" r="2.51"/><circle class="cls-13" cx="7.53" cy="51.21" r="2.51"/><circle class="cls-14" cx="91.56" cy="2.51" r="2.51"/><circle class="cls-15" cx="116.01" cy="11.5" r="2.51"/><circle class="cls-16" cx="136.5" cy="27.8" r="2.51"/><circle class="cls-17" cx="149.04" cy="51.21" r="2.51"/><circle class="cls-14" cx="91.56" cy="151.13" r="2.51"/><circle class="cls-18" cx="154.06" cy="76.92" r="2.51"/><circle class="cls-11" cx="40.55" cy="142.14" r="2.51"/><circle class="cls-13" cx="7.53" cy="102.43" r="2.51"/><circle class="cls-19" cx="2.51" cy="76.92" r="2.51"/><circle class="cls-20" cx="106.61" cy="19.86" r="2.51"/><circle class="cls-21" cx="102.85" cy="119.36" r="2.51"/><circle class="cls-22" cx="94.48" cy="56.23" r="2.51"/><circle class="cls-23" cx="45.15" cy="19.02" r="2.51"/><circle class="cls-24" cx="72.74" cy="116.43" r="2.51"/><circle class="cls-25" cx="59.37" cy="43.27" r="2.51"/><circle class="cls-20" cx="106.61" cy="67.1" r="2.51"/><circle class="cls-26" cx="130.86" cy="95.53" r="2.51"/><circle class="cls-27" cx="66.89" cy="33.65" r="2.51"/><circle class="cls-28" cx="78.18" cy="76.72" r="2.51"/><circle class="cls-29" cx="28.85" cy="128.56" r="2.51"/><circle class="cls-30" cx="92.39" cy="128.14" r="2.51"/><circle class="cls-31" cx="124.58" cy="59.57" r="2.51"/><line class="cls-1" x1="2.72" y1="76.92" x2="30.83" y2="93.02"/><line class="cls-2" x1="110.16" y1="86.12" x2="61.25" y2="93.65"/><circle class="cls-9" cx="61.46" cy="93.86" r="2.51"/><line class="cls-2" x1="125.21" y1="35.95" x2="136.5" y2="28.01"/><line class="cls-2" x1="125.42" y1="36.16" x2="94.48" y2="56.23"/><circle class="cls-9" cx="125.42" cy="36.16" r="2.51"/><circle class="cls-9" cx="109.95" cy="85.91" r="2.51"/><polyline class="cls-1" points="91.35 2.51 20.28 28.01 2.72 76.92 20.28 125.42 91.35 150.92 136.08 28.01"/><circle class="cls-32" cx="31.77" cy="93.86" r="2.51"/></g></g></svg>