<svg xmlns="http://www.w3.org/2000/svg" xmlns:xlink="http://www.w3.org/1999/xlink" viewBox="0 0 4.76 5.68"><defs><style>.cls-1{fill:none;}.cls-2{opacity:0.7;}.cls-3{isolation:isolate;}.cls-4{clip-path:url(#clip-path);}.cls-5{fill:url(#linear-gradient);}.cls-6{fill:url(#linear-gradient-2);}.cls-7{clip-path:url(#clip-path-2);}.cls-8{fill:url(#linear-gradient-3);}.cls-9{clip-path:url(#clip-path-3);}.cls-10{fill:url(#linear-gradient-4);}.cls-11{fill:url(#linear-gradient-5);}</style><clipPath id="clip-path"><path class="cls-1" d="M2.62.09,4,0a1,1,0,0,0-.58.28L2,.37A1,1,0,0,1,2.62.09Z"/></clipPath><linearGradient id="linear-gradient" x1="589.84" y1="7.55" x2="591.27" y2="8.5" gradientTransform="matrix(-0.88, 0.47, 0.47, 0.88, 521.68, -281.5)" gradientUnits="userSpaceOnUse"><stop offset="0" stop-color="#00b3ff"/><stop offset="0.18" stop-color="#2490f6"/><stop offset="0.44" stop-color="#5163ea"/><stop offset="0.68" stop-color="#7242e2"/><stop offset="0.87" stop-color="#862edd"/><stop offset="1" stop-color="#8d27db"/></linearGradient><linearGradient id="linear-gradient-2" x1="591.14" y1="7.16" x2="593.14" y2="9.76" xlink:href="#linear-gradient"/><clipPath id="clip-path-2"><path class="cls-1" d="M1.22,3.92.32,4A1.61,1.61,0,0,1,.61,2.56l.9,0A1.61,1.61,0,0,0,1.22,3.92Z"/></clipPath><linearGradient id="linear-gradient-3" x1="593.07" y1="8.84" x2="593.84" y2="9.93" xlink:href="#linear-gradient"/><clipPath id="clip-path-3"><path class="cls-1" d="M1.45,5.64l-.9,0A.46.46,0,0,1,.1,5.41,1.5,1.5,0,0,1,.32,4l.9,0A1.5,1.5,0,0,0,1,5.37.46.46,0,0,0,1.45,5.64Z"/></clipPath><linearGradient id="linear-gradient-4" x1="593.76" y1="10.15" x2="594.9" y2="11.6" xlink:href="#linear-gradient"/><linearGradient id="linear-gradient-5" x1="588.85" y1="9.7" x2="594.36" y2="9.7" gradientTransform="matrix(-0.88, 0.47, 0.47, 0.88, 521.68, -281.5)" gradientUnits="userSpaceOnUse"><stop offset="0" stop-color="#78ffd6"/><stop offset="0.18" stop-color="#72f9d9"/><stop offset="0.42" stop-color="#61e6e1"/><stop offset="0.71" stop-color="#46c9ee"/><stop offset="1" stop-color="#24a4ff"/></linearGradient></defs><title>cloud</title><g id="图层_2" data-name="图层 2"><g id="图层_1-2" data-name="图层 1"><g class="cls-2"><g class="cls-3"><g class="cls-4"><path class="cls-5" d="M3.42.28,2,.37A1,1,0,0,1,2.62.09L4,0a1,1,0,0,0-.58.28Z"/></g></g><path class="cls-6" d="M2,.1a1.26,1.26,0,0,0-.85.53A2.53,2.53,0,0,0,.61,2.56l.9,0A2.53,2.53,0,0,1,2,.59,1.26,1.26,0,0,1,2.87.06Z"/><g class="cls-3"><g class="cls-7"><path class="cls-8" d="M1.22,3.92.32,4A1.61,1.61,0,0,1,.61,2.56l.9,0a1.61,1.61,0,0,0-.29,1.41Z"/></g></g><g class="cls-3"><g class="cls-9"><path class="cls-10" d="M1.45,5.64l-.9,0A.46.46,0,0,1,.1,5.41,1.5,1.5,0,0,1,.32,4l.9,0A1.5,1.5,0,0,0,1,5.37a.46.46,0,0,0,.44.27Z"/></g></g><path class="cls-11" d="M2,.59c.46-.58,1-.7,1.4-.31.44-.4.94-.37,1.19.1a2.09,2.09,0,0,1-.34,2.06L2,5.29c-.34.43-.79.46-1,.07a1.5,1.5,0,0,1,.21-1.44,1.61,1.61,0,0,1,.29-1.41A2.53,2.53,0,0,1,2,.59Z"/></g></g></g></svg>