<?xml version="1.0" encoding="UTF-8"?>
<svg width="51px" height="48px" viewBox="0 0 51 48" version="1.1" xmlns="http://www.w3.org/2000/svg" xmlns:xlink="http://www.w3.org/1999/xlink" style="background: #FFFFFF;">
    <!-- Generator: Sketch 54.1 (76490) - https://sketchapp.com -->
    <title>下载</title>
    <desc>Created with Sketch.</desc>
    <g id="信息标准" stroke="none" stroke-width="1" fill="none" fill-rule="evenodd">
        <g id="信息标准v4" transform="translate(-1495.000000, -460.000000)">
            <g id="执行代码" transform="translate(0.000000, 300.000000)">
                <g id="编组-5" transform="translate(370.000000, 153.000000)">
                    <g id="编组-14" transform="translate(1127.000000, 9.000000)">
                        <polyline id="路径-2" stroke="#000000" stroke-width="3" points="0 8.03320312 0 0 8.74414062 0"></polyline>
                        <polyline id="路径-2" stroke="#000000" stroke-width="3" transform="translate(4.372070, 40.016602) scale(1, -1) translate(-4.372070, -40.016602) " points="0 44.0332031 0 36 8.74414062 36"></polyline>
                        <polyline id="路径-2" stroke="#000000" stroke-width="3" transform="translate(41.372070, 4.016602) scale(-1, 1) translate(-41.372070, -4.016602) " points="37 8.03320312 37 0 45.7441406 0"></polyline>
                        <polyline id="路径-2" stroke="#000000" stroke-width="3" transform="translate(41.372070, 40.016602) scale(-1, -1) translate(-41.372070, -40.016602) " points="37 44.0332031 37 36 45.7441406 36"></polyline>
                        <path d="M0,24.6568542 L47,24.6568542" id="直线-16" stroke="#000000" stroke-width="3" stroke-linecap="square"></path>
                        <path d="M8.74414062,30.5 L15.2763672,30.5" id="直线-17" stroke="#000000" stroke-width="3" stroke-linecap="square"></path>
                        <path d="M19.5,30.5 L34.4599609,30.5" id="直线-18" stroke="#000000" stroke-width="3" stroke-linecap="square"></path>
                        <circle id="椭圆形" fill="#000000" cx="11" cy="11" r="3"></circle>
                        <polyline id="路径-5" stroke="#000000" stroke-width="3" points="9.5 23.5 15.2763672 17.1416016 19.5 23.5"></polyline>
                        <polyline id="路径-6" stroke="#000000" stroke-width="3" points="25.5 23.5 34.4599609 14 39.5068359 23.5"></polyline>
                    </g>
                </g>
            </g>
        </g>
    </g>
</svg>