<?xml version="1.0" encoding="utf-8"?>
<!-- Generator: Adobe Illustrator 21.0.0, SVG Export Plug-In . SVG Version: 6.00 Build 0)  -->
<svg version="1.1" id="图层_1" xmlns="http://www.w3.org/2000/svg" xmlns:xlink="http://www.w3.org/1999/xlink" x="0px" y="0px"
	 viewBox="0 0 60 60" style="enable-background:new 0 0 60 60;" xml:space="preserve">
<path d="M59.5,52.8l-25-50.1l0,0c-0.5-1-1.3-1.7-2.2-2.2c-1.2-0.6-2.5-0.7-3.8-0.3c-1.3,0.4-2.3,1.3-2.9,2.5l-25,50.1
	C0.2,53.5,0,54.3,0,55c0,2.7,2.2,5,5,5H55c0.8,0,1.5-0.2,2.2-0.5C59.7,58.2,60.7,55.3,59.5,52.8z M56.3,53.9L31.7,32.7V4.6
	L56.3,53.9z M29.4,36.2h1.3l23.8,20.4H6.6L29.4,36.2z M3.5,54.3L28.3,4.6v28.2l-25,22.4c0,0,0-0.1,0-0.1C3.3,54.8,3.4,54.5,3.5,54.3
	z"/>
</svg>
