<?xml version="1.0" encoding="utf-8"?>
<!-- Generator: Adobe Illustrator 21.0.0, SVG Export Plug-In . SVG Version: 6.00 Build 0)  -->
<svg version="1.1" id="图层_1" xmlns="http://www.w3.org/2000/svg" xmlns:xlink="http://www.w3.org/1999/xlink" x="0px" y="0px"
	 viewBox="0 0 58 41.6" style="enable-background:new 0 0 58 41.6;" xml:space="preserve">
<title>下载 (5)</title>
<desc>Created with Sketch.</desc>
<path d="M4.1,3.6c0-0.3,0.2-0.5,0.5-0.5h50.8V0H4.6C2.6,0,1,1.6,1,3.6v17.1h3.1V3.6z"/>
<path d="M53.9,38c0,0.3-0.2,0.5-0.5,0.5H3.6v3.1h49.8c2,0,3.6-1.6,3.6-3.6V20.9h-3.1V38z"/>
<path d="M11.2,31c0-0.8-0.2-1.6-0.5-2.3l6.9-6.9l-2.2-2.2l-6.7,6.7c-0.9-0.6-2-1-3.1-1C2.5,25.4,0,27.9,0,31s2.5,5.6,5.6,5.6
	S11.2,34.1,11.2,31z M3.1,31c0-1.4,1.1-2.5,2.5-2.5s2.5,1.1,2.5,2.5c0,1.4-1.1,2.5-2.5,2.5S3.1,32.4,3.1,31z"/>
<path d="M46.8,12.7c0,3.1,2.5,5.6,5.6,5.6c3.1,0,5.6-2.5,5.6-5.6s-2.5-5.6-5.6-5.6C49.3,7.1,46.8,9.6,46.8,12.7z M54.9,12.7
	c0,1.4-1.1,2.5-2.5,2.5c-1.4,0-2.5-1.1-2.5-2.5s1.1-2.5,2.5-2.5C53.8,10.2,54.9,11.3,54.9,12.7z"/>
<path d="M45.9,16.7l-6.7,6.7c-0.9-0.6-2-1-3.1-1c-1.6,0-3,0.7-4.1,1.8L27,19.1c0.3-0.7,0.5-1.5,0.5-2.3c0-3.1-2.5-5.6-5.6-5.6
	s-5.6,2.5-5.6,5.6s2.5,5.6,5.6,5.6c1.2,0,2.2-0.4,3.1-1l5.6,5.6c-0.1,0.3-0.1,0.6-0.1,1c0,3.1,2.5,5.6,5.6,5.6s5.6-2.5,5.6-5.6
	c0-0.8-0.2-1.6-0.5-2.3l6.9-6.9L45.9,16.7z M21.9,19.3c-1.4,0-2.5-1.1-2.5-2.5c0-1.4,1.1-2.5,2.5-2.5c1.4,0,2.5,1.1,2.5,2.5
	C24.4,18.2,23.3,19.3,21.9,19.3z M36.1,30.5c-1.4,0-2.5-1.1-2.5-2.5s1.1-2.5,2.5-2.5c1.4,0,2.5,1.1,2.5,2.5S37.5,30.5,36.1,30.5z"/>
</svg>
