<?xml version="1.0" encoding="UTF-8"?>
<svg width="51px" height="57px" viewBox="0 0 51 57" version="1.1" xmlns="http://www.w3.org/2000/svg" xmlns:xlink="http://www.w3.org/1999/xlink" style="background: #FFFFFF;">
    <!-- Generator: Sketch 54.1 (76490) - https://sketchapp.com -->
    <title>下载 (7)</title>
    <desc>Created with Sketch.</desc>
    <g id="信息标准" stroke="none" stroke-width="1" fill="none" fill-rule="evenodd">
        <g id="信息标准v4" transform="translate(-1334.000000, -455.000000)" stroke="#000000" stroke-width="3">
            <g id="执行代码" transform="translate(0.000000, 300.000000)">
                <g id="编组-5" transform="translate(370.000000, 153.000000)">
                    <g id="编组-47" transform="translate(964.958984, 2.000000)">
                        <path d="M34.5410156,29 L34.5410156,11 C34.5410156,5.75329488 30.2877207,1.5 25.0410156,1.5 C19.7943105,1.5 15.5410156,5.75329488 15.5410156,11 L15.5410156,29 C15.5410156,34.2467051 19.7943105,38.5 25.0410156,38.5 C30.2877207,38.5 34.5410156,34.2467051 34.5410156,29 Z" id="路径"></path>
                        <path d="M41.0410156,31 C41.0410156,39.836556 33.8775716,47 25.0410156,47 C16.2044596,47 9.04101562,39.836556 9.04101562,31 L9.04101562,26" id="路径"></path>
                        <path d="M-2.13162821e-14,21 C6.52226164,18.6306704 11.2026002,17.6306704 14.0410156,18 C19.9256808,18.7657023 24.2329867,23.9443667 27.2646484,25.75 C29.8744777,27.3043933 35.5325847,27.6258434 40.9162684,25.75 C42.7662986,25.1053918 45.3560581,23.5220584 48.6855469,21" id="路径-7"></path>
                        <path d="M25.0410156,47.0900974 L25.0410156,55" id="直线-19" stroke-linecap="square"></path>
                    </g>
                </g>
            </g>
        </g>
    </g>
</svg>