<svg x="0px" y="0px" viewBox="0 0 51 48" style="enable-background:new 0 0 51 48;" xml:space="preserve">
	<g>
		<polygon points="3.7,3.1 11.1,3.1 11.1,0 0.6,0 0.6,9.8 3.7,9.8 	"/>
		<polygon points="3.7,38.3 0.6,38.3 0.6,48 11.1,48 11.1,44.9 3.7,44.9 	"/>
		<polygon points="47.3,9.8 50.4,9.8 50.4,0 39.9,0 39.9,3.1 47.3,3.1 	"/>
		<polygon points="47.3,44.9 39.9,44.9 39.9,48 50.4,48 50.4,38.3 47.3,38.3 	"/>
		<path d="M42.5,25.2l0.7-0.4L37,13.2L26.4,24.5l0.7,0.7h-5.2l0.7-0.5l-5.4-8.1l-7.2,7.9l0.7,0.7H0v3.1h51v-3.1H42.5z M36.3,18.4
		l3.6,6.7H30L36.3,18.4z M16.9,21.5l2.4,3.7h-5.7L16.9,21.5z"/>
		<rect x="8.9" y="31.1" width="9.7" height="3.1"/>
		<rect x="19.9" y="31.1" width="18.3" height="3.1"/>
		<circle cx="12.8" cy="12.8" r="3.1"/>
	</g>
</svg>
