<?xml version="1.0" encoding="utf-8"?>
<!-- Generator: Adobe Illustrator 21.0.0, SVG Export Plug-In . SVG Version: 6.00 Build 0)  -->
<svg version="1.1" id="图层_1" xmlns="http://www.w3.org/2000/svg" xmlns:xlink="http://www.w3.org/1999/xlink" x="0px" y="0px"
	 viewBox="0 0 51 39.5" style="enable-background:new 0 0 51 39.5;" xml:space="preserve">
<path d="M0,14v3v20.5c0,1.1,0.9,2,2,2h37c1.1,0,2-0.9,2-2v-30H0V14z M3,36.5V17h35v19.5H3z M38,10.5V14H3v-3.5H38z"/>
<path d="M23.7,25.2l-5-2.8c-0.7-0.4-1.6-0.1-2,0.6c-0.1,0.2-0.2,0.5-0.2,0.7v5.6c0,0.8,0.7,1.5,1.5,1.5c0.3,0,0.5-0.1,0.7-0.2l5-2.8
	c0.3-0.2,0.6-0.5,0.7-0.9s0.1-0.8-0.1-1.1C24.1,25.5,23.9,25.3,23.7,25.2z"/>
<path d="M10.6,0v5.5h3V3H48v4.5h-4.7v3H48V29c0,0.3-0.2,0.5-0.5,0.5h-4v3h4c1.9,0,3.5-1.6,3.5-3.5V0H10.6z"/>
</svg>
