<?xml version="1.0" encoding="utf-8"?>
<!-- Generator: Adobe Illustrator 21.0.0, SVG Export Plug-In . SVG Version: 6.00 Build 0)  -->
<svg version="1.1" id="图层_1" xmlns="http://www.w3.org/2000/svg" xmlns:xlink="http://www.w3.org/1999/xlink" x="0px" y="0px"
	 viewBox="0 0 51 57" style="enable-background:new 0 0 51 57;" xml:space="preserve">
<title>下载 (7)</title>
<desc>Created with Sketch.</desc>
<path d="M26,45.9c-8.1,0-14.6-6.6-14.6-14.6v-5h-3v5c0,9.2,7.1,16.8,16.1,17.6V57h3v-8.1c9-0.8,16.1-8.4,16.1-17.6h-3
	C40.6,39.3,34.1,45.9,26,45.9z"/>
<path d="M14.7,19.7c0.1,0,0.1,0,0.2,0v9.6c0,6.1,5,11.1,11.1,11.1c6.1,0,11.1-5,11.1-11.1v-0.6c1.8-0.2,3.7-0.6,5.4-1.2
	c2-0.7,4.7-2.3,8.3-5L48.9,20c-3.2,2.4-5.7,4-7.4,4.6c-1.5,0.5-3,0.8-4.4,1V11.1C37.1,5,32.1,0,26,0c-6.1,0-11.1,5-11.1,11.1v5.5
	c-3.1-0.3-7.9,0.7-14.7,3.1l1,2.8C7.6,20.3,12.1,19.3,14.7,19.7z M17.9,11.1C17.9,6.6,21.6,3,26,3c4.5,0,8.1,3.6,8.1,8.1v14.7
	c-2.2,0-4-0.4-5.1-1.1c-0.8-0.5-1.7-1.2-2.8-2.1c-2.3-1.9-5-4-8.3-5.2V11.1z M17.9,20.6c2.4,1.1,4.5,2.8,6.4,4.3
	c1.2,1,2.2,1.8,3.2,2.4c1.6,1,4,1.5,6.6,1.5v0.5c0,4.5-3.6,8.1-8.1,8.1c-4.5,0-8.1-3.6-8.1-8.1V20.6z"/>
</svg>
