<?xml version="1.0" encoding="utf-8"?>
<!-- Generator: Adobe Illustrator 21.0.0, SVG Export Plug-In . SVG Version: 6.00 Build 0)  -->
<svg version="1.1" id="图层_1" xmlns="http://www.w3.org/2000/svg" xmlns:xlink="http://www.w3.org/1999/xlink" x="0px" y="0px"
	 viewBox="0 0 60 60" style="enable-background:new 0 0 60 60;" xml:space="preserve">
<g>
	<path d="M54.4,0H5.6C3.2,0,1.3,2,1.3,4.4v51.3c0,2.4,2,4.4,4.4,4.4h48.8c2.4,0,4.4-2,4.4-4.4V4.4C58.8,2,56.8,0,54.4,0z M55,55.6
		c0,0.3-0.3,0.6-0.6,0.6H5.6C5.3,56.3,5,56,5,55.6V4.4C5,4,5.3,3.8,5.6,3.8h48.8C54.7,3.8,55,4,55,4.4V55.6z"/>
	<polygon points="18.2,37.5 21,37.5 21,15 29.8,15 29.8,12.5 9.3,12.5 9.3,15 18.2,15 	"/>
	<rect x="33.8" y="12.5" width="18.1" height="3.8"/>
	<rect x="33.8" y="23.8" width="18.1" height="3.8"/>
	<rect x="33.8" y="33.8" width="18.1" height="3.8"/>
	<rect x="8.1" y="46.3" width="43.8" height="3.8"/>
</g>
</svg>
