<?xml version="1.0" encoding="UTF-8"?>
<svg width="50px" height="48px" viewBox="0 0 50 48" version="1.1" xmlns="http://www.w3.org/2000/svg" xmlns:xlink="http://www.w3.org/1999/xlink" style="background: #FFFFFF;">
    <!-- Generator: Sketch 54.1 (76490) - https://sketchapp.com -->
    <title>下载 (3)</title>
    <desc>Created with Sketch.</desc>
    <g id="信息标准" stroke="none" stroke-width="1" fill="none" fill-rule="evenodd">
        <g id="信息标准v4" transform="translate(-696.000000, -459.000000)" stroke="#000000" stroke-width="3">
            <g id="执行代码" transform="translate(0.000000, 300.000000)">
                <g id="编组-5" transform="translate(370.000000, 153.000000)">
                    <g id="编组-14" transform="translate(328.000000, 8.000000)">
                        <polyline id="路径-2" points="0 8.03320312 0 0 8.74414062 0"></polyline>
                        <polyline id="路径-2" transform="translate(4.372070, 40.016602) scale(1, -1) translate(-4.372070, -40.016602) " points="0 44.0332031 0 36 8.74414062 36"></polyline>
                        <polyline id="路径-2" transform="translate(41.372070, 4.016602) scale(-1, 1) translate(-41.372070, -4.016602) " points="37 8.03320312 37 0 45.7441406 0"></polyline>
                        <polyline id="路径-2" transform="translate(41.372070, 40.016602) scale(-1, -1) translate(-41.372070, -40.016602) " points="37 44.0332031 37 36 45.7441406 36"></polyline>
                        <path d="M3,22.902832 C16.155599,5.69905599 29.4664714,5.69905599 42.9326172,22.902832 C35.4905306,31.6095159 28.8350944,35.9688909 22.9663086,35.980957 C16.7915039,35.9936523 10.1360677,31.6342773 3,22.902832 Z" id="路径-3"></path>
                        <circle id="椭圆形" cx="23" cy="23" r="5"></circle>
                    </g>
                </g>
            </g>
        </g>
    </g>
</svg>