<?xml version="1.0" encoding="utf-8"?>
<!-- Generator: Adobe Illustrator 21.0.0, SVG Export Plug-In . SVG Version: 6.00 Build 0)  -->
<svg version="1.1" id="图层_1" xmlns="http://www.w3.org/2000/svg" xmlns:xlink="http://www.w3.org/1999/xlink" x="0px" y="0px"
	 viewBox="0 0 60 60" style="enable-background:new 0 0 60 60;" xml:space="preserve">
<title>编组 18</title>
<desc>Created with Sketch.</desc>
<path d="M60,28.4C59.1,13.1,46.9,0.9,31.6,0v0h-3.3v0C13.1,0.9,0.9,13.1,0,28.4h0v3.3h0C0.9,46.9,13.1,59.1,28.4,60v0h3.3v0
	C46.9,59.1,59.1,46.9,60,31.6h0L60,28.4L60,28.4z M56.7,28.4H42.4c-0.7-5.6-5.2-10.1-10.8-10.8V3.3C45.1,4.1,55.9,14.9,56.7,28.4z
	 M30,39.3c-5.1,0-9.3-4.2-9.3-9.3c0-5.1,4.2-9.3,9.3-9.3c5.1,0,9.3,4.2,9.3,9.3C39.3,35.1,35.1,39.3,30,39.3z M28.4,3.3v14.2
	c-5.6,0.7-10.1,5.2-10.8,10.8H3.3C4.1,14.9,14.9,4.1,28.4,3.3z M3.3,31.6h14.2c0.7,5.6,5.2,10.1,10.8,10.8v14.2
	C14.9,55.9,4.1,45.1,3.3,31.6z M31.6,56.7V42.4c5.6-0.7,10.1-5.2,10.8-10.8h14.2C55.9,45.1,45.1,55.9,31.6,56.7z"/>
</svg>
