<?xml version="1.0" encoding="utf-8"?>
<!-- Generator: Adobe Illustrator 21.0.0, SVG Export Plug-In . SVG Version: 6.00 Build 0)  -->
<svg version="1.1" id="图层_1" xmlns="http://www.w3.org/2000/svg" xmlns:xlink="http://www.w3.org/1999/xlink" x="0px" y="0px"
	 viewBox="0 0 50 48" style="enable-background:new 0 0 50 48;" xml:space="preserve">
<title>下载 (3)</title>
<desc>Created with Sketch.</desc>
<polygon points="3.1,3.1 10.5,3.1 10.5,0 0,0 0,9.8 3.1,9.8 "/>
<polygon points="3.1,38.5 0,38.5 0,48.2 10.5,48.2 10.5,45.2 3.1,45.2 "/>
<polygon points="39.5,0 39.5,3.1 46.9,3.1 46.9,9.8 50,9.8 50,0 "/>
<polygon points="46.9,45.2 39.5,45.2 39.5,48.2 50,48.2 50,38.5 46.9,38.5 "/>
<path d="M46.7,26l0.8-1l-0.8-1C39.6,14.9,32.3,10.3,25,10.3c0,0-0.1,0-0.1,0c-7.3,0-14.5,4.7-21.5,13.8l-0.7,1L3.4,26
	c7.6,9.3,14.9,14,21.6,14c0,0,0,0,0,0C31.7,40,38.7,35.4,46.7,26z M25.1,36.9C25.1,36.9,25.1,36.9,25.1,36.9
	c-5.6,0-11.8-4-18.5-11.9c6.1-7.7,12.3-11.6,18.3-11.7c0,0,0.1,0,0.1,0c6,0,12.3,3.9,18.6,11.7C36.6,32.9,30.4,36.9,25.1,36.9z"/>
<path d="M25.1,18.5c-3.7,0-6.7,3-6.7,6.7s3,6.7,6.7,6.7s6.7-3,6.7-6.7S28.8,18.5,25.1,18.5z M25.1,28.7c-2,0-3.6-1.6-3.6-3.6
	s1.6-3.6,3.6-3.6s3.6,1.6,3.6,3.6S27.1,28.7,25.1,28.7z"/>
</svg>
