<?xml version="1.0" encoding="UTF-8"?>
<svg width="58px" height="42px" viewBox="0 0 58 42" version="1.1" xmlns="http://www.w3.org/2000/svg" xmlns:xlink="http://www.w3.org/1999/xlink" style="background: #FFFFFF;">
    <!-- Generator: Sketch 54.1 (76490) - https://sketchapp.com -->
    <title>下载 (5)</title>
    <desc>Created with Sketch.</desc>
    <g id="信息标准" stroke="none" stroke-width="1" fill="none" fill-rule="evenodd">
        <g id="信息标准v4" transform="translate(-1011.000000, -462.000000)" stroke="#000000" stroke-width="3">
            <g id="执行代码" transform="translate(0.000000, 300.000000)">
                <g id="编组-5" transform="translate(370.000000, 153.000000)">
                    <g id="编组-43" transform="translate(643.000000, 11.000000)">
                        <path d="M1,18.8007812 L1,2 C1,0.8954305 1.8954305,2.02906125e-16 3,0 L52.9570312,0" id="路径-4"></path>
                        <path d="M2,37.8515625 L2,21.0507812 C2,19.9462118 2.8954305,19.0507812 4,19.0507812 L52.9570312,19.0507812" id="路径-4" transform="translate(27.478516, 28.451172) scale(-1, -1) translate(-27.478516, -28.451172) "></path>
                        <g id="编组-42" transform="translate(0.000000, 20.000000)">
                            <circle id="椭圆形" cx="4" cy="9" r="4"></circle>
                            <path d="M13.6568542,0 L8,5.65685425" id="直线-13" stroke-linecap="square"></path>
                        </g>
                        <g id="编组-42" transform="translate(35.000000, 15.500000) scale(1, -1) translate(-35.000000, -15.500000) translate(16.000000, 7.000000)">
                            <circle id="椭圆形" cx="4" cy="9" r="4"></circle>
                            <circle id="椭圆形" cx="34" cy="13" r="4"></circle>
                            <path d="M13.6568542,0 L8,5.65685425" id="直线-13" stroke-linecap="square"></path>
                        </g>
                        <g id="编组-42" transform="translate(30.000000, 17.000000)">
                            <circle id="椭圆形" cx="4" cy="9" r="4"></circle>
                            <path d="M13.6568542,-3.99680289e-15 L8,5.65685425" id="直线-13" stroke-linecap="square"></path>
                        </g>
                    </g>
                </g>
            </g>
        </g>
    </g>
</svg>