<svg x="0px" y="0px" width="312.051px" height="134.587px" viewBox="0 0 312.051 134.587" enable-background="new 0 0 312.051 134.587" xml:space="preserve">
	<path fill="#EA0000" d="M204.08,1.421c-1.623-2.397-3.235-1.28-4.804-0.143c-1.493,1.082-3.004,1.36-4.544,1.764
	c-3.062,0.802-6.181-0.393-9.188,1.209c-1.647,0.877-2.664-1.491-3.979-2.896c-0.293,0.217-0.582,0.433-0.874,0.65
	c0.299,0.696,0.063,1.431-0.69,1.948c-0.497,0.342-1.168,0.535-1.795,0.667c-0.709,0.15-1.431-0.255-1.562-0.796
	c-0.11-0.456-0.198-0.918-0.256-1.382c-0.063-0.09-0.127-0.184-0.184-0.267c-1.987,0.713-3.942,2.467-5.688,1.755
	c-1.818-0.742-3.515-0.113-5.261-0.273c-2.488-0.229-4.954-0.32-7.194,2.567c-0.604-0.951-1.061-2.281-1.551-2.341
	c-2.086-0.255-4.172-2.412-6.283-0.104c-0.498,0.543-1.201,1.07-1.665,0.709c-1.458-1.134-2.813-0.092-4.225,0.222
	c-1.621,0.36-3.25,1.866-4.909,0.073c-0.382-0.412-1.012-0.449-1.389-0.043c-2.426,2.612-5.063,1.928-7.603,2.293
	c-2.572,0.369-5.157,1.014-7.744-1.275c-1.181-1.043-2.906-0.616-4.141,0.473c-1.711,1.508-3.472,1.645-5.199,2.478
	c-1.51,0.729-2.777,0.251-3.907-2.339c-0.881-2.02-2.026-2.701-3.257-1.225c-1.004,1.204-2.099,1.338-3.127,0.602
	c-2.059-1.478-4.283,0.624-6.311-1.603c-0.328-0.36-0.898,0.417-1.363,0.55c-0.824,0.236-1.675,0.733-2.479,0.51
	C88.294,3.922,83.696,7.84,79.08,5.391c-0.212-0.113-0.464,0.193-0.699,0.233c-1.412,0.236-2.841,0.857-4.233,0.587
	c-2.494-0.482-4.971-0.475-7.47-0.394c-1.603,0.052-3.342,0.945-4.849-1.396c-0.561-0.87-1.107-0.302-1.653,0.378
	c-0.403,0.502-0.887,1.071-1.319,1.017c-3.305-0.41-6.623-0.665-9.902-1.571c-0.65-0.18-1.297-0.345-1.941-0.474
	c-0.322-0.064-0.645-0.12-0.966-0.163l-0.482-0.056l-0.241-0.021l-0.4-0.016c-2.345-0.067-4.713,0.101-6.927,0.678
	c-1.326,0.368-2.935,0.057-4.452-0.127c-0.926-0.111-1.917-0.346-2.849-0.442c-0.937-0.106-1.888-0.206-2.827-0.248
	c-1.771,0.04-3.546,0.261-4.78,1.298c-0.398,0.297-1.086,0.384-1.728,0.333c-2.932-0.295-5.388,0.673-7.453,2.051
	c-2.076,1.39-3.759,3.189-5.508,4.831c-1.494,1.386-2.689,3.015-3.602,4.731c-0.901,1.728-1.545,3.528-2.054,5.303
	c-0.256,0.886-0.415,1.852-0.667,2.754c-0.26,0.9-0.358,1.918-0.614,2.853c-0.389,1.938-0.76,3.919-1.422,5.926
	c-0.062,0.182-0.063,0.434,0.067,0.613c1.188,1.632,1.284,3.044,1.119,4.495c-0.083,0.723-0.231,1.448-0.341,2.18
	c-0.027,0.22-0.052,0.277-0.073,0.379c-0.021,0.096-0.037,0.191-0.049,0.287c-0.022,0.191-0.022,0.381,0.013,0.571
	c0.332,1.763-0.339,3.512,0.431,5.307c0.836,1.948,1.021,3.915,2.879,5.812c0.546,0.558,0.166,1.242,0.06,1.865
	c-0.409,2.385-1.525,4.734-1.726,7.149c-0.275,3.329-0.52,6.651-0.22,9.979c0.188,2.086,0.444,4.173,0.851,6.255
	c0.096,0.489,0.926,0.959,1.443,1.462C2.98,80.56,1.472,81.306,0.37,81.849c0.27,1.09,0.409,1.91,0.687,2.725
	c0.671,1.961,1.327,3.923,2.142,5.877c0.326,0.784,0.583,1.558,0.479,2.321c-0.051,0.381-0.192,0.759-0.459,1.135
	c-0.066,0.062-0.142,0.254-0.225,0.425S2.82,94.674,2.72,94.846c-0.201,0.345-0.438,0.693-0.715,1.049
	c-0.48,0.612-0.854,1.843-0.382,2.11c1.87,1.043,1.95,2.371,1.858,3.814c-0.122,1.433-0.284,2.949,0.954,3.828
	c0.294,0.235,0.045,1.144-0.439,1.62c-0.843,0.833-1.069,1.516-0.979,2.095c0.134,0.552,0.569,1.011,0.998,1.487
	c1.388,1.571,2.813,2.98,4.412,4.323c0.241,0.208,0.345,0.524,0.575,0.817c-0.654,0.978-1.313,2.04-1.602,2.555
	c1.175,1.786,2.756,2.739,3.378,4.213c1.547,3.509,4.743,6.123,8.388,7.672c1.851,0.764,3.713,1.338,5.749,1.643
	c1.041,0.137,2.003,0.352,3.101,0.403c1.093,0.051,2.133,0.181,3.245,0.171c3.234,0.033,6.507-0.156,9.716-0.158l4.578-0.018
	l2.57,0.021c1.845,0.021,3.707,0.984,5.53-0.639c0.378-0.337,0.923-0.135,1.34,0.16c1.971,1.396,3.735,1.875,5.837,0.931
	c0.971-0.436,1.851-0.6,2.775,0.3c1.971,1.918,3.908,1.737,5.84-0.465c0.62-0.706,1.437-0.614,2.035-1.37
	c2.516-3.177,5.028-0.748,7.543-0.227c1.203,2.22,2.49,1.104,3.73,0.319c0.664-0.42,1.197-1.474,2-0.66
	c2.95,2.993,6.349-0.481,9.311,2.98c0.436,0.509,1.158-0.189,1.75-0.287c0.739-0.122,1.478-0.201,2.216-0.299
	c1.837,0.472,3.691,1.223,5.481,0.766c2.519-0.644,4.982-0.481,7.479-0.22c2.368,0.246,4.743,0.47,7.111,0.344
	c4.759-0.254,9.514-0.81,14.272-1.131c2.85-0.193,5.703-0.183,8.556-0.256c0.951-0.024,1.903-0.056,2.854-0.023
	c5.889,0.2,11.778,0.337,17.665,0.684c0.396,0.12,0.789,0.295,1.187,0.359c0.692,0.112,1.385,0.113,2.075,0.077
	c0.834,0.176,1.671,0.157,2.519-0.32l2.179-0.43c0.33,0.142,0.662,0.309,0.974,0.42c2.376,0.852,4.784,1.111,7.092-0.24
	c1.188-0.695,2.242-1.158,3.462-0.697c1.042,0.395,2.136,0.103,3.205,0.185c1.656,0.128,3.313,0.306,4.968,0.485
	c0.833,0.091,1.664,0.341,2.496,0.334c2.105-0.018,4.209-0.252,6.313-0.443c0.033,0.047,0.068,0.1,0.101,0.147
	c0.117-0.037,0.226-0.114,0.336-0.187c2.263-0.197,4.527-0.322,6.794-0.048c2.018,0.244,4.036,0.64,6.053,0.634l2.521-0.05
	c0.4,0.247,0.805,0.193,1.23-0.025c4.331-0.086,8.66-0.162,12.99-0.152c0.902,0.296,1.753,0.288,2.55-0.009l1.043-0.004
	c4.072,0.123,8.142-0.229,12.212-0.494c0.382,0.072,0.765,0.124,1.148,0.229c0.572,0.157,1.255,0.681,1.707,0.21
	c0.295-0.308,0.588-0.49,0.882-0.592l1.242-0.045c0.463,0.071,0.926,0.183,1.392,0.194c1.585,0.036,3.171,0.002,4.757,0.018
	c0.671,0.06,1.341,0.036,2.012,0.13c0.26,0.037,0.53,0.046,0.796,0.008c0.318,0.022,0.637,0.055,0.955,0.058
	c1.169,0.011,2.334,0.175,3.502,0.277c0.583,0.051,1.168,0.086,1.753,0.079c0.293-0.003,0.586-0.018,0.88-0.045l0.44-0.053
	c0.165-0.021,0.229-0.046,0.572-0.076c2.868-0.304,5.877,0.344,8.93,0.573c2.188,0.182,4.512,0.663,6.715,0.684
	c1.067-0.038,2.151-0.117,3.097-0.423c0.911-0.344,1.747-0.843,2.431-1.559c0.792-0.931,2.537-0.918,3.857-1.439
	c5.454-2.044,10.423-5.634,13.93-9.999c0.947-1.195,1.899-2.396,2.842-3.585c0.359-0.419,0.663-0.858,0.947-1.308
	c0.297-0.447,0.563-0.906,0.773-1.38c0.221-0.472,0.44-0.949,0.609-1.439c0.162-0.5,0.274-1.037,0.391-1.56
	c0.109-0.528,0.209-1.057,0.283-1.596c0.027-0.57,0.039-1.142,0.036-1.716c-0.019-0.579,0.013-1.131-0.088-1.732
	c-0.091-0.598-0.195-1.193-0.313-1.786c-0.186-1.045-0.559-2.063-0.647-3.014c-0.053-0.528-0.015-1.038,0.142-1.545
	c-0.094-0.313,0.074-0.696,0.375-0.932c0.008-0.024,0.007-0.053,0.018-0.075c0.048-0.09,0.162-0.19,0.275-0.249
	c0.696-0.912,0.416-2.304,0.466-3.486c0.024-0.589-0.052-1.264-0.101-1.793c-0.048-0.313-0.069-0.625,0.065-0.928
	c0.981-2.216,1.414-4.405,0.12-6.575c-0.051,0.004-0.095,0.016-0.148,0.016c-0.917-0.037-1.405-0.499-1.492-1.588
	c-0.009-0.113,0.022-0.23,0.067-0.349c-0.301-0.5,0.225-1.12,0.417-1.67c0.76-2.177,2.111-4.349,2.239-6.53
	c0.17-2.92-0.532-5.847-0.971-8.769c-0.469-3.131-1.929-6.243-1.391-9.394c0.053-0.313,0.201-0.652-0.049-0.939
	c-1.854-2.138-1.568-4.266-0.784-6.47c0.656-1.845-0.563-3.77,0.024-5.622c0.509-1.601,0.315-3.126-0.531-4.675l-2.859-0.009
	l-0.05-0.135c-0.345-1.203-0.446-2.386,0.477-3.672c2.137-2.977,1.098-4-3.317-6.178c-2.326,0.588-4.829,1.115-6.935,1.795
	c-1.256,0.405-1.829,1.067-2.817,1.588c-1.092,0.575-2.385,0.872-4.039,0.635v-4.018c0-0.012-0.002-0.023-0.002-0.034
	c3.568,0.001,7.136,0.012,10.704,0.034c0.857-0.733,2.558-1.748,2.334-2.507c-0.057-0.192-0.091-0.374-0.138-0.562
	c-0.668-0.324-1.329-0.658-1.971-1.02c-1.199-0.677-0.984-3.022,0.273-3.61c0.18-0.084,0.412-0.156,0.604-0.133
	c0.309,0.038,0.596,0.107,0.875,0.188c0.195-1.244,0.569-2.493,1.104-3.778c-0.02-0.041-0.041-0.081-0.05-0.132
	c0.031,0.005,0.066,0.007,0.1,0.009c0.036-0.084,0.064-0.167,0.103-0.252c-4.249-4.877-9.62-7.692-15.108-8.757
	c-2.17-0.388-3.717-1.354-5.772-2.171c-0.229-0.091-0.459-0.189-0.688-0.284c-0.103,0.016-0.223,0.013-0.286-0.02
	c-0.097-0.049-0.186-0.123-0.263-0.206c-0.639-0.267-1.282-0.535-1.943-0.786l-0.825-0.319l-0.42-0.156
	c-0.087-0.051-0.124-0.099-0.188-0.148l-0.699-0.575c-0.938-0.735-1.9-1.299-2.968-1.122c-2.003,0.33-4.043-0.363-6.041,0.016
	c-2.002,0.379-3.932,1.369-5.949-0.293c-0.649-0.536-1.586,0.682-2.4,0.984c-0.575,0.213-1.346,0.808-1.72,0.247
	c-0.72-1.08-1.481-1.495-2.259-1.644c0.352,0.158,0.696,0.331,1.023,0.522c0.396,0.231,0.482,0.652,0.219,1.034
	c-0.22,0.319-0.563,0.571-0.852,0.854c-0.965,0.159-2.204-0.719-2.297-1.628c-0.027-0.274,0.206-0.617,0.499-0.844
	c-1.097,0.053-2.195,0.182-3.227-0.66c-3.542,1.071-7.096,0.357-10.645,0.329c-2.124-0.017-4.248,0.014-6.372-0.043
	c-4.027-0.105-8.072,0.224-12.075-0.514c-5.226-0.963-10.43-1.377-15.658-0.58C205.229,2.007,204.513,2.059,204.08,1.421z
	 M253.515,128.683c-0.018,0.149-0.235,0.415-0.316,0.402c-0.482-0.074-0.713-0.375-0.62-0.8c0.035-0.159,0.216-0.293,0.33-0.439
	C253.328,127.987,253.564,128.27,253.515,128.683z M238.208,120.344c-0.463-0.374-0.708-0.959-0.909-1.245
	c-0.236-1.01,0.325-1.885,1.155-2.119c0.889-0.251,1.729-0.184,2.553,0.245c1.104,0.575,1.501,1.519,0.986,2.485
	C241.19,121.219,239.648,121.509,238.208,120.344z M289.481,117.948c0.418,0.111,0.621,0.399,0.549,0.773
	c-0.027,0.14-0.202,0.257-0.31,0.385c-0.405-0.131-0.621-0.395-0.554-0.778C289.193,118.184,289.421,117.932,289.481,117.948z
	 M280.464,121.108c0.884,0.442,1.128,1.218,1.024,1.993c-0.071,0.539-0.474,1.06-0.802,1.551c-0.251,0.376-0.726,0.483-1.181,0.274
	c-0.779-0.358-1.533-0.76-2.273-1.176c-0.169-0.096-0.241-0.323-0.357-0.489c0.003-0.188-0.071-0.417,0.023-0.558
	c0.328-0.489,0.617-1.058,1.102-1.395C278.709,120.814,279.596,120.674,280.464,121.108z M281.073,120.644
	c-0.53,0.286-1.323,0.177-1.521-0.428c-0.126-0.389-0.136-0.745,0.254-1.009c0.477-0.324,1.253-0.082,1.527,0.43
	C281.53,120.027,281.484,120.422,281.073,120.644z M298.047,116.549c0.352,0.074,0.657,0.312,0.979,0.474
	c0.443,0.774,0.098,1.441-0.386,2.066c-0.318,0.411-0.686,0.411-1.033,0.087c-0.642-0.597-0.693-1.29-0.485-2.042
	C297.241,116.698,297.551,116.444,298.047,116.549z M249.243,117.149c-1.274,0.192-2.794-0.783-2.83-1.815
	c-0.034-0.979,0.619-1.915,1.597-2.285c1.018-0.386,2.764,0.448,3.103,1.482C251.46,115.594,250.483,116.962,249.243,117.149z
	 M298.242,115.617c0.186,0.031,0.341,0.202,0.51,0.31c-0.126,0.403-0.448,0.618-0.951,0.557c-0.183-0.022-0.498-0.208-0.485-0.286
	C297.387,115.75,297.737,115.534,298.242,115.617z M287.167,115.052c0.022,0.153-0.189,0.332-0.293,0.5
	c-0.21,0.001-0.441,0.055-0.625-0.006c-0.837-0.274-1.254-0.823-0.904-1.156c0.127-0.121,0.333-0.225,0.517-0.245
	C286.6,114.061,287.069,114.378,287.167,115.052z M257.755,111.851c1.199,0.238,1.777,1.23,1.321,2.219
	c-0.062,0.132-0.287,0.206-0.438,0.308c-1.077,0.064-2.032-0.867-1.905-1.946C256.785,111.992,257.241,111.749,257.755,111.851z
	 M242.028,99.726c-0.887-0.924-1.204-1.976-0.872-3.159c0.121-0.431,0.475-0.672,0.979-0.592c0.386,0.061,0.892,0.158,1.087,0.401
	c0.366,0.454,0.546,1.023,0.749,1.436c0.018,0.509,0.141,0.922,0.012,1.26c-0.12,0.315-0.476,0.588-0.79,0.809
	C242.792,100.16,242.367,100.079,242.028,99.726z M277.746,98.655c-0.053-0.187-0.173-0.381-0.135-0.547
	c0.037-0.159,0.265-0.424,0.365-0.409c0.495,0.071,0.741,0.389,0.652,0.831c-0.032,0.163-0.225,0.402-0.371,0.418
	C278.102,98.966,277.914,98.76,277.746,98.655z M248.691,104.824c0.459,0.356,0.923,0.729,1.276,1.165
	c0.377,0.463-0.139,1.199-0.79,1.215c-0.854,0.022-1.358-0.436-1.458-1.47c-0.03-0.313,0.192-0.662,0.374-0.958
	C248.134,104.71,248.563,104.724,248.691,104.824z M254.331,103.945c-0.359-0.464-0.106-1.112,0.478-1.331
	c0.43-0.16,0.835-0.125,1.11,0.237c0.351,0.462,0.098,1.103-0.468,1.34C255.012,104.36,254.604,104.299,254.331,103.945z
	 M266.485,103.854c-0.126,0.15-0.359,0.232-0.542,0.346c-0.215,0-0.466,0.065-0.638-0.01c-0.794-0.348-1.586-0.707-2.34-1.118
	c-0.611-0.333-0.716-0.909-0.375-1.524c0.715-1.289,1.898-1.543,3.301-0.708C267.206,101.621,267.432,102.724,266.485,103.854z
	 M291.843,96.463c1.538,1.127,1.762,3.226,0.479,4.66c-0.38,0.424-0.811,0.343-1.074-0.149c-0.281-0.524-0.528-1.061-0.871-1.755
	c-0.015-0.622-0.063-1.39-0.039-2.157c0.015-0.476,0.376-0.709,0.918-0.685C291.455,96.386,291.711,96.366,291.843,96.463z
	 M268.598,95.57c-0.13,0.402-0.324,1.141-0.611,1.851c-0.223,0.553-1.486,1.009-2.266,0.808c-0.642-0.165-1.114-0.573-1.326-1.152
	c-0.272-0.743,0.079-1.684,0.844-1.955c0.792-0.281,1.643-0.473,2.488-0.579C268.214,94.482,268.509,94.825,268.598,95.57z
	 M295.835,90.29c0.498,0.089,0.978,0.709,0.886,1.267c-0.071,0.428-0.431,0.62-0.899,0.6c-0.718,0.027-1.182-0.334-1.205-0.918
	C294.598,90.781,295.353,90.203,295.835,90.29z M289.033,87.855c0.194,0.055,0.351,0.214,0.525,0.325
	c0.071,0.184,0.232,0.382,0.199,0.549c-0.302,1.54-0.22,3.061,0.136,4.588c0.121,0.52-0.541,0.86-1.405,0.761
	c-0.365-0.042-0.728-0.109-1.09-0.173c-0.214,0.162-0.448,0.286-0.696,0.35c-0.22,0.033-0.448,0.119-0.657,0.091
	c-2.176-0.284-3.731-2.657-2.934-4.563c0.119-0.285,0.688-0.617,1.026-0.6c0.885,0.046,1.771,0.229,2.631,0.438
	c0.303,0.074,0.566,0.232,0.805,0.425c0.065-0.453,0.08-0.917-0.001-1.401C287.495,88.185,288.472,87.696,289.033,87.855z
	 M281.548,88.861c0.113,0.167,0.163,0.367,0.242,0.553c0.319,0.975-0.409,2.051-1.524,2.229c-1.201,0.193-2.223-0.129-2.985-0.952
	c-0.435-0.469-0.628-1.036-0.279-1.642c0.402-0.702,0.735-1.495,1.811-1.557C280.042,87.422,280.931,87.954,281.548,88.861z
	 M271.29,87.504c0.642,0.484,0.891,1.381,0.599,2.103c-0.252,0.621-0.867,0.831-1.483,1.046c-0.916,0.148-1.784,0.01-2.486-0.522
	c-0.292-0.221-0.563-0.63-0.563-0.952c0.003-0.854,0.643-1.413,1.442-1.81C269.596,86.975,270.696,87.055,271.29,87.504z
	 M154.903,26.825l0.26,0.251l-0.395,0.089L154.903,26.825z M194.529,27.371c-0.17-0.397-0.063-0.746,0.376-0.964
	c0.156-0.078,0.533-0.085,0.584-0.009c0.263,0.394,0.132,0.753-0.337,0.953C194.981,27.424,194.739,27.368,194.529,27.371z
	 M194.71,30.845c-0.572-0.688-0.487-1.377,0.063-2.057c0.308-0.377,0.63-0.526,0.971-0.347c0.169,0.09,0.313,0.253,0.405,0.411
	c0.31,0.531,0.281,1.09,0.074,1.64c-0.141,0.372-0.484,0.564-0.978,0.594C195.064,31.008,194.816,30.972,194.71,30.845z
	 M202.295,28.129l0.376,0.128l-0.265,0.21L202.295,28.129z M232.081,30.752c-0.262-0.541-0.467-1.104-0.814-1.955
	c0.012-0.479-0.017-1.25,0.07-2.012c0.047-0.406,0.475-0.62,0.994-0.607c0.194,0.004,0.451,0.056,0.568,0.172
	c1.281,1.28,1.554,2.901,0.66,4.3c-0.161,0.253-0.643,0.381-1.007,0.479C232.444,31.158,232.16,30.917,232.081,30.752z
	 M249.881,27.431c0.495,0.089,0.733,0.408,0.644,0.837c-0.033,0.159-0.229,0.291-0.351,0.436c-0.464-0.13-0.722-0.417-0.658-0.848
	C249.539,27.694,249.79,27.414,249.881,27.431z M183.764,33.852c-0.124-0.075-0.168-0.385-0.105-0.544
	c0.214-0.537,0.894-0.822,1.543-0.625c0.201,0.06,0.422,0.179,0.538,0.329c0.315,0.41-0.223,1.281-0.854,1.279
	C184.507,34.29,184.101,34.055,183.764,33.852z M167.289,39.212c-0.359-0.563-0.352-0.95,0.033-1.179
	c0.324-0.192,0.769-0.372,1.13-0.333c0.395,0.041,0.833,0.275,1.105,0.542c0.265,0.256,0.343,0.662,0.503,1.001
	c-0.397,0.139-0.809,0.415-1.189,0.386C168.277,39.583,167.704,39.33,167.289,39.212z M228.794,37.784
	c-0.026-0.13,0.139-0.292,0.216-0.44c0.844-0.379,1.669-0.509,2.473,0.094c0.371,0.279,0.539,0.615,0.355,1.029
	c-0.075,0.17-0.271,0.347-0.461,0.422C230.303,39.307,228.986,38.744,228.794,37.784z M200.078,40.598
	c-0.35-0.445-0.067-1.124,0.498-1.333c0.442-0.151,0.837-0.076,1.113,0.267c0.376,0.468,0.122,1.105-0.493,1.312
	C200.765,40.988,200.358,40.955,200.078,40.598z M251.691,41.049c1.476-0.719,2.574-0.083,3.582,0.801
	c0.138,0.121,0.196,0.364,0.182,0.543c-0.009,0.097-0.274,0.273-0.384,0.252c-1.083-0.207-2.162-0.433-3.229-0.694
	c-0.152-0.037-0.302-0.278-0.335-0.442C251.479,41.37,251.623,41.205,251.691,41.049z M230.373,42.223
	c-0.115-0.115-0.063-0.36-0.087-0.546c0.216,0.021,0.431,0.044,0.646,0.066c0.114,0.153,0.354,0.334,0.319,0.455
	C231.135,42.599,230.77,42.617,230.373,42.223z M240.12,43.645c0.321,0.329,0.312,0.644,0.034,0.992
	c-0.282,0.354-0.653,0.53-1.144,0.392c-0.646-0.181-0.922-0.909-0.558-1.366C238.887,43.12,239.599,43.113,240.12,43.645z
	 M197.294,45.971c-0.28-0.247-0.386-0.687-0.471-1.059c-0.165-0.733,0.126-1.142,0.868-1.35c0.7-0.196,1.232,0.075,1.468,0.812
	c0.117,0.367,0.258,0.8,0.139,1.134c-0.111,0.312-0.553,0.531-0.851,0.793C198.053,46.2,197.549,46.195,197.294,45.971z
	 M206.356,52.558c-0.103-0.174-0.257-0.34-0.299-0.525c-0.421-1.863,1.118-3.061,3.163-2.474c0.99,0.284,1.684,1.533,1.242,2.402
	c-0.154,0.304-0.569,0.645-0.921,0.702c-0.856,0.138-1.745,0.137-2.622,0.151C206.733,52.816,206.544,52.647,206.356,52.558z
	 M273.195,50.318c0.012-0.137,0.213-0.386,0.284-0.375c0.426,0.068,0.665,0.34,0.629,0.727c-0.013,0.143-0.202,0.272-0.312,0.408
	C273.396,50.957,273.163,50.701,273.195,50.318z M249.802,51.43c-0.121,0.398-0.433,0.621-0.923,0.573
	c-0.168-0.016-0.455-0.216-0.446-0.314c0.043-0.449,0.384-0.667,0.886-0.581C249.497,51.14,249.642,51.318,249.802,51.43z
	 M255.688,51.316c0.801,0.358,1.299,0.918,1.091,1.258c-0.085,0.139-0.263,0.321-0.41,0.33c-0.621,0.04-1.25,0.049-1.871,0.006
	c-0.165-0.011-0.335-0.227-0.462-0.376c-0.279-0.333-0.281-0.673-0.043-0.998C254.32,51.043,254.909,50.967,255.688,51.316z
	 M240.622,52.83c0.248-0.349,0.66-0.58,1.077-0.402c0.335,0.143,0.763,0.537,0.752,0.808c-0.028,0.749-0.269,1.49-0.417,2.234
	c-0.093,0.463-0.4,0.625-0.914,0.424c-0.189-0.073-0.4-0.218-0.479-0.377C240.051,54.321,240.059,53.783,240.622,52.83z
	 M263.286,55.022c-0.303-0.155-0.478-0.526-0.649-0.828c-0.025-0.045,0.255-0.3,0.431-0.343c0.761-0.188,1.229,0.048,1.46,0.742
	c0.05,0.148-0.079,0.34-0.126,0.515C264.023,55.089,263.578,55.171,263.286,55.022z M261.911,54.121
	c-0.039,0.159-0.209,0.389-0.35,0.405c-0.147,0.018-0.328-0.18-0.495-0.283c-0.245-0.382-0.181-0.721,0.247-0.925
	c0.081-0.039,0.37,0.151,0.475,0.289C261.893,53.746,261.95,53.961,261.911,54.121z M215.69,56.342
	c-0.081-0.142-0.027-0.343-0.036-0.518c0.431-0.125,0.807-0.031,1.041,0.326c0.087,0.131,0.099,0.453,0.024,0.487
	C216.294,56.835,215.908,56.721,215.69,56.342z M241.618,64.972c-0.038-0.046-0.073-0.096-0.109-0.146
	c-0.392,0.025-0.641-0.087-0.729-0.354c0.155,0.017,0.351-0.01,0.457,0.062c0.11,0.075,0.191,0.183,0.271,0.292
	c0.069-0.005,0.135-0.005,0.215-0.019c0.024,0.049,0.047,0.099,0.07,0.148c0.586-0.05,1.173-0.13,1.753-0.102
	c0.505,0.024,0.708,0.379,0.737,0.823c0.028,0.42-0.137,0.673-0.575,0.845c-0.46,0.18-0.922,0.187-1.186-0.183
	c-0.305-0.428-0.502-0.914-0.729-1.383C241.735,64.96,241.677,64.967,241.618,64.972z M269.572,65.298
	c0.888,0.654,0.478,1.882-0.688,2.229c-1.09,0.323-2.24-0.183-2.547-1.121c-0.015-0.189-0.036-0.377-0.043-0.566
	c-0.033-0.907,0.694-1.541,1.604-1.319C268.495,64.667,269.097,64.948,269.572,65.298z M272.489,64.525
	c0.021-0.023,0.379,0.098,0.454,0.215c0.094,0.146,0.107,0.368,0.058,0.536c-0.028,0.093-0.253,0.142-0.389,0.209
	C272.255,65.19,272.198,64.86,272.489,64.525z M230.156,67.48c-0.196-0.408-0.169-0.843,0.276-1.019
	c0.342-0.135,0.917-0.133,1.207,0.041c0.28,0.169,0.455,0.64,0.447,0.974c-0.011,0.462-0.437,0.664-0.973,0.611
	C230.641,68.063,230.336,67.854,230.156,67.48z M276.276,69.525c-0.364-0.293-0.449-0.63-0.271-1.058
	c0.411-0.978,1.371-1.484,2.249-2.065c1.073-0.71,1.122-0.707,2.024,0.301c0.272,0.305,0.59,0.578,0.858,0.885
	c0.419,0.479,0.36,1.122-0.189,1.549c-0.486,0.377-1.035,0.691-1.356,0.902C278.203,70.385,277.171,70.248,276.276,69.525z
	 M265.963,71.643c-0.168-0.028-0.455-0.229-0.437-0.28c0.135-0.365,0.466-0.546,0.893-0.486c0.154,0.022,0.282,0.186,0.423,0.285
	C266.707,71.531,266.409,71.718,265.963,71.643z M228.96,73.807c-0.491-0.396-0.417-1.096,0.108-1.134
	c0.162-0.012,0.411,0.119,0.5,0.248c0.239,0.349,0.158,0.674-0.154,0.93C229.26,73.839,229.051,73.88,228.96,73.807z
	 M262.985,75.147c0.173-0.507,0.548-1.021,0.99-1.381c0.472-0.384,1.603,0.02,2.212,0.67c0.364,0.391,0.365,1.259-0.099,1.531
	c-0.509,0.296-1.08,0.51-1.396,0.654C263.42,76.589,262.717,75.933,262.985,75.147z M248.296,77.214
	c0.163-0.374,0.535-0.594,1.036-0.578c0.476,0.014,0.776,0.278,0.919,0.726c0.247,0.564,0.053,1.09-0.373,1.582
	c-0.319,0.369-0.674,0.512-1.046,0.341c-0.181-0.083-0.339-0.243-0.448-0.4C248.011,78.348,248.05,77.775,248.296,77.214z
	 M225.414,79.617c-0.099-0.036-0.089-0.307-0.13-0.47c0.199-0.37,0.527-0.548,0.958-0.446c0.076,0.018,0.126,0.327,0.087,0.481
	C226.22,79.611,225.877,79.782,225.414,79.617z M278.078,79.439c-0.102-0.417-0.07-0.75,0.261-1.068
	c0.439-0.424,1.165-0.577,1.734-0.391c1.09,0.355,1.782,1.024,2.126,2.012c0.008,0.167,0.015,0.357,0.026,0.545
	c0.054,0.837-0.79,1.479-1.649,1.255C279.219,81.44,278.379,80.678,278.078,79.439z M232.339,82.874
	c-0.795-0.37-1.098-0.9-0.808-1.425c0.188-0.338,0.467-0.673,0.801-0.901c0.401-0.274,1.299-0.044,1.795,0.391
	c0.506,0.445,0.739,1.02,0.45,1.586c-0.153,0.301-0.649,0.466-0.991,0.693C233.168,83.106,232.718,83.05,232.339,82.874z
	 M248.197,83.644c-0.112-0.13-0.091-0.394-0.041-0.577c0.047-0.172,0.214-0.318,0.328-0.476c0.187-0.08,0.369-0.216,0.563-0.231
	c0.983-0.072,1.691,0.311,2.097,1.097c0.217,0.42,0.013,0.738-0.563,0.841C249.661,84.462,248.804,84.347,248.197,83.644z
	 M286.479,84.967c-0.022,0.149-0.216,0.413-0.281,0.402c-0.464-0.081-0.677-0.371-0.58-0.778c0.036-0.155,0.199-0.287,0.305-0.428
	C286.325,84.292,286.539,84.564,286.479,84.967z M273.573,83.748c0.025,0.036,0.048,0.075,0.072,0.114
	c0.441-0.037,0.698,0.094,0.75,0.413c-0.161-0.016-0.369,0.016-0.473-0.062c-0.12-0.088-0.197-0.222-0.277-0.351
	c-0.053,0.004-0.096,0.001-0.153,0.01c-0.004-0.031-0.01-0.062-0.014-0.093c-1.021,0.333-2.033,0.706-3.161,0.362
	c-0.479-0.146-0.748-0.438-0.778-0.892c-0.078-1.177,0.398-1.882,1.563-2.312c0.476-0.174,0.892-0.09,1.257,0.217
	c0.856,0.721,0.998,1.669,1.119,2.625C273.51,83.769,273.541,83.759,273.573,83.748z M297.157,82.021
	c-0.416-0.014-0.907,0.09-1.229-0.069c-0.548-0.271-1.077-0.648-1.456-1.088c-0.771-0.896-0.655-2.036,0.128-2.521
	c0.525-0.325,1.695-0.137,2.395,0.396c0.877,0.668,1.289,1.529,1.005,2.53C297.916,81.562,297.449,81.772,297.157,82.021z
	 M304.41,80.028c-0.31,0.632-0.969,0.773-1.712,0.964c-1.146,0.185-2.094-0.272-2.889-1.058c-0.381-0.376-0.254-1.358,0.185-1.605
	c0.773-0.435,1.584-0.702,2.522-0.745C303.919,77.52,304.984,78.86,304.41,80.028z M296.43,77.376
	c-0.022,0.152-0.212,0.422-0.256,0.412c-0.436-0.102-0.646-0.385-0.579-0.777c0.026-0.155,0.168-0.295,0.254-0.436
	C296.281,76.715,296.488,76.981,296.43,77.376z M305.008,68.222c1.609,1.387,3.179,2.803,3.603,4.553
	c0.125,0.692,0.302,1.097,0.243,1.473c-0.089,0.566-0.226,1.175-0.556,1.65c-0.346,0.497-1.945,0.689-2.517,0.479
	c-1.896-0.698-3.536-1.732-5.036-2.947c-1.265-1.024-1.19-3.133,0.141-4.241c0.491-0.408,1.016-0.79,1.561-1.141
	C302.998,67.694,304.51,67.792,305.008,68.222z M307.35,66.25c0.374,0.485,0.119,1.126-0.497,1.326
	c-0.444,0.144-0.85,0.1-1.13-0.266c-0.359-0.469-0.078-1.133,0.518-1.339C306.686,65.82,307.079,65.899,307.35,66.25z
	 M278.821,65.221c-0.029,0.162-0.267,0.44-0.355,0.425c-0.487-0.084-0.743-0.405-0.676-0.849c0.024-0.165,0.28-0.453,0.366-0.436
	C278.651,64.459,278.899,64.784,278.821,65.221z M216.808,62.666c-0.807,0.359-1.665,0.515-2.547,0.314
	c-1.097-0.251-1.949-0.824-2.623-1.636c-0.526-0.634-0.241-1.634,0.559-1.922c0.854-0.309,1.73-0.342,2.563-0.075
	c0.605,0.193,1.132,0.578,1.579,0.815c0.386,0.38,0.689,0.66,0.968,0.958C217.588,61.422,217.247,62.47,216.808,62.666z
	 M222.546,61.024c-1.949-0.971-3.869-1.988-5.771-3.028c-0.488-0.268-0.481-0.721-0.034-0.991c0.867-0.524,1.833-0.89,2.734-1.38
	c0.002-0.183,0.023-0.363,0.081-0.53c0.145-0.419,0.563-0.585,1.04-0.48c0.166,0.037,0.338,0.076,0.506,0.118
	c0.605-0.25,1.175-0.397,1.378-0.477c2.329-0.464,4.85,0.757,4.951,2.054c0.107,1.373-0.1,2.769-1.225,3.9
	C225.328,61.09,223.587,61.543,222.546,61.024z M233.363,57.685c0.544,0.372,0.616,1.071,0.217,1.5
	c-0.098,0.104-0.365,0.087-0.555,0.125c-0.643-0.25-0.88-0.719-0.611-1.277C232.611,57.623,233.01,57.443,233.363,57.685z
	 M302.698,56.575c1.021,0.481,1.704,1.231,2.205,2.127c0.188,0.335-0.498,1.381-0.949,1.463c-0.211,0.018-0.438,0.086-0.629,0.041
	c-1.335-0.314-2.491-0.901-3.151-2.001c-0.161-0.27-0.054-0.797,0.153-1.078C300.83,56.449,301.983,56.239,302.698,56.575z
	 M276.379,55.229c1.845,0.335,2.984,1.729,1.688,3.356c-0.116,0.145-0.344,0.221-0.52,0.329c-0.183-0.052-0.431-0.054-0.536-0.164
	c-0.682-0.71-1.36-1.426-1.982-2.177c-0.288-0.348-0.208-0.794,0.194-1.033C275.548,55.348,276.027,55.166,276.379,55.229z
	 M270.276,55.625c0.294,0.023,0.576,0.114,0.804,0.287c0.527,0.397,0.852,0.907,0.783,1.531c-0.018,0.162-0.238,0.351-0.421,0.447
	c-0.618,0.323-1.245,0.27-1.859-0.071c-0.198-0.26-0.425-0.521-0.606-0.803c-0.166,0.068-0.341,0.117-0.523,0.138
	c-0.905,0.153-1.632-0.277-2.24-0.871c-0.67-0.653-0.649-1.423-0.249-2.177c0.185-0.347,0.463-0.666,0.75-0.958
	c0.383-0.388,1.336-0.573,1.832-0.302c0.554,0.303,1.164,0.615,1.543,1.06C270.489,54.376,270.502,55.026,270.276,55.625z
	 M289.071,50.653c0.435,0.714,0.595,1.464,0.461,2.234c-0.06,0.343-0.332,0.731-0.643,0.954c-1.37,0.988-3.768,0.335-4.338-1.144
	c-0.001-0.378-0.097-0.78,0.019-1.128c0.333-1.01,1.177-1.59,2.311-1.845C287.69,49.542,288.68,50.009,289.071,50.653z
	 M259.018,48.352c0.114,0.158,0.207,0.329,0.311,0.493c-0.011,0.367,0.019,0.739-0.042,1.099c-0.072,0.425-0.41,0.622-0.86,0.734
	c-0.953,0.238-1.637-0.114-2.214-0.717c-0.474-0.497-0.196-1.288,0.651-1.932C257.548,47.509,258.507,47.651,259.018,48.352z
	 M254.484,47.296c0.004,0.476-0.222,0.731-0.736,0.865c-1.082,0.283-2.175,0.387-3.278,0.184c-0.422-0.078-0.814-0.283-1.159-0.408
	c-0.221-0.155-0.456-0.244-0.555-0.401c-0.961-1.527-2.448-2.747-3.27-4.358c-0.334-0.654,0.285-1.636,1.148-1.767
	c1.201-0.181,2.35,0.054,2.911,0.965c0.795,1.29,2.023,1.921,3.438,2.499C254.079,45.325,254.474,46.245,254.484,47.296z
	 M296.966,44.463c0.896,0.402,1.272,0.877,0.867,1.165c-0.149,0.105-0.359,0.144-0.541,0.212c-0.46,0.059-0.825-0.084-1.058-0.446
	c-0.104-0.164-0.235-0.362-0.214-0.531C296.088,44.327,296.42,44.22,296.966,44.463z M260.278,44
	c-1.62,0.067-2.71-0.768-3.068-2.352c-0.154-0.68,0.145-1.251,0.806-1.334c0.386-0.048,0.938-0.019,1.183,0.188
	c0.771,0.652,1.64,1.249,1.982,2.227C261.373,43.279,260.951,43.971,260.278,44z M301.917,43.009
	c-0.117,0.145-0.25,0.421-0.348,0.412c-0.506-0.049-0.768-0.355-0.693-0.806c0.026-0.16,0.261-0.435,0.357-0.421
	C301.712,42.263,301.933,42.57,301.917,43.009z M277.819,41.353c-1.316-0.114-2.118-1.534-1.334-2.467
	c0.2-0.238,0.701-0.315,1.083-0.383c0.154-0.028,0.384,0.145,0.54,0.264c0.7,0.537,0.924,1.199,0.67,1.997
	C278.637,41.205,278.342,41.408,277.819,41.353z M288.018,38.99c0.432,0.072,0.628,0.355,0.609,0.754
	c-0.102,0.131-0.223,0.384-0.303,0.375c-0.45-0.054-0.688-0.333-0.626-0.739C287.721,39.232,287.938,38.976,288.018,38.99z
	 M295.539,37.922c0.127,0.144,0.265,0.279,0.389,0.425c0.421,0.491,0.366,1.039,0.234,1.594c-0.107,0.453-0.42,0.653-0.938,0.599
	c-1.293-0.108-2.059-1.553-1.322-2.493C294.242,37.611,295.188,37.525,295.539,37.922z M281.922,36.95
	c0.225,0.678,0.028,1.035-0.659,1.236c-0.164,0.048-0.414,0.036-0.55-0.045c-0.316-0.188-0.387-0.543-0.11-0.881
	c0.219-0.267,0.563-0.464,0.887-0.642C281.542,36.589,281.875,36.806,281.922,36.95z M266.963,37.116
	c-0.022,0.159-0.223,0.299-0.328,0.43c-0.173-0.086-0.411-0.134-0.505-0.264c-0.267-0.366-0.225-0.878,0.179-0.956
	C266.73,36.244,267.026,36.682,266.963,37.116z M213.406,36.887c-0.1,0.5-0.549,0.948-0.771,1.303
	c-0.979,0.214-2.079-0.458-2.078-1.091c0-0.511,0.552-1.263,1.006-1.373C212.257,35.561,213.525,36.286,213.406,36.887z
	 M270.328,30.195c0.051,0.03-0.036,0.34-0.146,0.459c-0.512,0.549-0.999,0.573-1.563,0.071c-0.126-0.111-0.237-0.435-0.188-0.469
	c0.288-0.194,0.621-0.441,0.951-0.455C269.695,29.788,270.037,30.021,270.328,30.195z M262.388,28.464
	c1.1,0.411,2.038,1.065,2.147,2.108c0.125,1.182,0.262,2.351,0.489,3.52c0.046,0.234-0.444,0.586-0.752,0.815
	c-0.104,0.079-0.452,0.005-0.613-0.094c-1.059-0.655-1.629-1.719-3.088-2.121c-1.438-0.396-1.584-2.396-0.568-3.618
	C260.536,28.434,261.609,28.173,262.388,28.464z M254.93,27.039c1.123,0.189,1.994,0.759,2.794,1.441
	c0.778,0.663,0.781,1.606-0.032,2.614c-0.298,0.37-0.741,0.513-1.16,0.302c-0.556-0.28-1.155-0.576-1.548-1.001
	c-0.4-0.433-0.573-1.029-0.774-1.416c-0.063-0.543-0.155-0.93-0.14-1.313C254.09,27.166,254.419,26.952,254.93,27.039z
	 M284.01,25.89c0.175,0.028,0.321,0.188,0.48,0.288c-0.137,0.371-0.443,0.571-0.909,0.519c-0.169-0.019-0.464-0.199-0.451-0.27
	C283.207,26.012,283.539,25.811,284.01,25.89z M220.489,25.576c0.292,0.382,0.185,0.761-0.271,0.993
	c-0.166,0.084-0.553,0.102-0.621,0.016c-0.291-0.368-0.162-0.721,0.275-0.988C220.086,25.585,220.429,25.497,220.489,25.576z
	 M160.149,24.847c-0.032-0.498-0.087-1.005-0.079-1.512c0.001-0.1,0.288-0.305,0.366-0.279c0.354,0.115,0.817,0.225,0.987,0.472
	c0.297,0.429-0.004,1.02-0.568,1.323C160.723,24.923,160.491,24.854,160.149,24.847z M175.771,23.301
	c0.02,0.345-0.145,0.904-0.414,1.016c-0.574,0.238-1.267,0.287-1.919,0.336c-0.486,0.037-0.874-0.245-0.946-0.691
	c-0.06-0.372-0.156-0.901,0.148-1.251c0.272-0.314,1.098-0.367,1.711-0.409C175.034,22.255,175.737,22.748,175.771,23.301z
	 M251.257,19.539c0.384,0.543,0.017,1.184-0.712,1.222c-0.671,0.035-1.181-0.402-1.149-1.033c0.009-0.17,0.128-0.384,0.276-0.494
	C250.146,18.885,250.903,19.039,251.257,19.539z M233.573,18.818c0.633,0.172,1.257,0.371,1.881,0.568
	c0.411,0.13,0.823,0.26,1.22,0.419c0.466,0.189,0.693,0.532,0.588,0.958c-0.131,0.528-1.065,0.959-1.537,0.75
	c-0.396-0.174-0.798-0.339-1.185-0.528c-0.192-0.095-0.357-0.231-0.532-0.354c-0.348-0.243-0.694-0.487-0.485-0.341
	c-1.196-0.911-1.62-1.787-1.196-1.725C232.746,18.629,233.166,18.708,233.573,18.818z M298.883,17.038
	c0.358,0.356,0.361,0.76-0.008,1.042c-0.121,0.093-0.486,0.06-0.646-0.036c-0.357-0.217-0.655-0.508-0.978-0.771
	c0.128-0.153,0.218-0.375,0.39-0.447C298.096,16.637,298.557,16.713,298.883,17.038z M230.989,18.579
	c0.057,0.59-0.29,1.083-0.922,1.373c-0.741,0.341-2.009,0.155-2.391-0.334c-0.123-0.159-0.232-0.328-0.32-0.503
	c-0.176-0.349-0.332-0.707-0.497-1.061c-0.038-0.381-0.097-0.761-0.11-1.144c-0.016-0.432,0.88-1.087,1.37-1.023
	C229.715,16.094,230.851,17.159,230.989,18.579z M248.431,9.441c0.409-0.218,0.815-0.155,1.081,0.174
	c0.046,0.056-0.157,0.334-0.31,0.431c-0.152,0.098-0.385,0.098-0.569,0.139c-0.178-0.114-0.427-0.193-0.473-0.327
	C248.122,9.749,248.287,9.518,248.431,9.441z M217.479,10.27c0.207,0.34,0.421,0.727,0.432,1.097
	c0.009,0.339-0.174,0.912-0.408,0.972c-0.351,0.09-0.938-0.075-1.213-0.316c-0.44-0.387-0.708-0.927-1.028-1.374
	c0.201-0.275,0.281-0.495,0.452-0.599C216.257,9.718,217.213,9.832,217.479,10.27z M252.312,13.871
	c-0.113,0.105-0.331,0.125-0.5,0.184c-0.361-0.185-0.745-0.344-1.073-0.568c-0.133-0.09-0.242-0.35-0.191-0.482
	c0.036-0.095,0.089-0.179,0.153-0.25c-0.638-0.265-1.289-0.501-2.001-0.62c-0.127-0.022-0.317-0.36-0.293-0.38
	c0.306-0.26,0.611-0.562,0.988-0.705c0.383-0.144,0.893-0.253,1.266-0.149c1.476,0.408,2.841,1.024,3.874,2.083
	c0.13,0.132,0.135,0.359,0.197,0.542c-0.043,0.177-0.031,0.391-0.145,0.521c-0.094,0.106-0.37,0.199-0.505,0.154
	c-0.561-0.185-1.095-0.42-1.625-0.666C252.452,13.665,252.406,13.782,252.312,13.871z M235.552,12.772
	c-0.162-0.427,0.033-0.742,0.481-0.724c0.709,0.026,1.276,0.438,1.351,0.956c0.019,0.128-0.243,0.287-0.377,0.432
	C236.229,13.606,235.801,13.426,235.552,12.772z M207.296,13.293c-0.107-0.098-0.038-0.348-0.044-0.501
	c0.146-0.161,0.245-0.36,0.413-0.431c0.158-0.066,0.514-0.058,0.566,0.025c0.24,0.377,0.106,0.732-0.343,0.931
	C207.726,13.389,207.4,13.387,207.296,13.293z M152.022,11.522c-0.26-0.401-0.186-0.741,0.214-1.031
	c0.494-0.36,1.399-0.303,1.69,0.166c0.246,0.396,0.113,0.773-0.227,1.052C153.182,12.133,152.477,12.055,152.022,11.522z
	 M179.328,12.487c-0.528-0.607-0.047-1.597,0.861-1.768c1.381-0.259,1.875-0.208,2.702,0.409c0.138,0.332,0.424,0.841,0.553,1.381
	c0.101,0.422-0.187,0.768-0.615,0.895C181.418,13.821,180.205,13.494,179.328,12.487z M147.624,14.247
	c-0.113-0.081-0.084-0.317-0.121-0.482c0.307-0.534,0.834-0.705,1.456-0.446c0.435,0.182,0.599,0.517,0.317,0.801
	C148.833,14.568,148.127,14.604,147.624,14.247z M281.299,12.066c0.049,0.539-0.594,1.101-1.134,0.907
	c-0.321-0.116-0.52-0.497-0.771-0.757c-0.07-0.514,0.525-1.022,1.16-0.943C281.041,11.335,281.26,11.638,281.299,12.066z
	 M260.281,5.444c0.125-0.485,0.51-0.833,0.698-0.63c1.162,1.248,2.754,1.924,4.284,2.703c0.762,0.389,1.438,0.908,2.133,1.393
	c0.383,0.268,0.439,0.647,0.23,1.065c-0.268,0.538-0.545,1.071-0.803,1.613c-0.342,0.715-0.246,1.444-0.098,2.172
	c0.045-0.008,0.09-0.018,0.135-0.025c0.032,0.051,0.062,0.104,0.091,0.159c0.396,0,0.63,0.128,0.68,0.403
	c-0.156-0.029-0.357-0.015-0.456-0.097c-0.098-0.081-0.161-0.193-0.224-0.307c-0.065,0-0.125-0.004-0.199,0.003
	c-0.01-0.045-0.017-0.091-0.026-0.137c-0.82,0.158-1.636,0.355-2.466,0.432c-0.398,0.037-0.937-0.089-1.223-0.323
	c-0.647-0.525-1.217-1.138-1.741-1.764c-0.401-0.479-0.529-1.052-0.398-1.667c0.164-0.767,0.377-1.594-0.268-2.245
	C259.762,7.318,260.035,6.4,260.281,5.444z M213.019,3.466l-0.394,0.094l0.142-0.339L213.019,3.466z"/>
	<g>
		<path fill="#FFFFFF" d="M66.407,61.799l5.918-2.255c1.876-3.003,3.567-7.138,5.073-12.4c-1.881,0.564-4.888,1.599-9.019,3.1
		c-3.196-0.563-5.262-1.876-6.199-3.945l3.382,0.282l12.963-3.1l2.536-1.691c5.447,0.942,7.513,2.07,6.2,3.382l-7.045,12.4
		c2.064,0.942,2.536,1.88,1.409,2.818c-5.263,1.506-10.428,2.818-15.5,3.945c-1.317,4.888-1.128,10.146,0.563,15.782
		c6.574,3.76,17.847,3.197,33.817-1.691c0.749-5.636,1.22-11.836,1.409-18.6c0.375,0.189,2.348,6.579,5.918,19.163
		c-0.563,4.324-6.952,7.235-19.163,8.736c-9.582,0.942-16.534,0.379-20.854-1.691c-4.135-2.254-6.671-5.447-7.609-9.582
		c-0.188-7.138-0.378-12.867-0.563-17.191c1.691,0,3.849,0.753,6.482,2.254L66.407,61.799z"/>
		<path fill="#FFFFFF" d="M139.115,67.999c-5.636,4.888-9.863,8.551-12.682,10.991c-3.007-1.312-3.571-3.1-1.69-5.354
		c2.629-2.065,3.945-10.427,3.945-25.082c1.502,1.127,2.488,2.818,2.959,5.073c0.467,2.254,0.563,4.558,0.282,6.904
		c-0.282,2.352-0.612,5.777-0.986,10.287c1.875-1.127,4.602-3.285,8.172-6.482c0.375-14.465-0.188-23.109-1.69-25.927
		c5.072,1.317,8.921,2.915,11.555,4.791l-2.537,1.691c-1.127,4.698-1.787,8.362-1.973,10.991c-0.188,2.633-0.281,4.417-0.281,5.354
		l4.791-4.791c0.748,0.563,0.374,1.646-1.128,3.241c-1.506,1.599-2.726,3.056-3.663,4.368c0,10.334,0,17.288,0,20.854l-0.282,5.636
		c-2.254,2.818-4.135,3.285-5.636,1.409v-4.791C138.834,80.024,139.115,73.635,139.115,67.999z M152.643,36.717
		c5.258,1.69,8.357,3.197,9.3,4.509c-1.69,3.197-3.479,6.764-5.354,10.709c5.821-1.312,12.585-2.629,20.291-3.945
		c1.502-0.185,2.629,1.127,3.382,3.945l-16.063,2.254l6.2,2.537c-3.197,6.389-5.733,11.272-7.609,14.654
		c3.003,3.571,11.458,6.579,25.363,9.018c-4.509,2.818-9.489,4.042-14.936,3.664c-3.571-1.127-7.799-4.412-12.683-9.863
		c-6.199,6.763-11.743,9.489-16.627,8.172c4.884-2.439,9.485-6.385,13.81-11.836c-3.761-4.32-6.86-7.794-9.3-10.427
		C152.546,55.414,153.955,47.615,152.643,36.717z M151.797,60.671c2.255,1.506,4.602,3.945,7.046,7.327
		c1.69-2.439,2.629-7.138,2.818-14.091c-1.881-0.374-3.664-0.656-5.354-0.845C155.179,56.07,153.673,58.606,151.797,60.671z"/>
		<path fill="#FFFFFF" d="M204.639,69.971c2.91-2.818,5.024-5.354,6.341-7.609c0.374-2.254,0.185-5.258-0.563-9.018
		c1.876,1.127,3.1,2.536,3.663,4.227c5.258-0.749,10.52-1.501,15.782-2.254c-0.379-1.691-1.128-3.285-2.255-4.791
		c-1.316,1.691-2.726,2.255-4.228,1.691c3.382-2.629,5.447-9.485,6.2-20.572c5.072,1.691,7.983,3.664,8.736,5.918l-2.255,1.409
		c-1.506,1.506-2.536,3.289-3.1,5.354h7.891c3.567,0,5.258,0.942,5.073,2.818c-4.324,0.753-8.926,0.471-13.81-0.845
		c-1.127,1.316-2.069,2.254-2.818,2.818l3.664,0.846c-0.189,1.506-0.097,3.1,0.282,4.791l6.481-1.409
		c2.439,0.753,3.945,1.691,4.509,2.818l-10.146,0.564c1.691,6.389,4.131,11.651,7.327,15.782c0.564-3.946,0.749-7.891,0.564-11.836
		c4.13,0.189,6.292,1.316,6.481,3.382l-2.818,1.691c-0.563,3.945-1.506,7.327-2.818,10.146c3.757,6.389,7.513,10.427,11.272,12.118
		l5.073-10.145l0.563,16.627c-1.506,0.938-3.197,1.127-5.072,0.563c-3.382-1.127-7.799-5.918-13.246-14.373
		c-3.57,6.764-7.987,10.053-13.245,9.864c4.884-3.382,8.829-7.983,11.837-13.809c-2.634-4.694-5.733-11.176-9.301-19.445
		c-4.135,0.563-7.327,1.127-9.581,1.691c-2.818,0.189-5.263,0-7.327-0.563c-1.506,17.098-5.073,27.433-10.709,31
		c-3.382,1.317-5.452,0.942-6.2-1.127c6.2,0.189,10.99-7.512,14.372-23.109l-0.563,0.282l-3.663,4.227l-4.51,5.073
		c-1.316,3.007-2.633,4.417-3.945,4.227l-2.254-3.1C198.954,74.762,201.724,72.79,204.639,69.971z M209.288,63.208
		c-0.189,0.942-1.646,0.986-4.368,0.141c-2.726-0.845-4.086-1.735-4.086-2.677C205.906,60.108,208.725,60.953,209.288,63.208z
		 M217.461,36.435c1.691,1.506,2.629,4.228,2.818,8.173l1.409-0.282l1.69,0.563l-3.1,1.127c-0.189,4.698-0.846,7.045-1.973,7.045
		s-1.599-1.594-1.409-4.791l-5.918,2.536c-2.069,0-2.818-1.875-2.255-5.636l1.691,2.255l6.764-1.973L217.461,36.435z
		 M227.043,60.953l2.536-0.282c2.439,0.563,3.382,1.224,2.818,1.973l-3.664,4.791l1.973-0.846c2.065-0.563,2.911,0,2.537,1.691
		l-4.791,6.764l4.509,0.563c0.374,0.753-0.097,1.317-1.409,1.691l-1.973,1.409l-1.127,2.818l3.1,0.282
		c2.439,0.189,2.818,0.845,1.127,1.973l-12.682,1.691l-0.845,4.791c-1.317,1.691-2.537,0.845-3.664-2.537
		c-0.379-2.629-0.097-7.794,0.846-15.5c0.563-4.694,0.563-8.358,0-10.991l3.663,0.564l2.537,1.691
		c-1.507,1.88-2.352,4.042-2.537,6.481l1.973-0.563l1.691-0.563l3.382-6.2l-3.382,0.282l-3.945-1.409L227.043,60.953z
		 M219.997,71.099v13.245c2.439-0.374,4.368-1.409,5.777-3.1s1.925-3.285,1.55-4.791c-2.443,0.753-4.79,1.409-7.045,1.973
		c-0.379-0.375-0.282-0.845,0.282-1.409c2.254-0.749,4.227-1.501,5.918-2.254c1.312-1.691,2.064-3.756,2.254-6.2l-4.791,2.255
		L219.997,71.099z M244.797,50.244c2.439,3.007,5.354,5.262,8.736,6.764c-1.506,0.753-3.007,1.035-4.509,0.845
		C247.334,56.916,245.925,54.379,244.797,50.244z"/>
	</g>
</svg>
