<?xml version="1.0" encoding="utf-8"?>
<!-- Generator: Adobe Illustrator 21.0.0, SVG Export Plug-In . SVG Version: 6.00 Build 0)  -->
<svg version="1.1" id="图层_1" xmlns="http://www.w3.org/2000/svg" xmlns:xlink="http://www.w3.org/1999/xlink" x="0px" y="0px"
	 viewBox="0 0 18 18" style="enable-background:new 0 0 18 18;" xml:space="preserve">
<style type="text/css">
	.st0{fill:#FFA32B;}
	.st1{fill:#CC7F23;}
	.st2{fill:#FFFFFF;}
</style>
<g>
	<path class="st0" d="M2.6,0C1.8,0,1.1,0.6,1.1,1.4v15.2c0,0.8,0.6,1.4,1.4,1.4h12.9c0.8,0,1.4-0.6,1.4-1.4V5.7L11.6,0H2.6z M2.6,0"
		/>
	<path class="st1" d="M16.9,5.7V6h-3.6c0,0-1.8-0.4-1.7-1.9c0,0,0.1,1.6,1.7,1.6H16.9z M16.9,5.7"/>
	<path class="st2" d="M11.6,0v4.1c0,0.5,0.3,1.6,1.7,1.6h3.6L11.6,0z"/>
	<path class="st2" d="M5.8,7.1"/>
	<path class="st2" d="M11.4,11"/>
	<path class="st2" d="M6.8,12.1c-0.1,0.1-0.3,0.3-0.5,0.3c-0.2,0.1-0.4,0.1-0.6,0.1c-0.2,0-0.5,0-0.7-0.1c-0.2-0.1-0.4-0.2-0.5-0.4
		c-0.2-0.2-0.3-0.4-0.4-0.7c-0.1-0.3-0.1-0.6-0.1-0.9s0-0.6,0.1-0.9C4.2,9.3,4.3,9,4.4,8.9C4.6,8.7,4.8,8.6,5,8.5
		c0.2-0.1,0.4-0.1,0.7-0.1c0.2,0,0.4,0,0.6,0.1c0.2,0.1,0.4,0.2,0.5,0.3L6.3,9.2C6.2,9,5.9,8.9,5.7,8.9c-0.1,0-0.3,0-0.4,0.1
		C5.1,9,5,9.1,4.9,9.2C4.8,9.3,4.8,9.5,4.7,9.7c-0.1,0.2-0.1,0.4-0.1,0.7c0,0.3,0,0.5,0.1,0.7c0.1,0.2,0.1,0.4,0.2,0.5
		c0.1,0.1,0.2,0.2,0.3,0.3C5.4,12,5.5,12,5.6,12c0.1,0,0.3,0,0.4-0.1c0.1,0,0.2-0.1,0.3-0.2L6.8,12.1z M10.1,11.4
		c0,0.1,0,0.3-0.1,0.4c-0.1,0.1-0.1,0.3-0.3,0.4c-0.1,0.1-0.2,0.2-0.4,0.3c-0.2,0.1-0.4,0.1-0.6,0.1c-0.1,0-0.2,0-0.3,0
		c-0.1,0-0.2,0-0.3,0c-0.1,0-0.2-0.1-0.3-0.1c-0.1,0-0.2-0.1-0.2-0.1l0.1-0.5c0.1,0,0.1,0.1,0.2,0.1c0.1,0,0.2,0.1,0.2,0.1
		c0.1,0,0.2,0,0.3,0.1c0.1,0,0.2,0,0.2,0c0.2,0,0.4-0.1,0.5-0.2c0.1-0.1,0.2-0.3,0.2-0.5c0-0.1,0-0.2-0.1-0.3
		C9.2,11,9.1,10.9,9,10.8c-0.1-0.1-0.3-0.1-0.4-0.2c-0.1-0.1-0.3-0.2-0.4-0.3C8,10.2,7.9,10.1,7.8,10C7.8,9.8,7.7,9.7,7.7,9.5
		c0-0.2,0-0.3,0.1-0.5C7.9,8.9,8,8.7,8.1,8.6c0.1-0.1,0.2-0.2,0.4-0.2C8.6,8.4,8.8,8.3,9,8.3c0.2,0,0.3,0,0.5,0
		c0.2,0,0.3,0.1,0.4,0.2c0,0.1-0.1,0.1-0.1,0.2L9.7,8.8c0,0.1,0,0.1-0.1,0.1c0,0,0,0,0,0.1c0,0,0,0-0.1,0c0,0-0.1,0-0.1-0.1
		c-0.1,0-0.1,0-0.2,0c-0.1,0-0.2,0-0.3,0c-0.1,0-0.1,0-0.2,0.1C8.6,9,8.6,9,8.5,9.1C8.5,9.1,8.4,9.2,8.4,9.3c0,0.1,0,0.1,0,0.2
		c0,0.1,0,0.3,0.1,0.4c0.1,0.1,0.2,0.2,0.3,0.2c0.1,0.1,0.3,0.1,0.4,0.2c0.1,0.1,0.3,0.1,0.4,0.2c0.1,0.1,0.2,0.2,0.3,0.3
		C10,11,10.1,11.2,10.1,11.4L10.1,11.4z M11.9,12.5l-1.3-4.1h0.8l1,3.5l1-3.5h0.8l-1.3,4.1H11.9z M11.9,12.5"/>
</g>
</svg>
