<svg x="0px" y="0px" width="241.67px" height="279.598px" viewBox="0 0 241.67 279.598" enable-background="new 0 0 241.67 279.598" xml:space="preserve">
	<polygon opacity="0.1" fill="#FFFFFF" points="120.838,139.803 120.841,139.803 120.845,139.805 121.862,139.221 241.637,70.304 
	120.829,0 120.829,0 120.827,0.002 120.824,0 120.821,0 0,69.48 120.821,139.795 "/>
	<polygon opacity="0.2" fill="#231815" points="120.821,279.596 120.821,279.594 120.829,279.598 120.829,139.815 120.829,139.813 
	-0.011,69.49 -0.011,69.492 -0.015,69.49 -0.015,209.274 0.041,209.307 "/>
	<polygon opacity="0.1" fill="#231815" points="241.663,70.322 121.857,139.219 120.838,139.803 120.824,139.813 120.824,279.596 
	120.849,279.61 120.85,279.61 120.854,279.612 241.668,210.133 241.67,210.137 241.67,210.118 241.67,70.324 241.663,70.327 "/>
</svg>
