<svg x="0px" y="0px" viewBox="0 0 46.3 7.3" style="enable-background:new 0 0 46.3 7.3;" xml:space="preserve">
	<g>
		<path d="M9.8,7.3H0V6.7h1V3.9h6.7L7.5,4.5H6.9v2.3h0.9V3.9h1.4v2.8h0.9L9.8,7.3z M2,3.4H0.6V0.1H2V3.4z M2.3,6.7h0.9V4.5H2.3V6.7z
		 M4,3.6H2.6V0H4V3.6z M7.1,0.9h3.1L10,1.5H8.6l0.8,1.9H8L7.1,1.5H6.8L6,3.2H4.5L6,0h1.5L7.1,0.9z M4.6,4.5v2.3h0.9V4.5H4.6z"/>
		<path d="M15.2,0.7H18l-0.4-0.7h1.5l0.3,0.7h2.8v1.4h-1.2l1,1.8h-0.7l-0.2,0.4h-1.7v2.5h2.9L22,7.3h-6.8V6.8h2.9V4.3h-2V3.9h-0.6
		l1-1.8h-1.2V1.4L15,1.8h-0.8v2.1l1-0.3v0.6l-1,0.3v2.9h-2L12,6.8h0.8v-2l-0.9,0.3V4.5l0.9-0.3V1.8H12V1.2h0.8V0h1.4v1.3h0.9V0.7z
		 M18.1,1.7l-1.1,2l3.6,0l-1.1-2h1.4V1.2h-4.1v0.5H18.1z"/>
		<path d="M28.8,2.4l-2.8,5h-1.5l2.8-5h-2.7V1.8h3l1-1.8h1.5l-1,1.8l4.5,0l-0.3,0.6H28.8z M31.3,3.1l2.4,4.2h-1.5l-2.4-4.2H31.3z"/>
		<path d="M37.7,2.4v3l-0.5,2h-1.4l0.5-2v-5.4h8.1l-0.4,0.5h-6.3v1.3h6.7v-1.9h1.4v2.4H37.7z M46.3,5.8L46,6.4h-0.8v1h-1.3v-1h-3.2v1
		h-1.3v-1H38V5.8h1.4V4.5h-1V4h4.8l0.6-1.3h1.6L44.7,4h1.4l-0.2,0.5h-0.7v1.3H46.3z M38.8,2.7h1.5l0.6,1h-1.6L38.8,2.7z M43.9,4.5
		h-3.2v1.3h3.2V4.5z"/>
	</g>
</svg>
