<svg x="0px" y="0px" viewBox="0 0 46.3 7.3" style="enable-background:new 0 0 46.3 7.3;" xml:space="preserve">
	<g>
		<path d="M0.9,2H0V1.5h2.5V0h1.4v1.5h2.5L6.1,2H3.9V4H2.6V2H2.2L1.7,3.8H0.4L0.9,2z M6.2,7.3L3.4,6.7L0.5,7.4L0.4,6.6l1.3-0.3L0.4,6
		l0.4-1.1H0V4.2h1l0.1-0.4h1.4L2.4,4.2h4.2L6.2,4.9H5.9V6L5,6.2l1.2,0.3V7.3z M2.2,1.3H0.8L0.5,0.2h1.3L2.2,1.3z M4.6,5.6V4.9H2.2
		L1.9,5.5l1.5,0.4L4.6,5.6z M5.6,1.3H4.3l0.3-1.1H6L5.6,1.3z M6.2,3.8H4.7L4.3,2.3h1.3L6.2,3.8z M8.3-0.1L7.9,0.7h2.4l-0.3,0.6H9.8
		v1.8L9,4.7l1.3,2.6H8.8L8.3,6.2L7.8,7.3H6.3l1.2-2.6L6.2,2.1h1.5l0.5,1l0.2-0.4V1.2H6.2l0.7-1.3H8.3z"/>
		<path d="M13.3,6.8v-2l-0.9,0.3V4.5l0.9-0.3V1.6h-0.8V1.1h0.8v-1.1h1.4v1.1h0.8l-0.3,0.6h-0.5v2.2l0.7-0.2v0.6l-0.7,0.3v2.9h-1.9
		l-0.3-0.5H13.3z M16-0.1h6.1v2.1h-4.8v2.2h0l-0.7,3.1h-1.3L16,4.2V-0.1z M17.2,0.5v1h3.5V0.1l-0.4,0.4H17.2z M17.5,4.4h1.7V3.5
		h-1.7V2.9h1.7V2.4h1.3v0.6h1.5l-0.3,0.6h-1.2v0.9h1.5v3h-4.5V4.4z M18.8,4.9v1.9h1.9V4.5l-0.4,0.4H18.8z"/>
		<path d="M25,1.9l-1.1-1.6h1.5l1.1,1.6H25z M25.3,3.8h-1.4L25,2.2h1.5L25.3,3.8z M27.9,4.7h1.8l-3.6,2.7h-1.8L27.9,4.7z M24.3,4H34
		v2.2h-1.4V4.6h-6.9v1.7h-1.4V4z M28.4,0.4h6.1l-0.4,1.3h-1.5L32.8,1h-1.7v1L31,2.1h1.5l1.9,1.7h-1.6l-1.8-1.7l-3,1.7h-1.9l3.6-2.3
		V1h-1.4L28,2h-1.5L27.1,0h1.5L28.4,0.4z M31.8,7.4l-2.6-1.7L30.1,5l4,2.4H31.8z"/>
		<path d="M36.2,7.4L37,5.8V2.7l2.1,0l-0.6-1.4H40l0.6,1.4h2.1l0.6-1.4h1.6l-0.6,1.4h2l-0.4,0.6h-7.2v2.7l-0.7,1.4H36.2z M36.9,0.5
		h3.6v-0.5h1.8v0.5h3.7L45.7,1h-8.8V0.5z"/>
	</g>
</svg>
