<svg viewBox="0 0 1024 1024">
  <path d="M1024,728.6v196.9c0,16.4-5.8,30.4-17.2,41.8c-11.5,11.5-25.4,17.2-41.8,17.2H59.1c-16.4,0-30.4-5.7-41.8-17.2
	C5.7,955.9,0,942,0,925.5V728.6c0-16.4,5.7-30.4,17.2-41.8c11.5-11.5,25.4-17.2,41.8-17.2h286.2l83.1,83.7
	c23.8,23,51.7,34.5,83.7,34.5c32,0,59.9-11.5,83.7-34.5l83.7-83.7h285.5c16.4,0,30.4,5.7,41.8,17.2
	C1018.2,698.3,1024,712.2,1024,728.6L1024,728.6z M824,378.5c7,16.8,4.1,31.2-8.6,43.1L539.7,697.2c-7.4,7.8-16.6,11.7-27.7,11.7
	c-11.1,0-20.3-3.9-27.7-11.7L208.6,421.5c-12.7-11.9-15.6-26.3-8.6-43.1c7-16,19.1-24,36.3-24h157.5V78.8c0-10.7,3.9-19.9,11.7-27.7
	c7.8-7.8,17-11.7,27.7-11.7h157.5c10.7,0,19.9,3.9,27.7,11.7c7.8,7.8,11.7,17,11.7,27.7v275.7h157.5
	C804.9,354.5,817,362.5,824,378.5L824,378.5z M776,894.2c7.8-7.8,11.7-17,11.7-27.7c0-10.7-3.9-19.9-11.7-27.7
	c-7.8-7.8-17-11.7-27.7-11.7c-10.7,0-19.9,3.9-27.7,11.7c-7.8,7.8-11.7,17-11.7,27.7c0,10.7,3.9,19.9,11.7,27.7
	c7.8,7.8,17,11.7,27.7,11.7C759,905.8,768.2,902,776,894.2L776,894.2z M933.5,894.2c7.8-7.8,11.7-17,11.7-27.7
	c0-10.7-3.9-19.9-11.7-27.7c-7.8-7.8-17-11.7-27.7-11.7c-10.7,0-19.9,3.9-27.7,11.7c-7.8,7.8-11.7,17-11.7,27.7
	c0,10.7,3.9,19.9,11.7,27.7c7.8,7.8,17,11.7,27.7,11.7C916.5,905.8,925.7,902,933.5,894.2L933.5,894.2z"/>
</svg>
