        <svg
          width="12px"
          height="12px"
          viewBox="0 0 12 12"
        >
          <g id="信息标准" stroke="none" stroke-width="1" fill-rule="evenodd">
            <g id="信息标准v4" transform="translate(-1219.000000, -400.000000)" fill-rule="nonzero">
              <g id="执行代码" transform="translate(0.000000, 300.000000)">
                <g id="编组-41" transform="translate(592.000000, 89.000000)">
                  <g id="编组-25" transform="translate(617.000000, 0.000000)">
                    <g id="download" transform="translate(8.000000, 9.000000)">
                      <rect id="矩形" fill="#000000" opacity="0" x="0" y="0" width="16" height="16"></rect>
                      <path
                        d="M7.9015625,10.328125 C7.9515625,10.3921875 8.0484375,10.3921875 8.0984375,10.328125 L9.8484375,8.1140625 C9.9125,8.0328125 9.8546875,7.9125 9.75,7.9125 L8.5921875,7.9125 L8.5921875,2.625 C8.5921875,2.55625 8.5359375,2.5 8.4671875,2.5 L7.5296875,2.5 C7.4609375,2.5 7.4046875,2.55625 7.4046875,2.625 L7.4046875,7.9109375 L6.25,7.9109375 C6.1453125,7.9109375 6.0875,8.03125 6.1515625,8.1125 L7.9015625,10.328125 Z M13.71875,9.78125 L12.78125,9.78125 C12.7125,9.78125 12.65625,9.8375 12.65625,9.90625 L12.65625,12.3125 L3.34375,12.3125 L3.34375,9.90625 C3.34375,9.8375 3.2875,9.78125 3.21875,9.78125 L2.28125,9.78125 C2.2125,9.78125 2.15625,9.8375 2.15625,9.90625 L2.15625,13 C2.15625,13.2765625 2.3796875,13.5 2.65625,13.5 L13.34375,13.5 C13.6203125,13.5 13.84375,13.2765625 13.84375,13 L13.84375,9.90625 C13.84375,9.8375 13.7875,9.78125 13.71875,9.78125 Z"
                        id="形状"
                      ></path>
                    </g>
                  </g>
                </g>
              </g>
            </g>
          </g>
        </svg>