<svg xmlns="http://www.w3.org/2000/svg" viewBox="0 0 823.16 300.23"><defs><style>.cls-1{isolation:isolate;}.cls-2{opacity:0.2;mix-blend-mode:hard-light;}.cls-3{fill:#3186e0;}</style></defs><title>ellipse</title><g class="cls-1"><g id="图层_2" data-name="图层 2"><g id="图层_1-2" data-name="图层 1"><g class="cls-2"><path class="cls-3" d="M798.72,96.23c.71.67.38.21-1.61-1.6l-1.48-1.23Z"/><path class="cls-3" d="M785.09,84.25c-2.59-1.84-5.59-3.93-4-2.64,2.58,1.79,3.21,2.22,6,4.21a39.58,39.58,0,0,1,3.24,2.76l2,1.67c.87.7,1.69,1.54,2.26,2-.64-.6-1.29-1.28-2-1.92l-2.37-2-2.55-2.09L786.3,85.2l-1.41-1C784.1,83.58,784.89,84.13,785.09,84.25Z"/><path class="cls-3" d="M535.16,7.23l1.69.21Z"/><path class="cls-3" d="M371.76.88c1.25,0,1.77-.07,1.83-.09C372.43.84,371.48.88,371.76.88Z"/><path class="cls-3" d="M343.85,2.14,345.49,2Z"/><path class="cls-3" d="M535.16,7.23l-4.34-.54C530.51,6.68,533,7,535.16,7.23Z"/><path class="cls-3" d="M754.13,65.2c.82.41,1.48.78,2.1,1.1-.66-.35-1.3-.71-2-1.05Z"/><path class="cls-3" d="M606.5,17.9l1.31.25,1.09.17Z"/><path class="cls-3" d="M660.51,30.08a16.59,16.59,0,0,0-2.13-.44c.69.15,1.59.37,2.65.65C661.06,30.27,660.91,30.21,660.51,30.08Z"/><path class="cls-3" d="M743.17,59.38l1.42.64Z"/><path class="cls-3" d="M567.42,11.32l-.49-.11A3.23,3.23,0,0,0,567.42,11.32Z"/><path class="cls-3" d="M822.1,153.23s0,0,0,0C822.14,152.91,822.15,152.81,822.1,153.23Z"/><path class="cls-3" d="M798.89,96.06l.62.64c.08.06.16.12.17.1Z"/><path class="cls-3" d="M292.87,6.35l.23,0C294.44,6.18,293.68,6.26,292.87,6.35Z"/><path class="cls-3" d="M77.59,237.24c-2.33-1.3-.41-.29,1.22.55s3,1.48-.56-.41C78.9,237.76,71.77,234.05,77.59,237.24Z"/><path class="cls-3" d="M752.85,64.55l-2-1Z"/><path class="cls-3" d="M78.26,237.37h0l-.72-.4Z"/><path class="cls-3" d="M176.78,26.29,178,26S177.65,26.1,176.78,26.29Z"/><path class="cls-3" d="M263.07,10.22l-2.15.29Z"/><path class="cls-3" d="M132.91,38.65c-1.13.35-1.52.44-3,1l.47-.15C130.88,39.27,131.62,39,132.91,38.65Z"/><path class="cls-3" d="M88.46,55.24l.81-.33,1.38-.59Z"/><path class="cls-3" d="M722.2,248.29l2-.81C723.54,247.72,729.89,244.87,722.2,248.29Z"/><path class="cls-3" d="M754.13,65.14c-.26-.1-.63-.28-1.28-.6l1.41.7C754.39,65.3,754.42,65.3,754.13,65.14Z"/><path class="cls-3" d="M131.29,39.91l-7.14,2.38Z"/><path class="cls-3" d="M388.31,299.23l1.73,0Z"/><path class="cls-3" d="M103.16,49.95l-4,1.49-.81.34Z"/><path class="cls-3" d="M724.25,247.48h0Z"/><path class="cls-3" d="M767.76,223.85c-3,2-3.68,2.45-3.78,2.55s.42-.16-.21.27c-7.27,4.51-3.41,2-5.94,3.47l-6.22,3.68-5.43,3c-.27.12-1,.49-.17,0-4.95,2.74-15,7.59-21,10.3l-.8.33c1-.38,1.17-.4,1-.27-2.92,1.35-5.46,2.43-6.59,2.85,1.82-.77,2-.86,2.8-1.24l-3.09,1.35c-1.42.54-.36.08,1-.52l2.11-.91.75-.33a1.39,1.39,0,0,0,.29-.15c-6,2.64-13.08,5.61-17.81,7.35-1,.33,10.95-4.35,4.67-2,2.41-1,4.85-1.87,7.24-2.88-5.55,2.15,4.37-1.83-.74.13-9.52,3.81-10.62,4.34-20.24,7.8-2.15.82.75-.17-1.4.66l-4.41,1.58L686.6,262l-4.22,1.31c-2.27.71-4.12,1.17-9.19,2.85-2.62.91-3.62,1.3-10.94,3.38l2.46-.85-7.55,2.2c-1.42.4-2.88.9-7.93,2.14,1.79-.47,7.53-2.06,6.08-1.67-3.26.85-4.41,1.16-5.37,1.43s-1.72.51-4.23,1.16l-1.07.16c-10.25,2.58-21.58,5.29-33.07,7.58.63-.16,2.59-.6-.1-.08-14.47,3-31,5.69-45.13,7.61-1.79.29-3.58.6-5.38.85-1.26.16-2.33.26-1,.07-5.51.69-.28.1-2.92.48-3.13.42-4.14.49-2.16.2-9.7,1.37-27.7,3.48-38,4.22l2-.21c-8,.71-9,1-16.46,1.49l1.42-.13c-17.4,1.33-36.66,2.34-50,2.63-1.26.1-5.58.22-9.72.33s-8.11.14-8.66.26c-10,.09-7.11,0-21.14,0-3.75,0-5.59.1-10.22.1l-.11-.1-6.29.06-3.35-.18-4.35-.05c1.73,0,3.68.11,3.41.13-3.39,0-7.53-.12-10.84-.22l-4.14-.17c-1,0-1.68-.08-1.73-.1l-8-.2-8-.29c.36,0,3,.07,5.17.13-8.57-.25-1.55-.17-9.4-.4,1.05.07-.57,0-.75,0l-8.69-.5c-3.54-.18-7.41-.39-10.7-.61h1.27c-11.89-.73-25-1.76-38.35-3,4.77.5,3.66.52-.24.14l-1.55-.27c-2.52-.2,4.07.46-1.11,0-5-.53-3.33-.47-.47-.2l-6-.59c-.35-.07,1.07.06,1.44.06-2.49-.16-10.4-1.29-14-1.59l-.34-.07c-13.26-1.67-19.26-2.48-30-4.14-.22.06-4.42-.63-7.64-1.07l-12.45-2.23c-4.34-.86-8.9-1.67-13.62-2.65-6.64-1.31-2-.32-4.95-.88-.48-.14-9.88-2.19-5-1.18-5.65-1.24-9.26-2-13.23-3l-6.53-1.53-8.87-2.21c1.53.42,3.26.88,2.35.68-2.58-.62-5.84-1.55-5.46-1.5l.68.18c-7.94-2.07-17.06-4.69-25.67-7.49-2.16-.67-4.28-1.4-6.35-2.09s-4.1-1.35-6-2c-3.87-1.38-7.47-2.58-10.53-3.71l.69.25L118,254.62l-6.32-2.45c-5.79-2.31,3.5,1.32-.77-.43-3.4-1.33-6.41-2.63-9.22-3.79l-7.82-3.51L86.53,241l-7.61-3.82c-4.05-2.3-11.35-6.19-18.69-10.81a192.61,192.61,0,0,1-19.59-13.88l.53.5c-2.57-2-3.06-2.46-4.85-4,.23.26,2.63,2.34,1.09,1a139.81,139.81,0,0,1-15.06-14.47A101.07,101.07,0,0,1,9.86,178.3a68.71,68.71,0,0,1-7.74-19.81,56.68,56.68,0,0,1-.65-21L2,134.29c.17-.87.37-1.56.51-2.16.3-1.19.42-2,.68-2.86s.55-1.79,1-3.28c.22-.75.64-1.59,1.07-2.64a38.22,38.22,0,0,1,1.73-3.72L6.3,121.3,5.64,123a71.45,71.45,0,0,1,7.65-13.66c.72-1.11,1.58-2.11,2.37-3.17l1.21-1.57,1.29-1.51c.87-1,1.71-2,2.61-3l2.75-2.86A156.63,156.63,0,0,1,47.82,77.65c-1,.69-1,.74-2.67,1.83l3.61-2.35c1.42-.93,2.95-2,4.44-2.85L57,71.94l1.18-.74.44-.29A17.66,17.66,0,0,1,61,69.65c1.91-1,4.27-2.34,6.42-3.54s4.14-2.15,5.17-2.64c.35-.16-1.07.57-1.78.93l6.5-3.28c2.34-1.12,4.07-1.9,2.82-1.38,6.94-3.23,13.35-6,19-8.29,1.84-.77,4.89-2,7.63-3s5.2-1.9,5.76-2.2c-.23.16,2.93-1,6.72-2.33l10.56-3.61c-.76.28.24-.05,1.21-.35s1.92-.57,1-.26c5.27-1.65,10.1-3.18,9.16-3,4.9-1.38,9.81-2.81,14.19-4.09s8.26-2.26,11.06-2.9c15.88-4.17,30.72-7.48,45.21-10.37-.24.14-4.26.86-8.11,1.71s-7.56,1.6-7.23,1.61l9.36-2L214,18.94c5.4-1.12,10.81-2.08,17.65-3.28,3.55-.61-2,.42-3.19.66C235.36,15,242.06,14,248.54,13s12.81-1.94,19-2.75l-.85.13-1.77.25c2.43-.33,5.66-.73,5.38-.76l-2.37.33c-3.9.42,9.64-1.49,10.07-1.57-4.12.67,12.23-1.39,5.68-.38,1.6-.2,3.61-.47,3.24-.47,2.38-.27,3.14-.33.73,0,8.73-1.05,5.63-.72,13.55-1.56,0,0-.42.07-.92.13l-1.52.2c4-.48,8-1,14.74-1.52a6.54,6.54,0,0,1-1.62.19c5.76-.53,10.66-1,15.72-1.4l7.81-.63c2.72-.2,5.61-.36,8.77-.54-3.73.37,4.31-.22,5-.14,2.27-.17,4.54-.26,6.81-.39l-2.74.07c6-.27,11.24-.68,16.38-.79-1.48.07-3,.12-4.44.22l11.19-.43L370,1.33c6-.27-.65-.13,7.3-.37-1.62.06,6-.21,9.09-.17h0c3-.1,6-.21,10.42-.26,1.15,0-.92.14-.17.16,2.92-.1,14-.17,17.69-.22-1.23,0-1.3.08-.89.09L415.91.5c2.77,0,3.17.06,2.72.11,8.33.07-2.64-.17,7.24,0l-2,0c9.93.16,19.18.29,28.29.69,2.69.21-8-.25-4.89,0,13.15.35,27.22,1.06,39.92,1.9L484.8,3c1.77-.09,9.45.78,15.87,1.18-1.57-.11-2.07-.06-1.64,0,8.69.74,17.76,1.47,30.9,2.82l-1.63-.12c2.55.26,5.91.68,9.32,1.08s6.87.79,9.62,1.16c1.64.17,4.78.59,2.88.28,16.94,2.42,32.34,4.43,47.25,7.33a18.28,18.28,0,0,0-2.84-.47c4.25.74,8.5,1.46,12.72,2.29-1-.27-1.66-.37-4.31-.94,1.61.27,5.2.93,8.35,1.54-5.72-1.06,0,.13,2.48.65-.41-.1.44,0,.24,0,6.6,1.45,1.14.07,10.15,2l-.49-.06c3.38.69,6.51,1.28,10.13,2.15,1.49.43-3.59-.78-3.84-.76,5.09,1.17,10.1,2.11,14.68,3.31-2.16-.53-5.28-1.2-7.45-1.69L646.5,27l-.37-.09,8.58,2.17-2.18-.57c3.21.65,6.42,1.54,9.91,2.46l5.47,1.46,6,1.67c-8.27-2.24-1.38-.32-2-.4,2.15.65,5.43,1.63,4.49,1.39,4,1.05,6.64,2,12.29,3.68.24.11,4.25,1.33,3.33,1.12,5.14,1.7-1.19-.47-.76-.33,4,1.25,8.62,2.83,13.68,4.62L712.77,47c2.71,1,5.44,2.09,8.26,3.13,4.85,1.82,7.65,3.05,10.41,4.16l4.29,1.77,5.48,2.48c2.92,1.4-2.46-1-2.46-1l6.49,3,6.21,3.08c-.9-.42,0,.06,1.33.76,1.78.87,2.36,1.17,3.09,1.55s1.59.83,3.87,2.1c-.8-.4-1.84-.9-3.52-1.79l6.15,3.3c2.05,1.11,4.06,2.36,6.14,3.57,1.07.71-2.54-1.43-4-2.27,2.32,1.4,5.37,3.14,7.94,4.77s4.71,3.06,5.43,3.49L775,77.22c1.65,1.09.81.62-.42-.17-3.88-2.55-5.66-3.58-5.85-3.77l3,1.76c-1.46-1-4.43-2.76-7.76-4.73-1.68-1-3.5-1.89-5.25-2.85s-3.44-1.9-5-2.67c.89.38,1.74.81,2.61,1.24-2.07-1.14-4.24-2.09-6.36-3.14-1.33-.71-2.22-1.24.84.28-2.2-1.14-3.19-1.62-4.1-2.07s-1.74-.84-3.66-1.76c-.42-.21-.23-.12.17.05l-4.42-2c.87.37-.69-.42,2,.84-2-.92-3.75-1.76-5.37-2.49L731,53.9c-2.62-1.08-4.59-1.93-6.1-2.58l.68.26c-11.25-4.38-1.12-.34-9.59-3.54-1.86-.83-3.75-1.56-5.63-2.34l-1.15-.31c-1.17-.43-3.48-1.28-3-1.16-4.38-1.52.73.31-1.82-.55-2.82-1-6.74-2.31-10.11-3.45s-6.22-2-6.83-2.26c-2.08-.57,5.46,1.76-.67-.09-1.69-.71-7.06-2.2-12.32-3.75,1.64.38,6.61,1.87,1.37.27-1.61-.39-4.17-1.14-6.88-1.94s-5.61-1.57-7.84-2.16c-.12,0-2.55-.62-5.89-1.49L643.77,26c.25,0-3.3-.81-7.79-1.85-2.25-.51-4.72-1.11-7.09-1.63l-6.37-1.37.21,0c-.7-.09-2.86-.52-5.52-1.07l-8.48-1.63a34.33,34.33,0,0,1,4.07.66l-5-1c-1.19-.18-2.75-.49-6-1.07l1.28.14C596.41,16,589.64,14.87,581,13.46c-.5,0,6.81,1.33-2.3-.08-.33-.1-.66-.23,1.73.14-.78-.12-2.79-.41-4.36-.69l3.65.51c-3.92-.67-2.06-.27-5.19-.78.07-.05-2.32-.39-1.86-.37l3.94.61c-3.53-.59-7.81-1.21-9.22-1.48.3.08,0,.08-2.61-.29-6.71-1-2.28-.43-6.2-1-1.63-.17-5.91-.78-6-.7-2-.26-2.32-.35-3.08-.48C546,8.4,533.22,6.93,537.14,7.47l.89.11-.57-.06h0C526,6.25,513.72,4.94,502.36,4l0,0c-6.79-.47-15.11-1.18-20-1.37a32.47,32.47,0,0,1-3.88-.34l-13.29-.73c5.23.2-1.8-.14,5.36.22-6.75-.34-8.28-.5-15.54-.72,2.47,0-5.09-.28-8.3-.37l4.73.22-10-.35,1.74,0c-6.92-.24-13.16-.33-19-.35S413,.08,407.76,0c-3.66.09,7.52,0,4.24.12L397,.09c-8.72.12-8.13.3-17.26.49,1.17,0,2.27.06-4.54.33-6.37.21-7.83.11-3.81-.06,1.53-.06,2.26-.07,2.2-.05,2.06-.09,4.76-.2,2.23-.15L375,.71c-3.16.06-11.92.39-9.87.26-4.81.27-2.05.16,1.51,0l-10.49.48-5,.24-5.7.34c1.34-.06,2.57-.09,1.24,0-12.32.74-5.42.37-13.76,1-4.74.3,1.69-.27-6.7.42-5.13.35-1.09,0,.94-.2L308.57,4.76l4-.39L306.21,5l2.3-.13-3.06.27c-.79.08-1.28.12-1.26.1-2.43.3,1.87-.07-2.94.5-3.15.29-9.57,1-10.67,1.06,9.89-1-1.1,0,7.26-.88l-6,.61c-.36,0,.33-.06,1-.13-9.46,1-4.33.61-14.13,1.75,1.24-.2-2.28.15-3.88.39,3.94-.52,1.9-.15-1.71.37-6.27.78-6.81.93-10.09,1.36l3.75-.47c-1.26.23-4.4.61-8.75,1.29-.38,0,4-.61,2.4-.4-4.82.84-11,1.44-17.68,2.64-3.13.47-.32-.06-3.06.36-7.54,1.27-8.18,1.3-16.09,2.75,2.29-.33,2.69-.42-2.87.64l13-2.36-8.33,1.59c3.93-.68,8.27-1.55,10.64-1.89-4,.71-3.57.66-1.68.38-5.39.85-10.65,1.91-16.86,3l.15-.22c-9.33,1.7-16.52,3.31-28.55,6l3.87-.85c-1.59.44-7.41,1.71-11.29,2.63A34.5,34.5,0,0,0,178,26c.21,0-8.75,2.16-9.81,2.55-1.79.41-3.56.88-5.34,1.32-9.63,2.51-10.9,3.17-20.09,5.79a42.79,42.79,0,0,1,4.7-1.53l-4.07,1.17c-.54.16-1,.28-1.29.39a3.72,3.72,0,0,0-.5.18c-1.79.52-8.43,2.71-11.24,3.54-1.27.46-1.66.66-5.06,1.8-.37.11,0,0,0,0l-.78.29L123,42c-1,.34-1.53.55,0,.09l-3.83,1.23-4.29,1.53c-3,1.1-6.19,2.18-9.3,3.45s-6.22,2.42-9,3.57-5.27,2.21-7.26,3c-1.61.67-3.27,1.44-5,2.23L79.2,59.52c-1.72.77-3.36,1.63-5,2.43L69.7,64.24a9.06,9.06,0,0,1,1.08-.57L68.31,64.9l-1.68.93-2.18,1.26-2.38,1.37c-1.06.6-2.52,1.36-4.64,2.65-4.4,2.52,4.49-2.76,1.76-1.17-.64.26-3.21,1.81-6.34,3.71-1.58.92-3.22,2.06-4.86,3.14l-4.64,3c.44-.32.89-.61,1.34-.91-1.09.67-2.22,1.52-3.46,2.44l-4,3c-1.43,1-2.8,2.3-4.32,3.52s-3.09,2.49-4.59,4c0,0,.29-.29,0-.06l-3.7,3.53c-1.41,1.34-2.82,2.95-4.36,4.53-.74.82-1.45,1.69-2.19,2.54S16.61,104,16,104.94c-1.35,1.78-2.72,3.48-3.79,5.18,1.31-2.13,2.1-3,1.09-1.83-1,1.49-.83,1.29-.91,1.47a7.41,7.41,0,0,1-.48.8l-.72,1.09c-.32.47-.71,1.06-1.15,1.85l-1.13,1.85c-.43.71-.91,1.46-1.28,2.21-.78,1.48-1.47,2.78-1.67,3.07,1-2,2-4.07,3.2-6-.45.74-1,1.56-1.49,2.49L6.16,120c-.53,1-.9,2-1.31,3S4,124.9,3.74,125.75l.1-.45A60.89,60.89,0,0,0,2,131.24l-.55,2.22c-.17.69-.25,1.37-.37,2A43.11,43.11,0,0,0,.44,140c-.07.87-.2,1.83-.26,2.92L.1,146.62l.07-1.16c.24,6.09,0,5.14,1,11.15l.25,1.83c.11.49.22,1.08.38,1.74l.62,2.16c.24.78.44,1.63.76,2.49l1,2.68c.31.93.72,1.85,1.14,2.78l1.23,2.79,1.37,2.66c.44.87.87,1.71,1.35,2.48-.57-.85-1.14-2-1.82-3.3-.33-.64-.7-1.31-1-2l-1-2.21c-.32-.75-.69-1.5-1-2.27l-.84-2.29c-.59-1.49-1-2.94-1.36-4.2A62.6,62.6,0,0,0,5,170a65.74,65.74,0,0,0,3.09,6.41c-.72-1.44-1.75-3.2-2.31-4.69a96.1,96.1,0,0,0,10,16.47c-.25-.25.37.68,1.55,2.26s3,3.76,5,6S26.71,201,28.72,203s3.85,3.7,4.93,4.65a196,196,0,0,0,16.78,13.08A224.38,224.38,0,0,0,69.91,233c-4.95-3.06,4.15,2.39,3.39,1.67,3.37,1.79,4.65,2.49,4.94,2.66,1.69.93,3.42,1.79,5.12,2.68s3.42,1.78,5.16,2.6c2.45,1.22-3.3-1.5-3-1.34,7.53,3.63,3.13,1.59,8.1,4-1-.53,2.69,1.1,7,3.07l-6.09-2.82,10,4.41c2.32,1,4.64,2.08,10.14,4.17l-3.48-1.31,5.7,2.24,7.52,2.8c2.6,1,5.24,1.84,7.55,2.65s4.34,1.46,5.76,1.87c1,.36,2.33.85-.2,0,3.42,1.14,7,2.34,10.74,3.45l5.56,1.69,5.56,1.59c3.66,1.07,7.25,2,10.59,2.92s6.45,1.69,9.16,2.41l-1.07-.22,7.83,1.91c-.17,0-1.07-.2.15.09l10.45,2.38-3-.61c6.86,1.56,12.14,2.7,17.17,3.65s9.78,1.82,15.58,2.9a1.67,1.67,0,0,0,.46.14c.3.07.74.17,1.29.27l4.33.81c3.4.63,7.48,1.36,10.22,1.78h-.19c16.18,2.6,27.55,4,42.63,5.68,2.33.33,5.49.67,9.13,1.06s7.79.84,12.12,1.21,8.83.81,13.21,1.14,8.6.7,12.38.95c-2.31-.18.38-.09,3.07.08l6.16.38a19.53,19.53,0,0,1,3.08.22l-1.26-.07c2.67.25,10,.67,15.65.89l.95-.13c14.89,1,39,1.09,47.18,1.25,3.6,0,8.05,0,11.62-.08l-.19.09c10,0,14.95-.08,27.27-.38l-2.51.14c6.95-.2,8.77-.5,15.17-.72l1.93.06c6.06-.25,12.15-.46,18.23-.8s12.13-.7,18.1-1.15c-.19,0-.55.1-2.51.23,2.85-.16,8.36-.56,12.89-.93s8.09-.69,7.05-.69c0,0,.84,0,2.11-.14l5-.46c3.91-.35,8.61-.91,11.87-1.27l-1,.19L545,292.64c1.82-.2,1.6-.12-.82.15,6.06-.67,4.71-.61,12-1.53l-2.72.42c6.22-.81,5.72-.78,9.14-1.29,3.9-.6,11.78-1.68,12.7-1.75s4.21-.79,7.86-1.35c.5,0-.83.18-1.5.3,5.19-.77,9-1.5,12.45-2.12l10-1.83a11.32,11.32,0,0,0,1.21-.17c-8.18,1.59-14.8,2.66-14.18,2.57,0,.08,6.65-1.06,1.39,0,2.66-.49,6.26-1.16,10-1.93l10.82-2.15.86-.15-.66.15,4.06-.85c2.05-.4,3.36-.66,5.32-1.11.77-.12,7.55-1.59,10.81-2.39-.29,0,4-1,0-.15.52-.12-.61.16-2.79.67l-1.39.32.22-.06-8.14,1.81c2.58-.62,5.27-1.25,8.91-2l4.53-1.22c2.24-.48,5.53-1.17,8.39-1.87s5.31-1.28,5.92-1.39c9.91-2.6,23.26-6.48,29.33-8.64,2.78-.88,3.2-1,4.25-1.29-1.59.56-3.5,1.15-4.36,1.44,2.78-.86,6.86-2.28,10.43-3.46s6.56-2.35,7.2-2.63c3.47-1.2,2.51-.83,1.86-.58s-.95.41,3.77-1.38l-1.26.51c9.36-3.32,16.77-6.53,24.38-9.92l5.76-2.65,6-2.89c4.1-2,8.48-4.22,13.33-6.82-1.35.71-2,1.07-2.3,1.2l4.16-2.24L756,232c2.77-1.55,5.47-3.28,8.2-4.95C769.59,223.54,775,220,780,216a146.7,146.7,0,0,0,27.19-26.58l2.52-3.44,1.52-2.38,1.23-2,1.31-2.38.84-1.28c.6-1.07,1.08-2.2,1.62-3.3l.79-1.66.69-1.71c1.05-2.39,1.8-4.7,2.59-7,.63-2.3,1.33-4.54,1.75-6.95a53.23,53.23,0,0,0,.72-16.61l.12,1.7-.48-4.31c-.32-1.59-.58-3.27-.94-4.76l-1-3.69a7.06,7.06,0,0,1-.35-1.17c-.17-.46-.57-1.45-1.15-3.21v-.15a73.62,73.62,0,0,0-5.22-10.4l-1.29-2.21-.67-1c-.26-.42-.22-.4-.24-.48a8,8,0,0,0-.69-1.12c-.28-.42-.67-1-1.24-1.83L807.3,105c-.73-1-1.74-2.08-2.73-3.22l-1.49-1.69c-.5-.54-1-1-1.48-1.51a23.64,23.64,0,0,0-2.51-2.48c1.37,1.43,3.47,3.66,3.53,3.8l-3.11-3.21c-.33-.24-1.13-.95-.89-.6.12.17.49.61,1.3,1.5l1.57,1.7,1.07,1.15,1.22,1.44c.83,1,1.7,1.89,2.51,2.87l2.36,3c.5.65.94,1.34,1.37,2-.31-.44-.59-.89-.91-1.32l-1-1.27-2-2.54c1.08,1.46,2,2.64,2.83,3.7s1.49,2.1,2.24,3.15c.32.52.91,1.41,1.64,2.73.64,1.06,1.35,2.1,1.94,3.19l1.76,3.3c.18.42-.23-.32-.4-.6s-.11-.16,0,.13.46.88.92,2c1.44,3.19-1.2-3.14,1.12,2.17a16.76,16.76,0,0,1,.68,1.89l.36,1.13.42,1.23.33.93.37,1.32c.1.6-.09-.29-.64-1.89a64.89,64.89,0,0,1,2.54,11.72l.16,1.63c0,.61,0,1.27.06,2l.07,2.11c0,.71,0,1.41-.06,2.08a22.34,22.34,0,0,1-.43,4.64,55.53,55.53,0,0,1-1.9,10c.37-1.55.35-1.54.1-.67-.13.43-.28,1.08-.52,1.84l-.88,2.54a40,40,0,0,1-2.94,6.84,69.52,69.52,0,0,1-5.5,9.91c-1.24,2-2.76,4-4.16,5.93-.74,1-1.49,1.87-2.21,2.77s-1.4,1.77-2.1,2.55c.3-.36.9-1.06,1.36-1.64-3.09,3.56-4,4.57-6.18,6.7a103.52,103.52,0,0,1-8.49,8.37c-4.44,3.72,2.55-2.42,1.1-1.31.14-.06-1.73,1.61-3.45,3.15s-3.39,2.81-2.59,2.23a59.68,59.68,0,0,1-4.88,3.65c-.53.59-3.25,2.53-6.23,4.69-2.64,1.82-3,2-3.44,2.25s-.9.56-3.83,2.52C762.56,227.34,767.76,223.85,767.76,223.85ZM611.55,281.72h0l3.39-.7Zm-13.84,2.65,6-1.13c.49-.06,0,.07-1.42.33C603,283.41,599.78,284,597.71,284.38Zm29.35-5.3c-2.18.49-2.91.64-3.21.69l3.81-.85.25-.07C627.7,278.9,627.47,279,627.05,279.07Z"/><path class="cls-3" d="M630.95,278.09l.89-.21-1.3.28-.77.2Z"/><path class="cls-3" d="M537.14,7.47l-.3,0,.62.09Z"/><polygon class="cls-3" points="404 299.39 404.02 299.41 405.25 299.4 404 299.39"/><path class="cls-3" d="M613.77,19.73l1,.22Z"/><path class="cls-3" d="M646.5,27l4.59,1.17Z"/><path class="cls-3" d="M671.41,33.57l.49.1h0Z"/><path class="cls-3" d="M264.91,10.59l-1,.13Z"/><path class="cls-3" d="M386.42.79,382.5.91C384.67.87,386.35.84,386.42.79Z"/><path class="cls-3" d="M132.07,39.66h0l-.8.25Z"/><path class="cls-3" d="M376.83,1.09,382.5.91C380.72.94,378.62,1,376.83,1.09Z"/><path class="cls-3" d="M773.95,76.77l1,.69.13.07Z"/><path class="cls-3" d="M775.11,77.53l1.15.75C775.74,77.93,775.28,77.63,775.11,77.53Z"/><path class="cls-3" d="M778.7,79.86l-2.43-1.58C777.1,78.83,778.13,79.52,778.7,79.86Z"/><path class="cls-3" d="M744.17,60.21l-.37-.13A2,2,0,0,0,744.17,60.21Z"/><path class="cls-3" d="M734.75,55.9c2.26,1,5.61,2.65,8.75,4.06l.3.11C742.31,59.45,736.92,56.79,734.75,55.9Z"/><path class="cls-3" d="M694.43,40.18l8.23,2.8c-1.43-.52-3.31-1.2.44.05C692.75,39.44,705.22,43.83,694.43,40.18Z"/><path class="cls-3" d="M668.65,32.31c4.49,1.28,0-.06.2,0C666,31.55,665.3,31.37,668.65,32.31Z"/><path class="cls-3" d="M476.57,2.1,477,2C473.45,1.84,477,2.08,476.57,2.1Z"/><path class="cls-3" d="M439.36.93l3.5.14,1.67,0C442.81,1,441.09.95,439.36.93Z"/><polygon class="cls-3" points="417.38 0.01 418.96 0.01 412.95 0 417.38 0.01"/><path class="cls-3" d="M96.2,51.86l1-.33C99.5,50.63,99.92,50.3,96.2,51.86Z"/><path class="cls-3" d="M.07,145.35,0,146.9.09,149l.12,2.27.29,2C.4,152.52.27,151.74.22,151l-.1-2.22L0,146.83Z"/><polygon class="cls-3" points="366.55 299.39 363.7 299.31 369.06 299.5 366.55 299.39"/></g></g></g></g></svg>