<svg width="16px" height="16px" viewBox="0 0 16 16" version="1.1">
    <g id="信息标准" stroke="none" stroke-width="1" fill-rule="evenodd">
        <g id="信息标准v4" transform="translate(-707.000000, -262.000000)" fill-rule="nonzero">
            <g id="二级导航" transform="translate(0.000000, 240.000000)">
                <g id="编组-9" transform="translate(707.000000, 19.000000)">
                    <g id="编组-8">
                        <g id="icon-rgb_资源智能管理" transform="translate(0.000000, 3.000000)">
                            <path d="M13.3821883,0.0094995827 L1.39643766,0.0094995827 C0.628953919,0.0094995827 0.00678541582,0.631668077 0.00678540458,1.39915182 L0.00678540458,4.87328244 C0.00678540458,5.64076619 0.628953911,6.2629347 1.39643766,6.2629347 L13.3821883,6.2629347 C14.149672,6.2629347 14.7718405,5.64076619 14.7718405,4.87328244 L14.7718405,1.39915182 C14.7718405,0.631668077 14.149672,0.0094995827 13.3821883,0.0094995827 Z M1.39643766,1.39915182 L13.3821883,1.39915182 L13.3821883,4.87328244 L1.39643766,4.87328244 L1.39643766,1.39915182 Z" id="形状"></path>
                            <path d="M3.39406276,2.441391 C3.0103209,2.44139101 2.69923666,2.75247526 2.69923666,3.13621713 C2.69923667,3.51995899 3.01032091,3.83104323 3.39406277,3.83104324 C3.77780463,3.83104324 4.08888888,3.519959 4.0888889,3.13621714 C4.0888889,2.95193779 4.01568422,2.77520604 3.88537904,2.64490086 C3.75507386,2.51459568 3.57834211,2.441391 3.39406276,2.441391 L3.39406276,2.441391 Z" id="路径"></path>
                            <path d="M13.3821883,9.7370653 L12.4268024,9.7370653 L12.4268024,8.04168957 C12.4268024,7.65794769 12.1157181,7.34686344 11.7319763,7.34686344 C11.3482344,7.34686344 11.0371501,7.65794769 11.0371501,8.04168957 L11.0371501,9.7370653 L3.74147583,9.7370653 L3.74147583,8.04168957 C3.74147582,7.6579477 3.43039157,7.34686346 3.0466497,7.34686346 C2.66290783,7.34686346 2.35182358,7.6579477 2.35182357,8.04168957 L2.35182357,9.7370653 L1.39643766,9.7370653 C0.628953911,9.7370653 0.00678540458,10.3592338 0.00678540458,11.1267176 L0.00678540458,14.6008482 C0.00678541582,15.3683319 0.628953919,15.9905004 1.39643766,15.9905004 L13.3821883,15.9905004 C14.149672,15.9905004 14.7718405,15.3683319 14.7718405,14.6008482 L14.7718405,11.1267176 C14.7718405,10.3592338 14.149672,9.7370653 13.3821883,9.7370653 L13.3821883,9.7370653 Z M13.3821883,14.6008482 L1.39643766,14.6008482 L1.39643766,11.1267176 L13.3821883,11.1267176 L13.3821883,14.6008482 Z" id="形状"></path>
                            <path d="M3.39406276,12.1689567 C3.01032089,12.1689568 2.69923665,12.480041 2.69923666,12.8637829 C2.69923667,13.2475247 3.01032092,13.558609 3.39406279,13.558609 C3.77780465,13.558609 4.0888889,13.2475247 4.0888889,12.8637829 C4.0888889,12.6795035 4.01568421,12.5027718 3.88537903,12.3724666 C3.75507385,12.2421614 3.57834211,12.1689567 3.39406276,12.1689567 L3.39406276,12.1689567 Z M7.27466667,12.7595589 L5.88501441,12.7595589 C5.74111121,12.7595589 5.62445462,12.8762155 5.62445462,13.0201187 C5.62445462,13.1640219 5.74111121,13.2806785 5.88501441,13.2806785 L7.27466667,13.2806785 C7.41856987,13.2806785 7.53522646,13.1640219 7.53522646,13.0201187 C7.53522646,12.8762155 7.41856987,12.7595589 7.27466667,12.7595589 L7.27466667,12.7595589 Z M9.70655811,12.7595589 L8.31690585,12.7595589 C8.17300265,12.7595589 8.05634606,12.8762155 8.05634606,13.0201187 C8.05634606,13.1640219 8.17300265,13.2806785 8.31690585,13.2806785 L9.70655811,13.2806785 C9.85046131,13.2806785 9.9671179,13.1640219 9.9671179,13.0201187 C9.9671179,12.8762155 9.85046131,12.7595589 9.70655811,12.7595589 Z" id="形状"></path>
                        </g>
                    </g>
                </g>
            </g>
        </g>
    </g>
</svg>