<svg viewBox="0 0 16 16">
  <g id="信息标准" stroke="none" stroke-width="1" fill-rule="evenodd">
    <g id="信息标准v4" transform="translate(-1062.000000, -262.000000)" fill-rule="nonzero">
      <g id="二级导航" transform="translate(0.000000, 240.000000)">
        <g id="编组-9" transform="translate(707.000000, 19.000000)">
          <g id="编组-6" transform="translate(355.000000, 0.000000)">
            <g id="icon-rgb_指标智能分析-31" transform="translate(0.000000, 3.000000)">
              <path d="M0.264796701,9.81849547 C0.162527382,9.82049697 0.0691273278,9.76068116 0.0281667278,9.6669515 C-0.0127938723,9.57322184 0.00675558225,9.4640462 0.0776954667,9.39035392 L1.01151605,8.4177646 C1.10923339,8.32216463 1.26524102,8.32154736 1.3637118,8.41637108 C1.46218258,8.5111948 1.46745073,8.66711468 1.37560494,8.76836873 L0.441784356,9.74095802 C0.395380745,9.78921674 0.331731406,9.81710121 0.264796701,9.81849547 L0.264796701,9.81849547 Z M5.34181399,8.71274404 C5.23682381,8.71289833 5.14266251,8.64815283 5.10522419,8.55006443 C5.06778587,8.45197604 5.09486145,8.34095693 5.17325432,8.27111769 L6.18461235,7.36932346 C6.28932248,7.28530846 6.44143669,7.29777473 6.53107092,7.3977169 C6.62070515,7.49765906 6.61660472,7.65022815 6.52173169,7.74521152 L5.51037367,8.64700577 C5.46455949,8.68971154 5.40444202,8.71375852 5.34181399,8.71442963 L5.34181399,8.71274404 Z M4.58329547,8.23066337 C4.52111721,8.23091395 4.46105639,8.20809084 4.4147358,8.16661071 L3.40337778,7.27324444 C3.33562963,7.21302387 3.30515506,7.12123457 3.32343353,7.03245267 C3.341712,6.94367077 3.40596659,6.87138436 3.49199321,6.84282303 C3.57801983,6.81426171 3.67274899,6.83376461 3.74049713,6.89398519 L4.75185515,7.78735145 C4.83024801,7.85719069 4.85732358,7.9682098 4.81988526,8.06629819 C4.78244694,8.16438657 4.68828564,8.22913206 4.58329547,8.22897778 L4.58329547,8.23066337 Z M1.89982552,8.1177284 C1.79847704,8.11766588 1.70695902,8.05709109 1.66730195,7.96382354 C1.62764488,7.87055598 1.64751276,7.76262026 1.71778108,7.68958682 L2.65160164,6.71699753 C2.749319,6.62139771 2.90532651,6.62078051 3.00379723,6.71560416 C3.10226795,6.81042782 3.10753617,6.96634757 3.01569053,7.06760164 L2.08186997,8.04019095 C2.03424138,8.08969382 1.9685206,8.117686 1.89982552,8.1177284 L1.89982552,8.1177284 Z M7.09652016,7.13671111 C6.99152999,7.13686539 6.8973687,7.0721199 6.85993039,6.97403151 C6.82249207,6.87594312 6.84956764,6.76492402 6.92796049,6.69508478 L7.93931852,5.79329053 C8.00549723,5.72703492 8.10287623,5.70278315 8.19239907,5.73026204 C8.2819219,5.75774093 8.34892516,5.83244957 8.3665354,5.92442406 C8.38414564,6.01639855 8.34947839,6.11057392 8.27643787,6.16917861 L7.26507984,7.07097284 C7.21901117,7.11306514 7.1589224,7.13649975 7.09652016,7.13671111 L7.09652016,7.13671111 Z" id="形状"></path>
              <path d="M8.01854157,5.49325432 C8.01854157,5.86562606 8.32040851,6.167493 8.69278025,6.167493 C9.06515199,6.167493 9.36701892,5.86562606 9.36701892,5.49325432 C9.36701892,5.12088258 9.06515199,4.81901564 8.69278025,4.81901564 C8.32040851,4.81901564 8.01854157,5.12088258 8.01854157,5.49325432 Z" id="路径"></path>
              <path d="M15.3138041,15.8630453 C15.1349311,15.8631859 14.9633329,15.7922425 14.8367802,15.6658305 L11.5633514,12.3890305 C11.2998984,12.1255775 11.2998984,11.6984357 11.5633514,11.4349827 C11.8268044,11.1715297 12.2539462,11.1715297 12.5173992,11.4349827 L15.7925136,14.7100971 C15.9855685,14.9029372 16.0433574,15.1931268 15.9389059,15.4452129 C15.8344545,15.6972989 15.5883586,15.8615744 15.3154897,15.8613597 L15.3138041,15.8630453 Z" id="路径"></path>
              <path d="M7.3914996,14.5145679 C5.46920842,14.5157746 3.62569783,13.7508299 2.2689712,12.3890305 C2.00551819,12.1255775 2.00551819,11.6984357 2.26897119,11.4349827 C2.53242419,11.1715297 2.95956591,11.1715297 3.22301892,11.4349827 C5.52701367,13.7387424 9.26231705,13.7386153 11.5661551,11.4346989 C13.8699931,9.13078256 13.8699931,5.39547917 11.5661551,3.09156279 C9.26231705,0.787646403 5.52701367,0.787519354 3.22301892,3.09127901 C2.95815608,3.34336771 2.5406292,3.33839445 2.28184602,3.08006848 C2.02306285,2.82174252 2.01735127,2.40422509 2.2689712,2.13891688 C4.58946159,-0.179374791 8.17764207,-0.650309288 11.0177713,0.990671465 C13.8579006,2.63165222 15.2419756,5.97547557 14.3924611,9.14367334 C13.5429467,12.3118711 10.6716142,14.5146576 7.3914996,14.5145679 L7.3914996,14.5145679 Z" id="路径"></path>
            </g>
          </g>
        </g>
      </g>
    </g>
  </g>
</svg>