<svg version="1.1" x="0px" y="0px" viewBox="0 0 18 18" style="enable-background:new 0 0 18 18;" xml:space="preserve">
	<style type="text/css">
	.st0{fill:#2B92FF;}
	.st1{fill:#237CCC;}
	.st2{fill:#FFFFFF;}
	</style>
	<g>
		<path class="st0" d="M2.6,0C1.8,0,1.1,0.6,1.1,1.4v15.2c0,0.8,0.6,1.4,1.4,1.4h12.9c0.8,0,1.4-0.6,1.4-1.4V5.7L11.6,0H2.6z M2.6,0" />
		<path class="st1" d="M16.9,5.7V6h-3.6c0,0-1.8-0.4-1.7-1.9c0,0,0.1,1.6,1.7,1.6H16.9z M16.9,5.7"/>
		<path class="st2" d="M11.6,0v4.1c0,0.5,0.3,1.6,1.7,1.6h3.6L11.6,0z"/>
		<path class="st2" d="M5.8,7.1"/>
		<path class="st2" d="M11.4,11"/>
		<path class="st2" d="M4.6,8.3v3.2c0,0.2,0,0.4-0.1,0.5c-0.1,0.1-0.2,0.2-0.3,0.3c-0.1,0.1-0.3,0.1-0.4,0.2c-0.2,0-0.3,0-0.5,0
		c-0.1,0-0.2,0-0.3,0c-0.1,0-0.2,0-0.3-0.1c-0.1,0-0.2-0.1-0.3-0.1c-0.1,0-0.2-0.1-0.3-0.1l0.3-0.4c0,0,0.1,0.1,0.2,0.1
		c0.1,0,0.1,0.1,0.2,0.1c0.1,0,0.2,0,0.3,0.1c0.1,0,0.2,0,0.2,0c0.2,0,0.4,0,0.5-0.1C3.9,11.8,4,11.6,4,11.5V8.3L4.6,8.3L4.6,8.3z
		 M8,11.4c0,0.1,0,0.3-0.1,0.4c-0.1,0.1-0.1,0.3-0.3,0.4c-0.1,0.1-0.2,0.2-0.4,0.3c-0.2,0.1-0.3,0.1-0.6,0.1c-0.1,0-0.2,0-0.3,0
		c-0.1,0-0.2,0-0.3,0c-0.1,0-0.2-0.1-0.3-0.1c-0.1,0-0.2-0.1-0.2-0.1l0.1-0.5c0.1,0,0.1,0.1,0.2,0.1c0.1,0,0.2,0.1,0.2,0.1
		c0.1,0,0.2,0,0.3,0.1c0.1,0,0.2,0,0.2,0c0.2,0,0.4-0.1,0.5-0.2c0.1-0.1,0.2-0.3,0.2-0.5c0-0.1,0-0.2-0.1-0.3
		C7.1,11,7,10.9,6.9,10.8c-0.1-0.1-0.3-0.1-0.4-0.2c-0.1-0.1-0.3-0.2-0.4-0.3c-0.1-0.1-0.2-0.2-0.3-0.3C5.6,9.9,5.6,9.7,5.6,9.5
		c0-0.2,0-0.3,0.1-0.5C5.8,8.9,5.9,8.7,6,8.6c0.1-0.1,0.2-0.2,0.4-0.2c0.1-0.1,0.3-0.1,0.5-0.1c0.2,0,0.3,0,0.5,0
		c0.2,0,0.3,0.1,0.4,0.2c0,0,0,0.1-0.1,0.2L7.6,8.9c0,0,0,0.1-0.1,0.1c0,0,0,0.1,0,0.1c0,0,0,0-0.1,0c0,0-0.1,0-0.1-0.1
		c-0.1,0-0.1,0-0.2,0c-0.1,0-0.2,0-0.3,0c-0.1,0-0.1,0-0.2,0.1C6.5,9,6.5,9.1,6.4,9.1C6.4,9.2,6.3,9.2,6.3,9.3c0,0.1,0,0.1,0,0.2
		c0,0.1,0,0.3,0.1,0.4c0.1,0.1,0.2,0.2,0.3,0.2c0.1,0.1,0.3,0.1,0.4,0.2c0.1,0.1,0.3,0.1,0.4,0.2c0.1,0.1,0.2,0.2,0.3,0.3
		C7.9,11,8,11.2,8,11.4L8,11.4z M12,10.4c0,0.3,0,0.6-0.1,0.9c-0.1,0.3-0.2,0.5-0.4,0.7c-0.2,0.2-0.3,0.3-0.5,0.4
		c-0.2,0.1-0.4,0.1-0.7,0.1c-0.2,0-0.5,0-0.7-0.1c-0.2-0.1-0.4-0.2-0.5-0.4c-0.2-0.2-0.3-0.4-0.4-0.7c-0.1-0.3-0.1-0.6-0.1-0.9
		c0-0.3,0-0.6,0.1-0.9c0.1-0.3,0.2-0.5,0.4-0.7c0.2-0.2,0.3-0.3,0.5-0.4c0.2-0.1,0.4-0.1,0.7-0.1c0.2,0,0.5,0,0.7,0.1
		c0.2,0.1,0.4,0.2,0.5,0.4c0.2,0.2,0.3,0.4,0.4,0.7C11.9,9.8,12,10.1,12,10.4L12,10.4z M10.2,12c0.1,0,0.3,0,0.4-0.1
		c0.1-0.1,0.2-0.1,0.3-0.3c0.1-0.1,0.2-0.3,0.2-0.5c0.1-0.2,0.1-0.4,0.1-0.7c0-0.3,0-0.5-0.1-0.7c-0.1-0.2-0.1-0.4-0.2-0.5
		C10.9,9.1,10.8,9,10.7,9c-0.1-0.1-0.2-0.1-0.4-0.1c-0.1,0-0.3,0-0.4,0.1C9.8,9,9.7,9.1,9.6,9.2C9.5,9.4,9.4,9.5,9.3,9.7
		c-0.1,0.2-0.1,0.4-0.1,0.7c0,0.3,0,0.5,0.1,0.7c0.1,0.2,0.1,0.4,0.2,0.5c0.1,0.1,0.2,0.2,0.3,0.3C10,12,10.1,12,10.2,12L10.2,12z
		 M15.9,8.4v4.1h-0.7l-1.6-2.8v2.8h-0.7V8.4h0.7l1.6,2.8V8.4H15.9z M15.9,8.4"/>
	</g>
</svg>
