<svg xmlns="http://www.w3.org/2000/svg" xmlns:xlink="http://www.w3.org/1999/xlink" viewBox="0 0 764 571.8"><defs><style>.cls-1{fill:url(#未命名的渐变_60);filter:url(#luminosity-invert);}.cls-2{mask:url(#mask);}.cls-3{opacity:0.6;fill:url(#未命名的渐变_381);}</style><linearGradient id="未命名的渐变_60" x1="384.32" y1="316.73" x2="384.32" y2="571.8" gradientUnits="userSpaceOnUse"><stop offset="0" stop-opacity="0"/><stop offset="0.86" stop-opacity="0.64"/><stop offset="1"/></linearGradient><filter id="luminosity-invert" filterUnits="userSpaceOnUse" color-interpolation-filters="sRGB"><feColorMatrix values="-1 0 0 0 1 0 -1 0 0 1 0 0 -1 0 1 0 0 0 1 0"/></filter><mask id="mask" x="0" y="0" width="764" height="571.8" maskUnits="userSpaceOnUse"><path class="cls-1" d="M127,317.18l91.88,253.54c.37.31.77.61,1.18.91,1.9-13.36,72.92-24.45,164.25-24.45,91.7,0,162.91,11.18,164.27,24.61a15.9,15.9,0,0,0,1.19-1.15l91.85-253.46C452.08,316,281.69,317.47,127,317.18Z"/></mask><linearGradient id="未命名的渐变_381" y1="285.9" x2="764" y2="285.9" gradientUnits="userSpaceOnUse"><stop offset="0" stop-color="#0c5fb9"/><stop offset="0.07" stop-color="#0c60ba" stop-opacity="0.97"/><stop offset="0.14" stop-color="#0d61bc" stop-opacity="0.89"/><stop offset="0.23" stop-color="#0e64c1" stop-opacity="0.76"/><stop offset="0.32" stop-color="#1068c7" stop-opacity="0.57"/><stop offset="0.42" stop-color="#136cce" stop-opacity="0.34"/><stop offset="0.52" stop-color="#1672d7" stop-opacity="0.05"/><stop offset="0.53" stop-color="#1673d9" stop-opacity="0"/><stop offset="0.57" stop-color="#146fd2" stop-opacity="0.2"/><stop offset="0.61" stop-color="#126bcc" stop-opacity="0.41"/><stop offset="0.66" stop-color="#1067c6" stop-opacity="0.6"/><stop offset="0.71" stop-color="#0f64c1" stop-opacity="0.74"/><stop offset="0.76" stop-color="#0d62be" stop-opacity="0.86"/><stop offset="0.82" stop-color="#0d60bb" stop-opacity="0.94"/><stop offset="0.89" stop-color="#0c5fb9" stop-opacity="0.99"/><stop offset="1" stop-color="#0c5fb9"/></linearGradient></defs><title>l-back</title><g id="图层_2" data-name="图层 2"><g id="图层_1-2" data-name="图层 1"><g class="cls-2"><path class="cls-3" d="M0,1,764,0,548.59,571.8c-1.36-13.43-72.57-24.61-164.27-24.61-91.33,0-162.35,11.09-164.25,24.45Z"/></g></g></g></svg>