<svg xmlns="http://www.w3.org/2000/svg" xmlns:xlink="http://www.w3.org/1999/xlink" viewBox="0 0 330.09 255.52"><defs><style>.cls-1{fill:url(#未命名的渐变_9);}.cls-2{fill:url(#未命名的渐变_21);}.cls-3{fill:url(#未命名的渐变_272);}.cls-4{mask:url(#mask);}.cls-5{opacity:0.9;}.cls-6{clip-path:url(#clip-path);}.cls-7{fill:url(#未命名的渐变_272-3);}.cls-8{fill:url(#未命名的渐变_272-4);}.cls-9{fill:url(#未命名的渐变_272-5);}.cls-10{fill:url(#未命名的渐变_272-6);}</style><linearGradient id="未命名的渐变_9" x1="58.11" y1="130.37" x2="77.72" y2="130.37" gradientUnits="userSpaceOnUse"><stop offset="0"/><stop offset="0.53" stop-color="aqua" stop-opacity="0"/><stop offset="1" stop-opacity="0.74"/></linearGradient><linearGradient id="未命名的渐变_21" x1="65.58" y1="235.44" x2="65.58" y2="-1.79" gradientUnits="userSpaceOnUse"><stop offset="0" stop-opacity="0"/><stop offset="0.83"/></linearGradient><linearGradient id="未命名的渐变_272" y1="127.99" x2="330.09" y2="127.99" gradientUnits="userSpaceOnUse"><stop offset="0" stop-color="#0c0234"/><stop offset="0.53" stop-color="#0c0234" stop-opacity="0"/><stop offset="1" stop-color="#0c0234" stop-opacity="0.74"/></linearGradient><mask id="mask" x="0" y="-24.21" width="330.09" height="309.15" maskUnits="userSpaceOnUse"><rect class="cls-1" x="58.11" y="-24.21" width="19.61" height="309.15"/><rect class="cls-2" x="54.37" y="-1.79" width="22.42" height="237.23"/></mask><clipPath id="clip-path"><path class="cls-3" d="M0,.75V253.85c.26.48.54,1,.85,1.42C7.37,235,78.39,219.09,165,219.09c87,0,158.24,16.07,164.27,36.43a16.72,16.72,0,0,0,.77-1.79V.75C208.44,0,99.19.93,0,.75Z"/></clipPath><linearGradient id="未命名的渐变_272-3" y1="127.76" x2="0" y2="127.76" xlink:href="#未命名的渐变_272"/><linearGradient id="未命名的渐变_272-4" y1="127.76" x2="175.69" y2="127.76" xlink:href="#未命名的渐变_272"/><linearGradient id="未命名的渐变_272-5" x1="175.69" y1="127.76" x2="330.09" y2="127.76" xlink:href="#未命名的渐变_272"/><linearGradient id="未命名的渐变_272-6" x1="330.09" y1="127.76" x2="330.09" y2="127.76" xlink:href="#未命名的渐变_272"/></defs><title>l-single</title><g id="图层_2" data-name="图层 2"><g id="图层_1-2" data-name="图层 1"><g class="cls-4"><g class="cls-5"><path class="cls-3" d="M0,.75V253.85c.26.48.54,1,.85,1.42C7.37,235,78.39,219.09,165,219.09c87,0,158.24,16.07,164.27,36.43a16.72,16.72,0,0,0,.77-1.79V.75C208.44,0,99.19.93,0,.75Z"/><g class="cls-6"><path class="cls-7" d="M0,0V0Z"/><rect class="cls-8" width="175.69" height="255.52"/><rect class="cls-9" x="175.69" width="154.4" height="255.52"/><path class="cls-10" d="M330.09,255.52v0Z"/></g></g></g></g></g></svg>