<svg x="0px" y="0px" viewBox="0 0 14 14" style="enable-background:new 0 0 14 14;" xml:space="preserve">
	<path class="st0" d="M13.1,6.4"/>
	<path class="st1" d="M2,5.3H0.5C0.2,5.3,0,5.4,0,5.7v6.5c0,0.2,0.2,0.4,0.5,0.4H2c0.3,0,0.5-0.2,0.5-0.4V5.7C2.5,5.4,2.3,5.3,2,5.3z
	 M1.3,12c-0.3,0-0.6-0.3-0.6-0.6s0.3-0.6,0.6-0.6s0.6,0.3,0.6,0.6S1.6,12,1.3,12z"/>
	<path class="st1" d="M1.1,13.5"/>
	<path class="st1" d="M12.9,4.9c-0.1,0-0.2,0-0.3,0c-0.2,0-0.6-0.1-1.3-0.1c-0.6,0-1.2,0-1.9,0v0c-0.5,0-1,0-1.6,0
	c0.4-1.2,0.4-1.4,0.4-2.5C8.3,1,7.4,0,6.9,0C6.6,0,6.4,0.3,6.4,0.5c0,1.6-0.7,3.6-2.9,4.5c0,0-0.1,0-0.1,0C3.1,5.1,3,5.3,3,5.6
	l0,6.6c0,0.4,0.4,0.4,0.4,0.4c0.1,0,0.2,0.1,2.2,0.5c0,0,1.3,0.3,2.7,0.3h1.1h1.5c0.8,0,0.9-0.3,1.2-0.8c0,0,0.1-0.2,0.2-0.4
	c0.1-0.2,0.1-0.4,0-0.7c0.5-0.3,0.7-0.7,0.8-1c0.2-0.5,0.1-0.8,0-1.1c0.3-0.2,0.5-0.6,0.6-1.1c0.1-0.3,0-0.7-0.2-0.9
	C13.9,7.2,14,6.9,14,6.6l0-0.1c0-0.1,0-0.1,0-0.2C14,5.8,13.8,5.2,12.9,4.9z"/>
	<path class="st1" d="M-22.8,13.2"/>
	<path class="st0" d="M74.9,18.1"/>
</svg>
