<svg width="16px" height="16px" viewBox="0 0 16 16">
  <g id="信息标准" stroke="none" stroke-width="1" fill-rule="evenodd">
    <g id="信息标准v4" transform="translate(-884.000000, -262.000000)" fill-rule="nonzero">
      <g id="二级导航" transform="translate(0.000000, 240.000000)">
        <g id="编组-9" transform="translate(707.000000, 19.000000)">
          <g id="编组-7" transform="translate(177.000000, 0.000000)">
            <g id="icon-rgb_指标数据处理-39" transform="translate(0.000000, 3.000000)">
              <path d="M7.64594916,3.06063445 C7.52445838,3.06063445 7.42597065,2.96214671 7.42597065,2.84065593 L7.42597065,2.1073942 C7.42597065,1.98590342 7.52445838,1.88741568 7.64594916,1.88741568 C7.76743994,1.88741568 7.86592768,1.98590342 7.86592768,2.1073942 L7.86592768,2.84065593 C7.86592768,2.96214671 7.76743994,3.06063445 7.64594916,3.06063445 L7.64594916,3.06063445 Z M3.06306337,8.24332833 L2.32980164,8.24332833 C2.20831086,8.24332833 2.10982312,8.14484059 2.10982312,8.02334981 C2.10982312,7.90185903 2.20831086,7.80337129 2.32980164,7.80337129 L3.06306337,7.80337129 C3.18455415,7.80337129 3.28304189,7.90185903 3.28304189,8.02334981 C3.28304189,8.14484059 3.18455415,8.24332833 3.06306337,8.24332833 L3.06306337,8.24332833 Z M13.0354228,8.24332833 L12.3021611,8.24332833 C12.1806703,8.24332833 12.0821826,8.14484059 12.0821826,8.02334981 C12.0821826,7.90185903 12.1806703,7.80337129 12.3021611,7.80337129 L13.0354228,7.80337129 C13.1569136,7.80337129 13.2554014,7.90185903 13.2554014,8.02334981 C13.2554014,8.14484059 13.1569136,8.24332833 13.0354228,8.24332833 L13.0354228,8.24332833 Z M9.78560687,7.79310562 L14.1851772,3.37593698 C14.4037338,3.14473003 14.3981439,2.78144663 14.1725773,2.55707346 C13.9470106,2.33270029 13.5837027,2.3290377 13.3536584,2.54881775 L8.99661726,6.9161246 C8.01108188,6.25490464 6.6876144,6.42968989 5.90752368,7.3240893 C5.12743296,8.2184887 5.13412345,9.55343114 5.92313989,10.4399665 C6.71215633,11.3265018 8.03730927,11.4880126 9.01616748,10.8169475 C9.99502569,10.1458824 10.3221652,8.85162742 9.77974079,7.79603867 L9.78560687,7.79310562 Z M7.69581096,10.0456856 C7.22128826,10.0456856 6.79349012,9.75984006 6.61189815,9.32143825 C6.43030618,8.88303644 6.5306818,8.37841413 6.86622002,8.04287592 C7.20175824,7.7073377 7.70638055,7.60696209 8.14478235,7.78855407 C8.58318416,7.97014605 8.86902973,8.39794419 8.86902972,8.87246689 C8.86902971,9.52041771 8.34376178,10.0456856 7.69581096,10.0456856 Z M15.9772689,11.1881074 C15.9940706,11.0544067 15.9486744,10.9203796 15.8540809,10.8244096 L14.2980995,9.26842822 C14.1247508,9.10690009 13.8546171,9.11166626 13.6870744,9.279209 C13.5195316,9.44675173 13.5147655,9.71688537 13.6762936,9.89023416 L14.5826051,10.7965456 L10.4088793,10.7965456 C10.1658978,10.7965456 9.96892231,10.9935211 9.96892231,11.2365027 C9.96892231,11.4794842 10.1658978,11.6764597 10.4088793,11.6764597 L15.5417114,11.6764597 C15.784693,11.6764597 15.9816685,11.4794842 15.9816685,11.2365027 C15.9810946,11.2203022 15.9796259,11.2041458 15.9772689,11.1881074 L15.9772689,11.1881074 Z" id="形状"></path>
              <path d="M14.1485141,7.68018332 L14.1485141,7.68898246 C14.1453842,7.92519232 14.2364266,8.15292896 14.4015295,8.32188431 C14.5666325,8.49083966 14.792209,8.58710967 15.0284282,8.58942785 L15.263072,8.58942785 C15.2996148,8.2877302 15.3177355,7.98408575 15.3173333,7.68018332 C15.3181801,6.82649402 15.1754013,5.97874514 14.8949746,5.17242822 C14.7805454,4.87801005 14.4535342,4.72706448 14.1552406,4.83097336 C13.8569471,4.93488224 13.6944917,5.25633072 13.7877494,5.55812388 C14.0259685,6.24028894 14.1479198,6.9576204 14.1485141,7.68018332 L14.1485141,7.68018332 Z M7.69581096,1.22748013 C9.03737647,1.22338488 10.3464009,1.64040559 11.4383788,2.41976369 C11.7020138,2.60807439 12.0683882,2.54701199 12.2566989,2.283377 C12.4450096,2.01974202 12.3839472,1.65336764 12.1203122,1.46505693 C8.75322381,-0.97751481 4.04984595,-0.271117527 1.54882021,3.05278249 C-0.952205528,6.3766825 -0.328089356,11.091684 2.9516076,13.6504003 C3.20511836,13.8528849 3.57477567,13.8115201 3.7772603,13.5580093 C3.97974493,13.3044985 3.93838007,12.9348412 3.68486931,12.7323566 C1.53661865,11.025513 0.702678894,8.1468081 1.60592235,5.55596902 C2.5091658,2.96512994 4.95203726,1.22881871 7.69581096,1.22748013 L7.69581096,1.22748013 Z M15.5417114,12.8056828 L10.4088793,12.8056828 C10.2234752,12.8368141 10.0691261,12.9652234 10.0047811,13.1418687 C9.94043601,13.3185141 9.97603282,13.5161133 10.0979764,13.6591994 L11.6539578,15.2151808 C11.8260697,15.3876977 12.1054466,15.388026 12.2779635,15.2159141 C12.4504804,15.0438021 12.4508087,14.7644253 12.2786967,14.5919083 L11.3723853,13.6855969 L15.546111,13.6855969 C15.7890925,13.6855969 15.986068,13.4886214 15.986068,13.2456398 C15.986068,13.0026583 15.7890925,12.8056828 15.546111,12.8056828 L15.5417114,12.8056828 Z" id="形状"></path>
            </g>
          </g>
        </g>
      </g>
    </g>
  </g>
</svg>