<?xml version="1.0" encoding="utf-8"?>
<!-- Generator: Adobe Illustrator 21.0.0, SVG Export Plug-In . SVG Version: 6.00 Build 0)  -->
<svg version="1.1" id="图层_1" xmlns="http://www.w3.org/2000/svg" xmlns:xlink="http://www.w3.org/1999/xlink" x="0px" y="0px"
	 viewBox="0 0 28 28" style="enable-background:new 0 0 28 28;" xml:space="preserve">
<style type="text/css">
	.st0{fill-rule:evenodd;clip-rule:evenodd;fill:#FFD82B;}
	.st1{fill-rule:evenodd;clip-rule:evenodd;fill:#FF8B2B;}
	.st2{fill-rule:evenodd;clip-rule:evenodd;fill:#E27329;}
	.st3{opacity:0.2;fill-rule:evenodd;clip-rule:evenodd;fill:#F6BB00;}
	.st4{opacity:0.25;fill-rule:evenodd;clip-rule:evenodd;fill:#FFFFFF;}
</style>
<g>
	<polygon class="st0" points="14,0 26.1,7 26.1,21 14,28 1.9,21 1.9,7 	"/>
	<polygon class="st1" points="14,3.2 23.6,8.7 23.6,19.3 14,24.8 4.3,19.3 4.3,8.7 	"/>
	<polygon class="st2" points="23.6,10 14,4.5 4.3,10 4.3,8.7 14,3.2 23.6,8.7 	"/>
	<polygon class="st3" points="26.1,7 26.1,21 14,28 1.9,21 	"/>
	<polygon class="st3" points="1.9,7 1.9,21 14,28 26.1,21 	"/>
	<polygon class="st4" points="1.9,7 5.6,4.9 17.7,11.8 14,14 	"/>
</g>
</svg>
