<?xml version="1.0" encoding="utf-8"?>
<!-- Generator: Adobe Illustrator 21.0.0, SVG Export Plug-In . SVG Version: 6.00 Build 0)  -->
<svg version="1.1" id="图层_1" xmlns="http://www.w3.org/2000/svg" xmlns:xlink="http://www.w3.org/1999/xlink" x="0px" y="0px"
	 viewBox="0 0 94 20" style="enable-background:new 0 0 94 20;" xml:space="preserve">
<style type="text/css">
	.st0{opacity:0.9;fill:#D84040;}
</style>
<g>
	<polygon class="st0" points="0,0 20,20 34,20 14,0 	"/>
	<polygon class="st0" points="34,0 14,20 0,20 20,0 	"/>
	<polygon class="st0" points="20,0 40,20 54,20 34,0 	"/>
	<polygon class="st0" points="54,0 34,20 20,20 40,0 	"/>
	<polygon class="st0" points="40,0 60,20 74,20 54,0 	"/>
	<polygon class="st0" points="74,0 54,20 40,20 60,0 	"/>
	<polygon class="st0" points="60,0 80,20 94,20 74,0 	"/>
	<polygon class="st0" points="94,0 74,20 60,20 80,0 	"/>
</g>
</svg>
