<svg x="0px" y="0px" viewBox="0 0 80 90" style="enable-background:new 0 0 80 90;" xml:space="preserve">
	<path class="st0" d="M40,9.9c2.6,0,4.7-2.3,4.7-4.9C44.7,2.1,42.6,0,40,0c-2.6,0-4.7,2.3-4.7,4.9C35.3,7.8,37.4,9.9,40,9.9z"/>
	<path class="st0" d="M40,29.3c3.1,0,5.4-2.3,5.4-5.4c0-3.1-2.6-5.4-5.4-5.4s-5.4,2.6-5.4,5.4C34.6,27,37.1,29.3,40,29.3z"/>
	<path class="st0" d="M40,50.1c3.4,0,6.2-2.9,6.2-6.5s-2.6-6.5-6.2-6.5c-3.4,0-6.2,2.9-6.2,6.5S36.6,50.1,40,50.1z"/>
	<path class="st0" d="M55.8,18.4c2.9,0,5.2-2.3,5.2-5.2S58.7,8,55.8,8c-2.9,0-4.9,2.3-5.2,5.2C50.6,16.1,53,18.4,55.8,18.4z"/>
	<path class="st0" d="M72.7,29.6c3.1,0,5.7-2.6,5.7-5.7c0-3.1-2.6-5.7-5.7-5.7S67,20.7,67,23.9C67,27,69.6,29.6,72.7,29.6z"/>
	<path class="st0" d="M55.8,38.6c3.1,0,5.7-2.6,5.7-5.7c0-3.1-2.6-5.7-5.7-5.7c-3.1,0-5.4,2.6-5.7,5.7
		C50.1,36.1,52.7,38.6,55.8,38.6z"/>
	<path class="st0" d="M72.7,49.5c3.4,0,6-2.9,6-6.2c0-3.4-2.6-6.2-6-6.2s-6,2.9-6,6.2S69.3,49.5,72.7,49.5z"/>
	<path class="st0" d="M72.7,55.2c-4.1,0-7.3,3.4-7.3,7.5c0,4.1,3.1,7.5,7.3,7.5c3.9,0,7.3-3.4,7.3-7.5
		C79.9,58.6,76.8,55.2,72.7,55.2z"/>
	<path class="st0" d="M56.1,66.4c-3.1,0-6,2.6-6,6.2c0,3.4,2.6,6.2,6,6.2s6-2.9,6-6.2S59.5,66.4,56.1,66.4z"/>
	<path class="st0" d="M24.2,18.4c2.9,0,5.2-2.3,5.2-5.2C29.1,10.4,26.8,8,24.2,8c-2.9,0-5.2,2.3-5.2,5.2S21.3,18.4,24.2,18.4z"/>
	<path class="st0" d="M7.3,29.6c3.1,0,5.7-2.6,5.7-5.7c0-3.1-2.6-5.7-5.7-5.7s-5.7,2.6-5.7,5.7C1.6,27,4.2,29.6,7.3,29.6z"/>
	<path class="st0" d="M24.2,38.6c3.1,0,5.7-2.6,5.7-5.7c-0.3-3.1-2.6-5.7-5.7-5.7c-3.1,0-5.7,2.6-5.7,5.7
		C18.5,36.1,21.1,38.6,24.2,38.6z"/>
	<path class="st0" d="M7.3,49.5c3.4,0,6-2.9,6-6.2s-2.6-6.2-6-6.2s-6,2.9-6,6.2C1.4,46.7,3.9,49.5,7.3,49.5z"/>
	<path class="st0" d="M7.3,55.2c-4.1,0-7.3,3.4-7.3,7.5c0,4.1,3.4,7.5,7.3,7.5c4.1,0,7.3-3.4,7.3-7.5C14.6,58.6,11.2,55.2,7.3,55.2z
		"/>
	<path class="st0" d="M23.7,66.4c-3.4,0-6,2.9-6,6.2s2.6,6.2,6,6.2c3.4,0,6-2.9,6-6.2C29.9,69,27,66.4,23.7,66.4z"/>
	<path class="st0" d="M40,62.2c-4.1-7.5-10.4-13-18.4-16.9l-3.6,7C35.1,61.2,40,73.7,32.5,90h1.8h11.4h1.8
		C40,73.7,44.9,61.2,62,52.4l-3.6-7C50.4,49.3,44.1,54.7,40,62.2z"/>
</svg>
