<?xml version="1.0" encoding="utf-8"?>
<!-- Generator: Adobe Illustrator 21.0.0, SVG Export Plug-In . SVG Version: 6.00 Build 0)  -->
<svg version="1.1" id="图层_1" xmlns="http://www.w3.org/2000/svg" xmlns:xlink="http://www.w3.org/1999/xlink" x="0px" y="0px"
	 viewBox="0 0 18 18" style="enable-background:new 0 0 18 18;" xml:space="preserve">
<style type="text/css">
	.st0{fill:#39259E;}
	.st1{fill:#231968;}
	.st2{fill:#FFFFFF;}
</style>
<g>
	<path class="st0" d="M2.6,0C1.8,0,1.1,0.6,1.1,1.4v15.2c0,0.8,0.6,1.4,1.4,1.4h12.9c0.8,0,1.4-0.6,1.4-1.4V5.7L11.6,0H2.6z M2.6,0"
		/>
	<path class="st1" d="M16.9,5.7V6h-3.6c0,0-1.8-0.4-1.7-1.9c0,0,0.1,1.6,1.7,1.6H16.9z M16.9,5.7"/>
	<path class="st2" d="M11.6,0v4.1c0,0.5,0.3,1.6,1.7,1.6h3.6L11.6,0z"/>
	<path class="st2" d="M5.8,7.1"/>
	<g>
		<polygon class="st2" points="3.6,12.5 5,10.3 3.7,8.4 4.7,8.4 5.5,9.7 6.3,8.4 7.3,8.4 6,10.4 7.4,12.5 6.4,12.5 5.5,11 4.6,12.5 
					"/>
		<polygon class="st2" points="7.8,12.5 7.8,8.4 8.6,8.4 8.6,11.8 10.7,11.8 10.7,12.5 		"/>
		<path class="st2" d="M11.1,11.1l0.8-0.1c0,0.2,0.1,0.4,0.3,0.6c0.2,0.1,0.4,0.2,0.6,0.2c0.2,0,0.4,0,0.6-0.2
			c0.1-0.1,0.2-0.2,0.2-0.4c0-0.1,0-0.2-0.1-0.2c-0.1-0.1-0.2-0.1-0.3-0.2c-0.1,0-0.3-0.1-0.7-0.2c-0.3-0.1-0.7-0.2-0.9-0.4
			c-0.2-0.2-0.4-0.5-0.4-0.8c0-0.2,0.1-0.4,0.2-0.6c0.1-0.2,0.3-0.3,0.5-0.4c0.3-0.1,0.5-0.1,0.8-0.1c0.4,0,0.8,0.1,1.2,0.3
			c0.3,0.2,0.4,0.6,0.4,0.9l-0.8,0c0-0.2-0.1-0.4-0.3-0.5C13.1,9,12.9,9,12.7,9c-0.2,0-0.4,0-0.6,0.1C12.1,9.2,12,9.3,12,9.4
			c0,0.1,0,0.2,0.1,0.2c0.2,0.1,0.5,0.2,0.8,0.3c0.3,0.1,0.6,0.2,0.9,0.3c0.2,0.1,0.3,0.2,0.5,0.4c0.2,0.4,0.2,0.9,0,1.3
			c-0.1,0.2-0.3,0.4-0.6,0.5c-0.3,0.1-0.6,0.2-0.9,0.1c-0.4,0-0.8-0.1-1.2-0.4C11.3,11.9,11.1,11.5,11.1,11.1L11.1,11.1z"/>
	</g>
	<path class="st2" d="M11.4,11"/>
</g>
</svg>
