<?xml version="1.0" encoding="utf-8"?>
<!-- Generator: Adobe Illustrator 21.0.0, SVG Export Plug-In . SVG Version: 6.00 Build 0)  -->
<svg version="1.1" id="图层_1" xmlns="http://www.w3.org/2000/svg" xmlns:xlink="http://www.w3.org/1999/xlink" x="0px" y="0px"
	 viewBox="0 0 18 18" style="enable-background:new 0 0 18 18;" xml:space="preserve">
<style type="text/css">
	.st0{fill:#444F84;}
	.st1{fill:#29314F;}
	.st2{fill:#FFFFFF;}
</style>
<g>
	<path class="st0" d="M2.6,0C1.8,0,1.1,0.6,1.1,1.4v15.2c0,0.8,0.6,1.4,1.4,1.4h12.9c0.8,0,1.4-0.6,1.4-1.4V5.7L11.6,0H2.6z M2.6,0"
		/>
	<path class="st1" d="M16.9,5.7V6h-3.6c0,0-1.8-0.4-1.7-1.9c0,0,0.1,1.6,1.7,1.6H16.9z M16.9,5.7"/>
	<path class="st2" d="M11.6,0v4.1c0,0.5,0.3,1.6,1.7,1.6h3.6L11.6,0z"/>
	<path class="st2" d="M5.8,7.1"/>
	<path class="st2" d="M11.4,11"/>
	<path class="st2" d="M5.2,10.5l1.1,2H5.5l-0.7-1.6H4.7L4,12.5H3.2l1.1-2L3.2,8.3h0.8L4.7,10h0.1l0.8-1.7h0.8L5.2,10.5z M10.5,8.3
		h0.7v4.2h-0.7V9.6L9.5,12H8.9L8,9.6v2.9H7.3V8.3H8l1.2,2.9L10.5,8.3z M12.9,8.3V12h1.9v0.5h-2.6V8.3H12.9z M12.9,8.3"/>
</g>
</svg>
