<?xml version="1.0" encoding="utf-8"?>
<!-- Generator: Adobe Illustrator 23.0.3, SVG Export Plug-In . SVG Version: 6.00 Build 0)  -->
<svg version="1.1" id="图层_1" xmlns="http://www.w3.org/2000/svg" xmlns:xlink="http://www.w3.org/1999/xlink" x="0px" y="0px"
	 viewBox="0 0 40 40" style="enable-background:new 0 0 40 40;" xml:space="preserve">
<style type="text/css">
	.st0{fill:url(#SVGID_1_);}
	.st1{fill:url(#SVGID_2_);}
	.st2{fill:#49B1EA;}
	.st3{fill:url(#SVGID_3_);}
	.st4{fill:url(#SVGID_4_);}
	.st5{fill:#304EAB;}
	.st6{fill:#226DC1;}
	.st7{fill:#3AD4DC;}
	.st8{opacity:0.8;}
	.st9{fill:#E3F8FF;}
</style>
<g>
	<g>
		<g>
			<g>
				<linearGradient id="SVGID_1_" gradientUnits="userSpaceOnUse" x1="20.472" y1="36.7472" x2="33.7625" y2="13.7274">
					<stop  offset="0" style="stop-color:#2E5FCE"/>
					<stop  offset="0.3009" style="stop-color:#3063D1"/>
					<stop  offset="0.6127" style="stop-color:#3770D9"/>
					<stop  offset="0.9284" style="stop-color:#4284E6"/>
					<stop  offset="1" style="stop-color:#458AEA"/>
				</linearGradient>
				<polygon class="st0" points="34.12,13.93 34.08,28.98 20.11,36.54 20.16,21.49 				"/>
				<linearGradient id="SVGID_2_" gradientUnits="userSpaceOnUse" x1="2.9618" y1="19.3788" x2="23.2562" y2="31.0958">
					<stop  offset="0" style="stop-color:#4BA1E8"/>
					<stop  offset="1" style="stop-color:#458AEA"/>
				</linearGradient>
				<polygon class="st1" points="20.16,21.49 20.11,36.54 6.06,28.98 6.1,13.93 				"/>
				<polygon class="st2" points="34.12,13.93 20.16,21.49 6.1,13.93 20.07,6.38 				"/>
			</g>
			<g>
				<g>
					<linearGradient id="SVGID_3_" gradientUnits="userSpaceOnUse" x1="23.4089" y1="22.1408" x2="30.8256" y2="9.2947">
						<stop  offset="0" style="stop-color:#2E5FCE"/>
						<stop  offset="0.3009" style="stop-color:#3063D1"/>
						<stop  offset="0.6127" style="stop-color:#3770D9"/>
						<stop  offset="0.9284" style="stop-color:#4284E6"/>
						<stop  offset="1" style="stop-color:#458AEA"/>
					</linearGradient>
					<polygon class="st3" points="34.1,11.19 34.1,12.69 20.13,20.25 20.14,18.75 					"/>
				</g>
				<g>
					<linearGradient id="SVGID_4_" gradientUnits="userSpaceOnUse" x1="5.878" y1="11.543" x2="20.34" y2="19.8926">
						<stop  offset="0" style="stop-color:#4BA1E8"/>
						<stop  offset="1" style="stop-color:#458AEA"/>
					</linearGradient>
					<polygon class="st4" points="20.14,18.75 20.13,20.25 6.08,12.69 6.08,11.19 					"/>
				</g>
				<g>
					<polygon class="st2" points="34.1,11.19 20.14,18.75 6.08,11.19 20.05,3.63 					"/>
				</g>
			</g>
			<g>
				<g>
					<g>
						<g>
							<g>
								<g>
									<polygon class="st5" points="31.97,11.26 20.66,17.83 8.45,10.78 19.75,4.21 									"/>
								</g>
							</g>
						</g>
						<g>
							<g>
								<g>
									<polygon class="st6" points="29.14,11.2 20.56,16.19 11.28,10.83 19.86,5.85 									"/>
								</g>
							</g>
						</g>
						<g>
							<g>
								<g>
									<polygon class="st7" points="26.29,11.15 20.44,14.55 14.13,10.9 19.98,7.5 									"/>
								</g>
							</g>
						</g>
					</g>
				</g>
			</g>
		</g>
		<g>
			<g class="st8">
				<path class="st9" d="M29.24,24.39c0,0.93-0.7,2.06-1.57,2.53c-0.37,0.2-0.71,0.25-0.98,0.16c-0.1-0.03-0.19-0.08-0.26-0.14
					c-0.21-0.17-0.34-0.47-0.34-0.86c0-0.93,0.7-2.07,1.57-2.53c0.37-0.2,0.71-0.25,0.98-0.16l0,0c0.1,0.03,0.18,0.08,0.26,0.14
					C29.11,23.7,29.23,23.99,29.24,24.39z"/>
			</g>
		</g>
		<g>
			<g class="st8">
				<path class="st9" d="M14.34,26.2c0,0.38-0.12,0.67-0.33,0.85c-0.08,0.07-0.18,0.13-0.29,0.16c-0.27,0.08-0.6,0.03-0.96-0.16
					c-0.87-0.47-1.57-1.6-1.57-2.53c0-0.38,0.12-0.67,0.33-0.85c0.08-0.07,0.18-0.12,0.29-0.16c0.27-0.08,0.6-0.03,0.97,0.16
					C13.64,24.14,14.34,25.27,14.34,26.2z"/>
			</g>
		</g>
	</g>
</g>
</svg>
