<?xml version="1.0" encoding="utf-8"?>
<!-- Generator: Adobe Illustrator 23.0.3, SVG Export Plug-In . SVG Version: 6.00 Build 0)  -->
<svg version="1.1" id="图层_1" xmlns="http://www.w3.org/2000/svg" xmlns:xlink="http://www.w3.org/1999/xlink" x="0px" y="0px"
	 viewBox="0 0 190 85" style="enable-background:new 0 0 190 85;" xml:space="preserve">
<style type="text/css">
	.st0{opacity:0.2;fill:#3F64D1;}
	.st1{fill:#3F64D1;}
	.st2{opacity:0.4;}
</style>
<polygon class="st0" points="0.5,77.43 0.5,7.97 5.27,2.5 189.5,2.5 189.5,83.5 5.16,83.5 "/>
<polygon class="st1" points="37,3 5,3 7,0 35,0 "/>
<polygon class="st1" points="56,3 43,3 44,1 55,1 "/>
<polygon class="st1" points="20,85 9,85 8,83 21,83 "/>
<g class="st2">
	<path class="st1" d="M188.5,3.5v79H5.66L1.5,77.09V8.35L5.73,3.5H188.5 M189.5,2.5H5.27L0.5,7.97v69.46l4.66,6.07H189.5V2.5
		L189.5,2.5z"/>
</g>
</svg>
