<?xml version="1.0" encoding="utf-8"?>
<!-- Generator: Adobe Illustrator 23.0.3, SVG Export Plug-In . SVG Version: 6.00 Build 0)  -->
<svg version="1.1" id="图层_1" xmlns="http://www.w3.org/2000/svg" xmlns:xlink="http://www.w3.org/1999/xlink" x="0px" y="0px"
	 viewBox="0 0 1920 55" style="enable-background:new 0 0 1920 55;" xml:space="preserve">
<style type="text/css">
	.st0{opacity:0.6;fill:#001BEA;}
	.st1{opacity:0.2;}
	.st2{fill:#001BEA;}
	.st3{opacity:0.6;}
	.st4{opacity:0.2;fill:#001BEA;stroke:#001BEA;stroke-miterlimit:10;}
	.st5{opacity:0.6;fill:none;stroke:#001BEA;stroke-miterlimit:10;}
	.st6{fill:#7EFAFC;}
</style>
<g>
	<g>
		<rect x="55" y="26" class="st0" width="664.5" height="1"/>
		<g class="st1">
			<polygon class="st2" points="0.5,32.5 0.5,28.21 6.21,22.5 49.84,22.5 55.44,26.5 7.69,26.5 4.69,32.5 			"/>
			<path class="st2" d="M49.68,23l4.2,3H8H7.38l-0.28,0.55L4.38,32H1v-3.59L6.41,23H49.68 M50,22H6l-6,6v5h5l3-6h49L50,22L50,22z"/>
		</g>
		<g class="st3">
			<path class="st2" d="M49.68,23l4.2,3H8l-0.89,0.55L4.38,32H1v-3.59L6.41,23H49.68 M50,22H6l-6,6v5h5l3-6h49L50,22L50,22z"/>
		</g>
	</g>
	<g>
		<polygon class="st4" points="706,0.5 733,51.5 751,51.5 756,46.5 1165,46.5 1169,51.5 1187,51.5 1214,0.5 		"/>
		<polygon class="st0" points="757.5,51 754.5,55 1165.5,55 1162.5,51 		"/>
		<polygon class="st5" points="706,0.5 733,51.5 751,51.5 756,46.5 1165,46.5 1169,51.5 1187,51.5 1214,0.5 		"/>
	</g>
	<g>
		<rect x="1200.5" y="26" transform="matrix(-1 -4.489710e-11 4.489710e-11 -1 3065.5 53)" class="st0" width="664.5" height="1"/>
		<g class="st1">
			<polygon class="st2" points="1915.31,32.5 1912.31,26.5 1864.56,26.5 1870.16,22.5 1913.79,22.5 1919.5,28.21 1919.5,32.5 			"/>
			<path class="st2" d="M1913.59,23l5.41,5.41V32h-3.38l-2.72-5.45l-0.28-0.55H1912h-45.88l4.2-3H1913.59 M1914,22h-44l-7,5h49l3,6
				h5v-5L1914,22L1914,22z"/>
		</g>
		<g class="st3">
			<path class="st2" d="M1913.59,23l5.41,5.41V32h-3.38l-2.72-5.45L1912,26h-45.88l4.2-3H1913.59 M1914,22h-44l-7,5h49l3,6h5v-5
				L1914,22L1914,22z"/>
		</g>
	</g>
	<g>
		<path class="st6" d="M855.38,19.76h-1.7v-1.03h5.02v-3.05h2.74v3.05h5.02l-0.65,1.03h-4.37v3.84h-2.74v-3.84h-0.72l-0.98,3.48
			h-2.59L855.38,19.76z M865.94,30.32l-5.62-1.34l-5.76,1.44l-0.12-1.58l2.64-0.62l-2.64-0.62l0.74-2.21h-1.51v-1.22h1.94l0.29-0.82
			h2.74l-0.29,0.82h8.3l-0.65,1.22h-0.62v2.28l-1.82,0.48l2.38,0.58V30.32z M857.98,18.32h-2.71l-0.65-2.28h2.66L857.98,18.32z
			 M862.7,26.84v-1.46h-4.78l-0.48,1.27l3,0.74L862.7,26.84z M864.86,18.32h-2.66l0.6-2.28h2.71L864.86,18.32z M865.9,23.24h-2.88
			l-0.77-2.88h2.66L865.9,23.24z M870.14,15.54L869.47,17h4.85l-0.55,1.1h-0.58v3.67l-1.61,3.26l2.57,5.14h-3l-1.01-2.18l-1.06,2.18
			h-2.98l2.47-5.26l-2.52-5.04h2.95l1.01,2.02l0.34-0.77V18.1h-4.34l1.32-2.57H870.14z"/>
		<path class="st6" d="M880.08,29.31V25.3l-1.8,0.5v-1.22l1.8-0.53v-5.14h-1.68v-1.13h1.68v-2.28h2.74v2.28h1.56l-0.5,1.13h-1.06
			v4.42l1.44-0.43v1.18l-1.44,0.5v5.81h-3.86l-0.55-1.08H880.08z M885.48,15.51h12.22v4.27h-9.62v4.44h-0.05l-1.46,6.14h-2.57
			l1.49-6.25V15.51z M888.07,16.64v2.02h6.96v-2.85l-0.86,0.83H888.07z M888.6,24.42h3.38v-1.73h-3.38v-1.13h3.38v-1.13h2.69v1.13
			h3.02l-0.53,1.13h-2.5v1.73h3.02v5.98h-9.1V24.42z M891.26,25.5v3.82h3.77V24.7l-0.86,0.79H891.26z"/>
		<path class="st6" d="M921.55,26.02h-8.14v4.32h-2.86v-4.32h-8.11v-7.99h8.11v-2.42h2.86v2.42h5.4l-0.67,1.13h-4.73v5.74h5.4v-6.86
			h2.74V26.02z M910.56,19.16h-5.38v5.74h5.38V19.16z"/>
		<path class="st6" d="M928.75,30.13h-2.88l1.37-13.46h2.81L928.75,30.13z M941.33,30.13h-10.2V15.8h3.14v13.3h7.9L941.33,30.13z
			 M937.73,28.02l-1.3-11.38h2.81l1.37,11.38H937.73z M943.22,30.13l-1.3-13.46h2.83l1.34,13.46H943.22z"/>
		<path class="st6" d="M969.19,16.78h-1.68v13.56h-5.28l-0.6-1.22h2.95V16.78h-14.4v-1.18h19.61L969.19,16.78z M962.11,27.82h-10.32
			v-9.22h10.32V27.82z M958.82,19.64h-4.3v7.15h4.85v-8.14L958.82,19.64z"/>
		<path class="st6" d="M981.53,26.65h-2.11l-0.31-0.82v4.51h-2.66v-4.01l-0.22,0.43h-2.62l4.39-8.42h-3.67v-1.13h2.16v-1.61h2.64
			v1.61h2.23l-2.16,4.08L981.53,26.65z M990.7,29.12h3.67l-0.67,1.13h-5.86v-4.3l-2.98,4.3h-3.05l4.3-6.34v-5.23h2.66v5.9
			l-0.58,0.84h2.5V29.12z M992.86,16.04v8.78h-2.78v-8.62l-0.6,0.96h-4.48v7.66h-2.74v-8.78H992.86z"/>
		<path class="st6" d="M999.1,22.26h-1.85l2.64-6.58h2.86l-2.11,5.21h1.25v9.46h-2.78V22.26z M1009.68,30.25V22.3l-5.02,1.97V21.8
			l5.02-1.99v-4.2h3.07v3l4.63-1.85l-0.02,2.47l-4.61,1.85v7.49h5.98l-0.98,1.68H1009.68z"/>
		<path class="st6" d="M1024.44,17.05h-2.98v-1.03h3.43l0.17-0.43h2.74l-0.17,0.43h3.89v7.56h-3.72v-1.03h0.98v-5.5h-1.61
			l-2.76,6.53h-2.74L1024.44,17.05z M1033.37,25.16h9.14l-0.6,1.03h-8.54v4.15h-2.74v-4.15h-4.32l-1.85,4.15h-3l1.85-4.15h-1.85
			v-1.03h9.17v-1.18h2.74V25.16z M1039.78,17.05H1035v5.5h4.78l-0.6,1.03h-6.91v-7.56h10.25v7.56h-2.74V17.05z M1042.51,30.34h-3
			l-1.63-3.65h3L1042.51,30.34z"/>
		<path class="st6" d="M1047.98,27.99h-2.4l1.44-9.48h-1.27v-1.13h3.12v-1.8h2.74v1.8l3.17-0.02l-0.79,1.15h-2.38V20h2.11l0.98,4.68
			h-2.57l-0.53-2.52v8.18h-2.74v-8.21L1047.98,27.99z M1054.44,26.89l2.52-6.89h2.74l-2.11,5.76h2.52l-0.65-2.06h2.74l1.01,3.19
			H1054.44z M1054.7,19.33l1.63-3.74h2.74l-0.43,1.01l5.02-0.02l-0.72,1.15h-4.8l-0.7,1.61H1054.7z M1066.39,30.34h-6.05v-1.13h3.31
			V16.59h2.74V30.34z"/>
	</g>
</g>
</svg>
