<?xml version="1.0" encoding="utf-8"?>
<!-- Generator: Adobe Illustrator 21.0.0, SVG Export Plug-In . SVG Version: 6.00 Build 0)  -->
<svg version="1.1" id="图层_1" xmlns="http://www.w3.org/2000/svg" xmlns:xlink="http://www.w3.org/1999/xlink" x="0px" y="0px"
	 viewBox="0 0 1920 55" style="enable-background:new 0 0 1920 55;" xml:space="preserve">
<style type="text/css">
	.st0{opacity:0.6;fill:#001BEA;enable-background:new    ;}
	.st1{opacity:0.2;}
	.st2{fill:#001BEA;}
	.st3{opacity:0.6;}
	.st4{opacity:0.2;fill:#001BEA;stroke:#001BEA;stroke-miterlimit:10;enable-background:new    ;}
	.st5{opacity:0.6;fill:none;stroke:#001BEA;stroke-miterlimit:10;enable-background:new    ;}
	.st6{fill:#7EFAFC;}
</style>
<g>
	<g>
		<rect x="55" y="26" class="st0" width="664.5" height="1"/>
		<g class="st1">
			<polygon class="st2" points="0.5,32.5 0.5,28.2 6.2,22.5 49.8,22.5 55.4,26.5 7.7,26.5 4.7,32.5 			"/>
			<path class="st2" d="M49.7,23l4.2,3H8H7.4l-0.3,0.5L4.4,32H1v-3.6L6.4,23H49.7 M50,22H6l-6,6v5h5l3-6h49L50,22L50,22z"/>
		</g>
		<g class="st3">
			<path class="st2" d="M49.7,23l4.2,3H8l-0.9,0.5L4.4,32H1v-3.6L6.4,23H49.7 M50,22H6l-6,6v5h5l3-6h49L50,22L50,22z"/>
		</g>
	</g>
	<g>
		<polygon class="st4" points="706,0.5 733,51.5 751,51.5 756,46.5 1165,46.5 1169,51.5 1187,51.5 1214,0.5 		"/>
		<polygon class="st0" points="757.5,51 754.5,55 1165.5,55 1162.5,51 		"/>
		<polygon class="st5" points="706,0.5 733,51.5 751,51.5 756,46.5 1165,46.5 1169,51.5 1187,51.5 1214,0.5 		"/>
	</g>
	<g>
		<rect x="1200.5" y="26" class="st0" width="664.5" height="1"/>
		<g class="st1">
			<polygon class="st2" points="1915.3,32.5 1912.3,26.5 1864.6,26.5 1870.2,22.5 1913.8,22.5 1919.5,28.2 1919.5,32.5 			"/>
			<path class="st2" d="M1913.6,23l5.4,5.4V32h-3.4l-2.7-5.5l-0.3-0.5h-0.6h-45.9l4.2-3H1913.6 M1914,22h-44l-7,5h49l3,6h5v-5
				L1914,22L1914,22z"/>
		</g>
		<g class="st3">
			<path class="st2" d="M1913.6,23l5.4,5.4V32h-3.4l-2.7-5.5L1912,26h-45.9l4.2-3H1913.6 M1914,22h-44l-7,5h49l3,6h5v-5L1914,22
				L1914,22z"/>
		</g>
	</g>
	<g>
		<path class="st6" d="M833.8,19.1h-2.1v-1.2h6.1v-3.7h3.3v3.7h6.1l-0.8,1.2h-5.3v4.6h-3.3v-4.6h-0.9l-1.2,4.2h-3.1L833.8,19.1z
			 M846.5,31.8l-6.8-1.6l-6.9,1.7l-0.1-1.9l3.2-0.7l-3.2-0.7l0.9-2.7h-1.8v-1.5h2.3l0.3-1h3.3l-0.3,1h10l-0.8,1.5h-0.7v2.8l-2.2,0.6
			l2.9,0.7L846.5,31.8L846.5,31.8z M836.9,17.4h-3.3l-0.8-2.8h3.2L836.9,17.4z M842.6,27.6v-1.8h-5.8l-0.6,1.5l3.6,0.9L842.6,27.6z
			 M845.2,17.4H842l0.7-2.8h3.3L845.2,17.4z M846.5,23.3H843l-0.9-3.5h3.2L846.5,23.3z M851.6,14l-0.8,1.8h5.9l-0.7,1.3h-0.7v4.4
			l-1.9,3.9l3.1,6.2h-3.6l-1.2-2.6l-1.3,2.6h-3.6l3-6.3l-3-6.1h3.6l1.2,2.4l0.4-0.9v-3.6h-5.2l1.6-3.1L851.6,14L851.6,14z"/>
		<path class="st6" d="M863.6,30.6v-4.8l-2.2,0.6v-1.5l2.2-0.6v-6.2h-2v-1.4h2V14h3.3v2.8h1.9l-0.6,1.4h-1.3v5.3l1.7-0.5v1.4
			l-1.7,0.6v7h-4.7l-0.7-1.3H863.6z M870.1,14h14.7v5.2h-11.6v5.4h-0.1l-1.8,7.4h-3.1l1.8-7.5L870.1,14L870.1,14z M873.2,15.3v2.4
			h8.4v-3.4l-1,1H873.2z M873.9,24.7h4.1v-2.1h-4.1v-1.4h4.1v-1.4h3.2v1.4h3.6l-0.6,1.4h-3v2.1h3.6v7.2h-11L873.9,24.7L873.9,24.7z
			 M877.1,26v4.6h4.5v-5.6l-1,1L877.1,26L877.1,26z"/>
		<path class="st6" d="M913.6,26.7h-9.8v5.2h-3.5v-5.2h-9.8V17h9.8v-2.9h3.5V17h6.5l-0.8,1.4h-5.7v6.9h6.5V17h3.3L913.6,26.7
			L913.6,26.7z M900.4,18.4h-6.5v6.9h6.5V18.4z"/>
		<path class="st6" d="M922.3,31.6h-3.5l1.7-16.2h3.4L922.3,31.6z M937.5,31.6h-12.3V14.3h3.8v16h9.5L937.5,31.6z M933.1,29.1
			l-1.6-13.7h3.4l1.7,13.7H933.1z M939.8,31.6l-1.6-16.2h3.4l1.6,16.2C943.2,31.6,939.8,31.6,939.8,31.6z"/>
		<path class="st6" d="M971.1,15.5h-2v16.4h-6.4l-0.7-1.5h3.6V15.5h-17.4v-1.4h23.7L971.1,15.5z M962.5,28.8h-12.4V17.7h12.4V28.8z
			 M958.6,19h-5.2v8.6h5.9v-9.8L958.6,19z"/>
		<path class="st6" d="M986,27.4h-2.5l-0.4-1v5.4h-3.2V27l-0.3,0.5h-3.2l5.3-10.2h-4.4V16h2.6v-1.9h3.2V16h2.7l-2.6,4.9L986,27.4z
			 M997,30.4h4.4l-0.8,1.4h-7.1v-5.2l-3.6,5.2h-3.7l5.2-7.6v-6.3h3.2v7.1l-0.7,1h3L997,30.4L997,30.4z M999.6,14.6v10.6h-3.4V14.8
			l-0.7,1.2h-5.4v9.2h-3.3V14.6H999.6z"/>
		<path class="st6" d="M1007.2,22.1h-2.2l3.2-7.9h3.5l-2.5,6.3h1.5v11.4h-3.4L1007.2,22.1L1007.2,22.1z M1019.9,31.8v-9.6l-6.1,2.4
			v-3l6.1-2.4v-5.1h3.7v3.6l5.6-2.2l0,3l-5.6,2.2v9h7.2l-1.2,2H1019.9z"/>
		<path class="st6" d="M1037.7,15.8h-3.6v-1.2h4.1l0.2-0.5h3.3l-0.2,0.5h4.7v9.1h-4.5v-1.2h1.2v-6.6h-1.9l-3.3,7.9h-3.3L1037.7,15.8
			z M1048.5,25.6h11l-0.7,1.2h-10.3v5h-3.3v-5h-5.2l-2.2,5h-3.6l2.2-5h-2.2v-1.2h11.1v-1.4h3.3L1048.5,25.6L1048.5,25.6z
			 M1056.2,15.8h-5.8v6.6h5.8l-0.7,1.2h-8.3v-9.1h12.4v9.1h-3.3V15.8z M1059.5,31.9h-3.6l-2-4.4h3.6L1059.5,31.9z"/>
		<path class="st6" d="M1066.1,29h-2.9l1.7-11.4h-1.5v-1.4h3.8v-2.2h3.3v2.2l3.8,0l-1,1.4h-2.9v1.8h2.5l1.2,5.6h-3.1l-0.6-3v9.9
			h-3.3V22L1066.1,29z M1073.9,27.7l3-8.3h3.3l-2.5,6.9h3l-0.8-2.5h3.3l1.2,3.8C1084.5,27.7,1073.9,27.7,1073.9,27.7z M1074.2,18.6
			l2-4.5h3.3l-0.5,1.2l6.1,0l-0.9,1.4h-5.8l-0.8,1.9L1074.2,18.6L1074.2,18.6z M1088.3,31.9h-7.3v-1.4h4V15.3h3.3V31.9z"/>
	</g>
</g>
</svg>
