<?xml version="1.0" encoding="utf-8"?>
<!-- Generator: Adobe Illustrator 21.0.0, SVG Export Plug-In . SVG Version: 6.00 Build 0)  -->
<svg version="1.1" id="图层_1" xmlns="http://www.w3.org/2000/svg" xmlns:xlink="http://www.w3.org/1999/xlink" x="0px" y="0px"
	 viewBox="0 0 1920 46" style="enable-background:new 0 0 1920 46;" xml:space="preserve">
<style type="text/css">
	.st0{fill:#0D1D4C;}
	.st1{fill:#419FFF;}
	.st2{fill:#2773E5;}
	.st3{fill:url(#SVGID_1_);}
	.st4{fill:url(#SVGID_2_);}
	.st5{fill:url(#SVGID_3_);}
	.st6{fill:none;stroke:#2773E5;stroke-miterlimit:10;}
	.st7{fill:url(#SVGID_4_);}
	.st8{fill:url(#SVGID_5_);}
	.st9{fill:url(#SVGID_6_);}
	.st10{fill:url(#SVGID_7_);}
</style>
<g>
	<g>
		<polygon class="st0" points="752.2,45.5 731.5,25.8 731.5,8.2 737.3,0.5 1182.8,0.5 1189.5,8.2 1189.5,25.8 1171.8,45.5 		"/>
		<path class="st1" d="M1182.6,1l6.4,7.4v17.2L1171.6,45H752.4L732,25.6V8.3l5.5-7.3H1182.6 M1183,0H737l-6,8v18l21,20h420l18-20V8
			L1183,0L1183,0z"/>
	</g>
	<g>
		<rect x="1204" y="6" class="st2" width="9" height="1"/>
		<rect x="1190" y="43" class="st2" width="42" height="1"/>
		
			<linearGradient id="SVGID_1_" gradientUnits="userSpaceOnUse" x1="1220" y1="33.5" x2="1920" y2="33.5" gradientTransform="matrix(1 0 0 -1 0 48)">
			<stop  offset="0.6" style="stop-color:#2773E5"/>
			<stop  offset="1" style="stop-color:#2773E5;stop-opacity:0"/>
		</linearGradient>
		<rect x="1220" y="14" class="st3" width="700" height="1"/>
		
			<linearGradient id="SVGID_2_" gradientUnits="userSpaceOnUse" x1="1251" y1="27.5" x2="1920" y2="27.5" gradientTransform="matrix(1 0 0 -1 0 48)">
			<stop  offset="0.6" style="stop-color:#2773E5"/>
			<stop  offset="1" style="stop-color:#2773E5;stop-opacity:0"/>
		</linearGradient>
		<rect x="1251" y="20" class="st4" width="669" height="1"/>
		
			<linearGradient id="SVGID_3_" gradientUnits="userSpaceOnUse" x1="1251" y1="20" x2="1691" y2="20" gradientTransform="matrix(1 0 0 -1 0 48)">
			<stop  offset="0" style="stop-color:#2773E5"/>
			<stop  offset="1" style="stop-color:#2773E5;stop-opacity:0"/>
		</linearGradient>
		<rect x="1251" y="27" class="st5" width="440" height="2"/>
		<polygon class="st2" points="1214,6 1223,15 1219,15 1210.4,6 		"/>
		<polygon class="st2" points="1219,5 1227,5 1233,11 1225,11 		"/>
		<polygon class="st2" points="1241,23 1228,23 1215,37 1228,37 		"/>
		<polyline class="st6" points="1230.5,43.5 1232,43.5 1250.5,20.5 1252.5,20.5 		"/>
	</g>
	<g>
		<rect x="707" y="6" class="st2" width="9" height="1"/>
		<rect x="688" y="43" class="st2" width="42" height="1"/>
		
			<linearGradient id="SVGID_4_" gradientUnits="userSpaceOnUse" x1="584" y1="33.5" x2="1284" y2="33.5" gradientTransform="matrix(-1 0 0 -1 1284 48)">
			<stop  offset="0.6" style="stop-color:#2773E5"/>
			<stop  offset="1" style="stop-color:#2773E5;stop-opacity:0"/>
		</linearGradient>
		<polygon class="st7" points="0,15 700,15 700,14 0,14 		"/>
		
			<linearGradient id="SVGID_5_" gradientUnits="userSpaceOnUse" x1="615" y1="27.5" x2="1284" y2="27.5" gradientTransform="matrix(-1 0 0 -1 1284 48)">
			<stop  offset="0.6" style="stop-color:#2773E5"/>
			<stop  offset="1" style="stop-color:#2773E5;stop-opacity:0"/>
		</linearGradient>
		<polygon class="st8" points="0,21 669,21 669,20 0,20 		"/>
		
			<linearGradient id="SVGID_6_" gradientUnits="userSpaceOnUse" x1="615" y1="20" x2="1055" y2="20" gradientTransform="matrix(-1 0 0 -1 1284 48)">
			<stop  offset="0" style="stop-color:#2773E5"/>
			<stop  offset="1" style="stop-color:#2773E5;stop-opacity:0"/>
		</linearGradient>
		<polygon class="st9" points="229,29 669,29 669,27 229,27 		"/>
		<polygon class="st2" points="706,6 697,15 701,15 709.6,6 		"/>
		<polygon class="st2" points="701,5 693,5 687,11 695,11 		"/>
		<polygon class="st2" points="679,23 692,23 705,37 692,37 		"/>
		<polyline class="st6" points="689.5,43.5 688,43.5 669.5,20.5 667.5,20.5 		"/>
	</g>
	<g>
		
			<radialGradient id="SVGID_7_" cx="1111.5851" cy="-10044.8467" r="48.8103" gradientTransform="matrix(2.1739 0 0 -3.460000e-02 -1454.4746 -303.0517)" gradientUnits="userSpaceOnUse">
			<stop  offset="0" style="stop-color:#7EFAFC"/>
			<stop  offset="1" style="stop-color:#00DFFF;stop-opacity:0"/>
		</radialGradient>
		<ellipse class="st10" cx="962" cy="44.5" rx="150" ry="1.5"/>
	</g>
</g>
</svg>
