<?xml version="1.0" encoding="utf-8"?>
<!-- Generator: Adobe Illustrator 23.0.3, SVG Export Plug-In . SVG Version: 6.00 Build 0)  -->
<svg version="1.1" id="图层_1" xmlns="http://www.w3.org/2000/svg" xmlns:xlink="http://www.w3.org/1999/xlink" x="0px" y="0px"
	 viewBox="0 0 190 85" style="enable-background:new 0 0 190 85;" xml:space="preserve">
<style type="text/css">
	.st0{opacity:0.2;fill:#B39C36;}
	.st1{fill:#B39C36;}
	.st2{opacity:0.4;}
</style>
<polygon class="st0" points="189.5,77.43 189.5,7.97 184.73,2.5 0.5,2.5 0.5,83.5 184.84,83.5 "/>
<polygon class="st1" points="153,3 185,3 183,0 155,0 "/>
<polygon class="st1" points="134,3 147,3 146,1 135,1 "/>
<polygon class="st1" points="170,85 181,85 182,83 169,83 "/>
<g class="st2">
	<path class="st1" d="M184.27,3.5l4.23,4.85v68.74l-4.16,5.41H1.5v-79H184.27 M184.73,2.5H0.5v81h184.34l4.66-6.07V7.97L184.73,2.5
		L184.73,2.5z"/>
</g>
</svg>
