<?xml version="1.0" encoding="utf-8"?>
<!-- Generator: Adobe Illustrator 23.0.3, SVG Export Plug-In . SVG Version: 6.00 Build 0)  -->
<svg version="1.1" id="图层_1" xmlns="http://www.w3.org/2000/svg" xmlns:xlink="http://www.w3.org/1999/xlink" x="0px" y="0px"
	 viewBox="0 0 1920 46" style="enable-background:new 0 0 1920 46;" xml:space="preserve">
<style type="text/css">
	.st0{fill:#0D1D4C;}
	.st1{fill:#419FFF;}
	.st2{fill:#7EFAFC;}
	.st3{fill:#2773E5;}
	.st4{fill:url(#SVGID_1_);}
	.st5{fill:url(#SVGID_2_);}
	.st6{fill:url(#SVGID_3_);}
	.st7{fill:none;stroke:#2773E5;stroke-miterlimit:10;}
	.st8{fill:url(#SVGID_4_);}
	.st9{fill:url(#SVGID_5_);}
	.st10{fill:url(#SVGID_6_);}
	.st11{fill:url(#SVGID_7_);}
</style>
<g>
	<g>
		<polygon class="st0" points="752.2,45.5 731.5,25.79 731.5,8.17 737.25,0.5 1182.77,0.5 1189.5,8.19 1189.5,25.81 1171.78,45.5 		
			"/>
		<path class="st1" d="M1182.55,1l6.45,7.38v17.24L1171.55,45H752.4L732,25.57V8.33L737.5,1H1182.55 M1183,0H737l-6,8v18l21,20h420
			l18-20V8L1183,0L1183,0z"/>
	</g>
	<g>
		<path class="st2" d="M892.22,22.02l-2.26,0l3.29-6.44h2.96l-2.09,4.09h0.84v10.67h-2.74V22.02z M904.99,16.74h6.02l-0.72,1.08
			h-13.9v-1.08h5.86v-1.15h2.74V16.74z M896.4,19.3h14.62l-0.72,1.13h-13.9V19.3z M896.4,21.9h14.62l-0.72,1.13h-13.9V21.9z
			 M910.75,30.34H896.4v-5.95h11.62l-0.62,1.13h-8.26v3.65h8.88v-4.78h2.74V30.34z"/>
		<path class="st2" d="M916,26.02h2.9l-1.46,4.27h-2.9L916,26.02z M933.16,25.16h-17.38v-8.18h2.69l1.01-1.37h3.41l-0.86,1.37h11.13
			V25.16z M930.48,17.29l-0.72,0.82h-11.23v1.22h11.86l-0.62,1.13h-11.23v1.25h11.86l-0.62,1.13h-11.23v1.3h11.95V17.29z
			 M922.56,29.26h7.63v1.03h-10.37v-4.25h2.74V29.26z M924.36,26.05h2.88l1.03,2.3h-2.88L924.36,26.05z M934.46,30.32h-2.86
			l-1.56-4.27h2.88L934.46,30.32z"/>
		<path class="st2" d="M938.25,30.34l1.46-11.54h-1.15v-1.13h2.74v-2.09h2.74v2.09h1.92l-0.5,1.13h-1.42v1.56h1.5l1.38,4.01h-2.55
			l-0.33-1.18v7.15h-2.74v-6.82l-0.89,6.82H938.25z M950.13,22.95l-1.3,7.39h-2.5l1.3-7.39H950.13z M951.14,21.51h-4.68v-1.13h12.29
			l-0.62,1.13h-4.18v8.83h-3.48l-0.6-1.1h1.27V21.51z M956.85,17.62h-9.1V16.5h9.72L956.85,17.62z M958.75,30.34h-2.47l-1.3-7.39
			h2.47L958.75,30.34z"/>
		<path class="st2" d="M965.44,22.21l2.9,0l-2.95,7.88h-2.9L965.44,22.21z M963.04,15.85h2.86l1.73,5.06h-2.86L963.04,15.85z
			 M978.16,19.71v2.4h4.01l-0.6,1.03h-3.41v2.4h4.01l-0.6,1.03h-3.41v2.66h4.34l-0.6,1.03h-12.46v-8.28h-2.06l3.07-6.34h2.83
			l-1.46,3.02l4.3-0.02l-1.1-3h2.47l1.1,3.02h3.91l-0.6,1.03H978.16z M975.72,19.71h-3.67v2.4h3.67V19.71z M975.72,23.14h-3.67v2.4
			h3.67V23.14z M975.72,26.58h-3.67v2.66h3.67V26.58z"/>
		<path class="st2" d="M1005.91,30.27h-19.66v-1.13h1.94v-5.66h13.49l-0.46,1.13H1000v4.54h1.8v-5.66h2.74v5.66h1.85L1005.91,30.27z
			 M990.16,22.54h-2.74v-6.6h2.74V22.54z M990.93,29.14h1.8v-4.54h-1.8V29.14z M994.22,22.86h-2.74v-7.18h2.74V22.86z
			 M1000.53,17.58h6.19l-0.5,1.13h-2.74l1.68,3.74h-2.93l-1.7-3.74h-0.67l-1.54,3.34h-3.1l3.02-6.36h3.05L1000.53,17.58z
			 M995.47,24.61v4.54h1.8v-4.54H995.47z"/>
		<path class="st2" d="M1016.64,17.05h5.71l-0.74-1.49h2.9l0.7,1.49h5.66v2.86h-2.45l1.94,3.5h-1.49l-0.41,0.82h-3.34v5.06h5.74
			l-0.6,1.03h-13.63v-1.03h5.76v-5.06h-3.96v-0.82h-1.27l1.92-3.5h-2.45v-1.42l-0.34,0.74h-1.54v4.18l1.92-0.53v1.18l-1.92,0.62
			v5.71h-3.96l-0.55-1.06h1.66V25.4l-1.8,0.5v-1.22l1.8-0.55v-4.9h-1.68V18.1h1.68v-2.52h2.86v2.52h1.87V17.05z M1022.44,19.09
			l-2.23,3.98l7.1,0.02l-2.26-4.01h2.88v-1.08h-8.28v1.08H1022.44z"/>
	</g>
	<g>
		<rect x="1204" y="6" class="st3" width="9" height="1"/>
		<rect x="1190" y="43" class="st3" width="42" height="1"/>
		<linearGradient id="SVGID_1_" gradientUnits="userSpaceOnUse" x1="1220" y1="14.5" x2="1920" y2="14.5">
			<stop  offset="0.6" style="stop-color:#2773E5"/>
			<stop  offset="1" style="stop-color:#2773E5;stop-opacity:0"/>
		</linearGradient>
		<rect x="1220" y="14" class="st4" width="700" height="1"/>
		<linearGradient id="SVGID_2_" gradientUnits="userSpaceOnUse" x1="1251" y1="20.5" x2="1920" y2="20.5">
			<stop  offset="0.6" style="stop-color:#2773E5"/>
			<stop  offset="1" style="stop-color:#2773E5;stop-opacity:0"/>
		</linearGradient>
		<rect x="1251" y="20" class="st5" width="669" height="1"/>
		<linearGradient id="SVGID_3_" gradientUnits="userSpaceOnUse" x1="1251" y1="28" x2="1691" y2="28">
			<stop  offset="0" style="stop-color:#2773E5"/>
			<stop  offset="1" style="stop-color:#2773E5;stop-opacity:0"/>
		</linearGradient>
		<rect x="1251" y="27" class="st6" width="440" height="2"/>
		<polygon class="st3" points="1214,6 1223,15 1219,15 1210.4,6 		"/>
		<polygon class="st3" points="1219,5 1227,5 1233,11 1225,11 		"/>
		<polygon class="st3" points="1241,23 1228,23 1215,37 1228,37 		"/>
		<polyline class="st7" points="1230.5,43.5 1232,43.5 1250.5,20.5 1252.5,20.5 		"/>
	</g>
	<g>
		<rect x="707" y="6" transform="matrix(-1 -4.486867e-11 4.486867e-11 -1 1423 13)" class="st3" width="9" height="1"/>
		<rect x="688" y="43" transform="matrix(-1 -4.491175e-11 4.491175e-11 -1 1418 87)" class="st3" width="42" height="1"/>
		
			<linearGradient id="SVGID_4_" gradientUnits="userSpaceOnUse" x1="30" y1="14.5" x2="730" y2="14.5" gradientTransform="matrix(-1 0 0 1 730 0)">
			<stop  offset="0.6" style="stop-color:#2773E5"/>
			<stop  offset="1" style="stop-color:#2773E5;stop-opacity:0"/>
		</linearGradient>
		<polygon class="st8" points="0,15 700,15 700,14 0,14 		"/>
		
			<linearGradient id="SVGID_5_" gradientUnits="userSpaceOnUse" x1="61" y1="20.5" x2="730" y2="20.5" gradientTransform="matrix(-1 0 0 1 730 0)">
			<stop  offset="0.6" style="stop-color:#2773E5"/>
			<stop  offset="1" style="stop-color:#2773E5;stop-opacity:0"/>
		</linearGradient>
		<polygon class="st9" points="0,21 669,21 669,20 0,20 		"/>
		
			<linearGradient id="SVGID_6_" gradientUnits="userSpaceOnUse" x1="61" y1="28" x2="501" y2="28" gradientTransform="matrix(-1 0 0 1 730 0)">
			<stop  offset="0" style="stop-color:#2773E5"/>
			<stop  offset="1" style="stop-color:#2773E5;stop-opacity:0"/>
		</linearGradient>
		<polygon class="st10" points="229,29 669,29 669,27 229,27 		"/>
		<polygon class="st3" points="706,6 697,15 701,15 709.6,6 		"/>
		<polygon class="st3" points="701,5 693,5 687,11 695,11 		"/>
		<polygon class="st3" points="679,23 692,23 705,37 692,37 		"/>
		<polyline class="st7" points="689.5,43.5 688,43.5 669.5,20.5 667.5,20.5 		"/>
	</g>
	<g>
		
			<radialGradient id="SVGID_7_" cx="962" cy="48.1667" r="48.7955" gradientTransform="matrix(2.1739 0 0 0.0346 -1129.3043 42.8315)" gradientUnits="userSpaceOnUse">
			<stop  offset="0" style="stop-color:#7EFAFC"/>
			<stop  offset="1" style="stop-color:#00DFFF;stop-opacity:0"/>
		</radialGradient>
		<ellipse class="st11" cx="962" cy="44.5" rx="150" ry="1.5"/>
	</g>
</g>
</svg>
